<mxfile host="65bd71144e">
    <diagram id="mzwdPl77vy0Hv9czxy6M" name="Page-1">
        <mxGraphModel dx="1350" dy="680" grid="1" gridSize="10" guides="1" tooltips="1" connect="1" arrows="1" fold="1" page="1" pageScale="1" pageWidth="827" pageHeight="1169" math="0" shadow="0">
            <root>
                <mxCell id="0"/>
                <mxCell id="1" parent="0"/>
                <mxCell id="4" value="" style="edgeStyle=none;html=1;" edge="1" parent="1" source="2" target="3">
                    <mxGeometry relative="1" as="geometry"/>
                </mxCell>
                <mxCell id="5" value="" style="edgeStyle=none;html=1;" edge="1" parent="1" source="2" target="3">
                    <mxGeometry relative="1" as="geometry"/>
                </mxCell>
                <mxCell id="2" value="Serializer" style="rounded=0;whiteSpace=wrap;html=1;" vertex="1" parent="1">
                    <mxGeometry x="240" y="120" width="160" height="40" as="geometry"/>
                </mxCell>
                <mxCell id="8" value="" style="edgeStyle=none;html=1;" edge="1" parent="1" source="3" target="7">
                    <mxGeometry relative="1" as="geometry"/>
                </mxCell>
                <mxCell id="16" value="" style="edgeStyle=none;html=1;dashed=1;" edge="1" parent="1" source="3" target="15">
                    <mxGeometry relative="1" as="geometry"/>
                </mxCell>
                <mxCell id="3" value="SerializableSerializer" style="rounded=0;whiteSpace=wrap;html=1;" vertex="1" parent="1">
                    <mxGeometry x="240" y="240" width="160" height="40" as="geometry"/>
                </mxCell>
                <mxCell id="20" value="" style="edgeStyle=none;html=1;dashed=1;" edge="1" parent="1" source="6" target="19">
                    <mxGeometry relative="1" as="geometry"/>
                </mxCell>
                <mxCell id="6" value="OperandSerializer" style="rounded=0;whiteSpace=wrap;html=1;" vertex="1" parent="1">
                    <mxGeometry x="240" y="360" width="160" height="40" as="geometry"/>
                </mxCell>
                <mxCell id="18" value="" style="edgeStyle=none;html=1;dashed=1;" edge="1" parent="1" source="7" target="17">
                    <mxGeometry relative="1" as="geometry"/>
                </mxCell>
                <mxCell id="7" value="BaseSerializer" style="rounded=0;whiteSpace=wrap;html=1;" vertex="1" parent="1">
                    <mxGeometry x="40" y="360" width="160" height="40" as="geometry"/>
                </mxCell>
                <mxCell id="22" value="" style="edgeStyle=none;html=1;dashed=1;" edge="1" parent="1" source="9" target="21">
                    <mxGeometry relative="1" as="geometry"/>
                </mxCell>
                <mxCell id="9" value="GraphSerializer" style="rounded=0;whiteSpace=wrap;html=1;" vertex="1" parent="1">
                    <mxGeometry x="440" y="360" width="160" height="40" as="geometry"/>
                </mxCell>
                <mxCell id="10" value="" style="edgeStyle=none;html=1;entryX=0.5;entryY=0;entryDx=0;entryDy=0;exitX=0.5;exitY=1;exitDx=0;exitDy=0;" edge="1" parent="1" source="3" target="6">
                    <mxGeometry relative="1" as="geometry">
                        <mxPoint x="230" y="290" as="sourcePoint"/>
                        <mxPoint x="150" y="370" as="targetPoint"/>
                    </mxGeometry>
                </mxCell>
                <mxCell id="11" value="" style="edgeStyle=none;html=1;entryX=0.5;entryY=0;entryDx=0;entryDy=0;exitX=0.75;exitY=1;exitDx=0;exitDy=0;" edge="1" parent="1" source="3" target="9">
                    <mxGeometry relative="1" as="geometry">
                        <mxPoint x="250" y="290" as="sourcePoint"/>
                        <mxPoint x="370" y="370" as="targetPoint"/>
                    </mxGeometry>
                </mxCell>
                <mxCell id="12" value="" style="shape=image;verticalLabelPosition=bottom;labelBackgroundColor=#ffffff;verticalAlign=top;aspect=fixed;imageAspect=0;image=data:image/png,iVBORw0KGgoAAAANSUhEUgAABywAAAJSCAIAAAAeaqVNAAAK1WlDQ1BJQ0MgUHJvZmlsZQAASImVlwdYU1kWx+97L73QAghICb0J0gkgJfRQBOkgKiEJJJQYEoKIXRkcwbGgIoJlRAdBFBwdiqiIWLAwKCrFOkEGBXUdLNhQ2QcsYWb2291vz/fd3F9Ozj33nJd78/0DANWXLRJlwEoAZAqzxREB3vS4+AQ6/ikgACWgCBBgzOZIRMzw8BCA2vT8V3vfA6CJ+Y7VRK5///y/mgqXJ+EAACWinMyVcDJRbkXHEEckzgYAqUL9hsuyRRPcgbKqGC0QZdkEp07xuwlOnmQMYTImKsIHZW0ACBQ2W5wKAMUM9dNzOKloHkogyjZCrkCIci7KHhw+m4tyE8pzMjOXTvDvKJuh8SIAqBSUGcl/ypn6l/zJ8vxsdqqcp/qaNIKvQCLKYC//Px/N/7bMDOn0HibooPDFgRHojH6bUF/60mA5C5Pnh02zgDsZP8l8aWD0NHMkPgnTzGX7BsvXZswPmeYUgT9LniebFTXNPIlf5DSLl0bI90oR+zCnmS2e2VeaHi3383ksef48flTsNOcIYuZPsyQ9MngmxkfuF0sj5PXzhAHeM/v6y3vPlPypXwFLvjabHxUo7509Uz9PyJzJKYmT18bl+frNxETL40XZ3vK9RBnh8nheRoDcL8mJlK/NRg/nzNpw+TNMYweFTzMIBOGADvyAHXAG9iArm5ebPdGEz1LRcrEglZ9NZ6I3jUdnCTnWc+h2NnZ2AEzc26mj8LZv8j5C6oQZX1Y3eoT1UBic8bFvAXCmFgDapxmfoQ16jOwBaAnjSMU5Uz7MxAsWkNDfA1WgCXSBITADVmhtTsANeKFVBoEwEAXiwWLAAXyQCcRgGVgJ1oECUAS2gV2gDBwAh0AVOA5OgkZwFlwAV8ANcAt0gwdABgbBCzAC3oMxCILwEBWiQZqQHmQMWUJ2EAPygPygECgCioeSoFRICEmhldAGqAgqhsqgg1A19DN0GroAXYO6oHtQPzQMvYE+wwhMgVVhHdgEngszYCYcDEfBi+BUOAvOg/PhLXApXAEfgxvgC/ANuBuWwS/gUQQgZEQd0UesEAbig4QhCUgKIkZWI4VICVKB1CLNSDtyB5EhL5FPGByGhqFjrDBumEBMNIaDycKsxmzGlGGqMA2YS5g7mH7MCOYblorVxlpiXbEsbBw2FbsMW4AtwVZi67GXsd3YQex7HA6njjPFOeMCcfG4NNwK3GbcPlwdrhXXhRvAjeLxeE28Jd4dH4Zn47PxBfg9+GP48/jb+EH8RwKZoEewI/gTEghCwnpCCeEooYVwm/CMMEZUIhoTXYlhRC5xOXEr8TCxmXiTOEgcIymTTEnupChSGmkdqZRUS7pMekh6SyaTDcgu5AVkAXktuZR8gnyV3E/+RFGhWFB8KIkUKWUL5QillXKP8pZKpZpQvagJ1GzqFmo19SL1MfWjAk3BWoGlwFVYo1Cu0KBwW+GVIlHRWJGpuFgxT7FE8ZTiTcWXSkQlEyUfJbbSaqVypdNKvUqjyjRlW+Uw5UzlzcpHla8pD6ngVUxU/FS4Kvkqh1QuqgzQEJohzYfGoW2gHaZdpg2q4lRNVVmqaapFqsdVO1VH1FTUHNRi1HLVytXOqcnUEXUTdZZ6hvpW9ZPqPeqfZ+nMYs7izdo0q3bW7VkfNGZreGnwNAo16jS6NT5r0jX9NNM1t2s2aj7SwmhZaC3QWqa1X+uy1svZqrPdZnNmF84+Ofu+NqxtoR2hvUL7kHaH9qiOrk6Ajkhnj85FnZe66rpeumm6O3VbdIf1aHoeegK9nXrn9Z7T1ehMega9lH6JPqKvrR+oL9U/qN+pP2ZgahBtsN6gzuCRIcmQYZhiuNOwzXDESM8o1GilUY3RfWOiMcOYb7zbuN34g4mpSazJRpNGkyFTDVOWaZ5pjelDM6qZp1mWWYXZXXOcOcM83Xyf+S0L2MLRgm9RbnHTErZ0shRY7rPsmoOd4zJHOKdiTq8VxYpplWNVY9VvrW4dYr3eutH61VyjuQlzt89tn/vNxtEmw+awzQNbFdsg2/W2zbZv7CzsOHbldnftqfb+9mvsm+xfO1g68Bz2O/Q50hxDHTc6tjl+dXJ2EjvVOg07GzknOe917mWoMsIZmxlXXbAu3i5rXM66fHJ1cs12Pen6h5uVW7rbUbeheabzePMOzxtwN3Bnux90l3nQPZI8fvSQeep7sj0rPJ94GXpxvSq9njHNmWnMY8xX3jbeYu967w8+rj6rfFp9Ed8A30LfTj8Vv2i/Mr/H/gb+qf41/iMBjgErAloDsYHBgdsDe1k6LA6rmjUS5By0KuhSMCU4Mrgs+EmIRYg4pDkUDg0K3RH6cL7xfOH8xjAQxgrbEfYo3DQ8K/zMAtyC8AXlC55G2EasjGiPpEUuiTwa+T7KO2pr1INos2hpdFuMYkxiTHXMh1jf2OJYWdzcuFVxN+K14gXxTQn4hJiEyoTRhX4Ldy0cTHRMLEjsWWS6KHfRtcVaizMWn1uiuIS95FQSNik26WjSF3YYu4I9msxK3ps8wvHh7Oa84Hpxd3KHee68Yt6zFPeU4pShVPfUHanDfE9+Cf+lwEdQJnidFph2IO1Delj6kfTxjNiMukxCZlLmaaGKMF14aanu0tylXSJLUYFIluWatStrRBwsrpRAkkWSpmxVVCB1SM2k30n7czxyynM+LotZdipXOVeY27HcYvmm5c/y/PN+WoFZwVnRtlJ/5bqV/auYqw6uhlYnr25bY7gmf83g2oC1VetI69LX/breZn3x+ncbYjc05+vkr80f+C7gu5oChQJxQe9Gt40Hvsd8L/i+c5P9pj2bvhVyC68X2RSVFH3ZzNl8/QfbH0p/GN+SsqVzq9PW/dtw24TberZ7bq8qVi7OKx7YEbqjYSd9Z+HOd7uW7LpW4lByYDdpt3S3rDSktGmP0Z5te76U8cu6y73L6/Zq792098M+7r7b+7321x7QOVB04POPgh/7DgYcbKgwqSg5hDuUc+jp4ZjD7T8xfqqu1Kosqvx6RHhEVhVRdanaubr6qPbRrTVwjbRm+FjisVvHfY831VrVHqxTrys6AU5ITzz/OennnpPBJ9tOMU7V/mL8y956Wn1hA9SwvGGkkd8oa4pv6joddLqt2a25/oz1mSNn9c+Wn1M7t7WF1JLfMn4+7/xoq6j15YXUCwNtS9oeXIy7ePfSgkudl4MvX73if+ViO7P9/FX3q2evuV47fZ1xvfGG042GDseO+l8df63vdOpsuOl8s+mWy63mrnldLbc9b1+443vnyl3W3Rvd87u7eqJ7+noTe2V93L6hexn3Xt/PuT/2YO1D7MPCR0qPSh5rP674zfy3OpmT7Fy/b3/Hk8gnDwY4Ay9+l/z+ZTD/KfVpyTO9Z9VDdkNnh/2Hbz1f+HzwhejF2MuCfyj/Y+8rs1e//OH1R8dI3Mjga/Hr8Teb32q+PfLO4V3baPjo4/eZ78c+FH7U/Fj1ifGp/XPs52djy77gv5R+Nf/a/C3428PxzPFxEVvMnpQCCDrglBQA3hxBdXE8qh1QDUFaOKWrJw2a+i8wSeA/8ZT2njQnAKrXAhDlBUAo+nZ/KwDGE1IW9YV7Tfphe3v5+JdJUuztpnKRG1FpUjI+/hbVjXhzAL72jo+PNY6Pf61Ei70PQOv7KT0/YQYKADhMqsF7VvfB321K6/+px7/PYKICB/D3+Z9BjBZsVR0EZgAAADhlWElmTU0AKgAAAAgAAYdpAAQAAAABAAAAGgAAAAAAAqACAAQAAAABAAAHLKADAAQAAAABAAACUgAAAAA1ojBYAABAAElEQVR4Aezdd3RUV7r3eSQkggAJRM5JZDDRZEQ2wcY2BuOcOt3u233De981a83cP953Zq1Z6521Zm73e+90uGO3u9vdzjlhjMnRJJNzRkQBAkQSIJDmJ7bYbM6pKlVJFSTVV0sL79pnn733+ZxTZXjqOfuk9OvXLz09vU6dOsXFxfoznj+JGjcrK0uHWVhYGM+D1ViJOt5kG5fzG58LO1HXFeeX8xsLgURdz8k2Lu/fWFy9/j4TdV0l6vwagUQddbKNm6iznGzOiTpezq//EzUWNZzfWKj6+0yUc6LG5f3rvwZiUcP5jYWqv89EOcdh3FT/0VKDAAIIIIAAAggggAACCCCAAAIIIIAAAgggEC0BgrDRkqQfBBBAAAEEEEAAAQQQQAABBBBAAAEEEEAggABB2AAoVCGAAAIIIIAAAggggAACCCCAAAIIIIAAAtESIAgbLUn6QQABBBBAAAEEEEAAAQQQQAABBBBAAAEEAggQhA2AQhUCCCCAAAIIIIAAAggggAACCCCAAAIIIBAtAYKw0ZKkHwQQQAABBBBAAAEEEEAAAQQQQAABBBBAIIAAQdgAKFQhgAACCCCAAAIIIIAAAggggAACCCCAAALREiAIGy1J+kEAAQQQQAABBBBAAAEEEEAAAQQQQAABBAIIEIQNgEIVAggggAACCCCAAAIIIIAAAggggAACCCAQLQGCsNGSpB8EEEAAAQQQQAABBBBAAAEEEEAAAQQQQCCAAEHYAChUIYAAAggggAACCCCAAAIIIIAAAggggAAC0RIgCBstSfpBAAEEEEAAAQQQQAABBBBAAAEEEEAAAQQCCBCEDYBCFQIIIIAAAggggAACCCCAAAIIIIAAAgggEC0BgrDRkqQfBBBAAAEEEEAAAQQQQAABBBBAAAEEEEAggABB2AAoVCGAAAIIIIAAAggggAACCCCAAAIIIIAAAtESIAgbLUn6QQABBBBAAAEEEEAAAQQQQAABBBBAAAEEAgikpaenm2pbCNAqllWMG0vd+33jfN8iliWcY6l7v2+c71vEsoRzLHXv943zfYtYlnCOpe79vhPlbGaQqNEZ9/4VEMsSzrHUvd83zvctYlnCOZa69/vG+b5FLEs4x1L3ft8437eIZSmmzmTCxvLU0TcCCCCAAAIIIIAAAggggAACCCCAAAIIJL1AWnFxsYnyqhBnjUSNaw4zeY43Uc6JGpfzG583Mue3djtzfjm/sRPg/7+xszU9J9v7N7FHnSjtRI1rtHkX8y6OrkCirudkG5f3b3Sv22C9Jeq64vwGOyPRref8RtczWG+Jco7DuGTCBjvp1COAAAIIIIAAAggggAACCCCAAAIIIIAAAlEQIAgbBUS6QAABBBBAAAEEEEAAAQQQQAABBBBAAAEEggkQhA0mQz0CCCCAAAIIIIAAAggggAACCCCAAAIIIBAFAYKwUUCkCwQQQAABBBBAAAEEEEAAAQQQQAABBBBAIJgAQdhgMtQjgAACCCCAAAIIIIAAAggggAACCCCAAAJRECAIGwVEukAAAQQQQAABBBBAAAEEEEAAAQQQQAABBIIJEIQNJkM9AggggAACCCCAAAIIIIAAAggggAACCCAQBQGCsFFApAsEEEAAAQQQQAABBBBAAAEEEEAAAQQQQCCYAEHYYDLUI4AAAggggAACCCCAAAIIIIAAAggggAACURAgCBsFRLpAAAEEEEAAAQQQQAABBBBAAAEEEEAAAQSCCRCEDSZDPQIIIIAAAggggAACCCCAAAIIIIAAAgggEAWBtCj0QRcIIIAAAggggEAYArm5uWG0ogkCCCCAAAIIRFlg//79+/bti3KndIcAAgggEIkAQdhItGiLAAIIIIAAAlUTKLz7U7U+2BsBBBBAAAEEwhXIuvsTbmvaIYAAAgjETIAgbMxo6RgBBBBAAAEEfAKKwebl5fmqqUAAAQQQQACBmAh06tRJYdiYdE2nCCCAAAKRCLAmbCRatEUAAQQQQAABBBBAAAEEEEAAAQQQQAABBCIUIAgbIRjNEUAAAQQQQAABBBBAAAEEEEAAAQQQQACBSAQIwkaiRVsEEEAAAQQQQAABBBBAAAEEEEAAAQQQQCBCAYKwEYLRHAEEEEAAAQQQQAABBBBAAAEEEEAAAQQQiESAIGwkWrRFAAEEEEAAAQQQQAABBBBAAAEEEEAAAQQiFCAIGyEYzRFAAAEEEEAAAQQQQAABBBBAAAEEEEAAgUgECMJGokVbBBBAAAEEEEAAAQQQQAABBBBAAAEEEEAgQgGCsBGC0RwBBBBAAAEEEEAAAQQQQAABBBBAAAEEEIhEgCBsJFq0RQABBBBAAAEEEEAAAQQQQAABBBBAAAEEIhQgCBshGM0RQAABBBBAAAEEEEAAAQQQQAABBBBAAIFIBAjCRqJFWwQQQAABBBBAAAEEEEAAAQQQQAABBBBAIEKBtAjb0xwBBBBAAAEEEIivQEpqyqDxKW26Bhj1dnHp9pWl+ccCbKIKAQQQQAABBBBAAAEEEKg2AgRhq82pYCIIIIAAAggg4BGom5Y6+fk6dYP/dSUtPWXI5JQ6dUoPbi09sNmzNy8RSEKB5i3bNGqSqQMvOHv62tUrSShQfQ65Xceu3Xr1yzu8//iRA6WlpdVnYtVwJo2bZGW3bK2JXb1SeOFcfjWcYeymlJ5er23HLur/9u3iU3lHYjcQPSOAAAIIJFwg+L9qEj41JoAAAggggAACSSyQ0m9USqc+YQKk5AzSb8nCt+qU3AlzF5ohUCsFRk+a2SWntw5txcIvtm9aUyuPMdYH1aJ1u4xGjf2jlNy5c/3aVUUJb9284d/qqWnTofOcl3+hysEjcr/64E9HD+71NOClK9Cr/2Bduqo5tHfnN5/81d3kKaekpHbp0btthy6ZWc0ymzZTcPv6tSuXL108dmjviWOHdI487av/S0Wfn3juJ5rnjaLrb/z6f6/+E2aGCCCAAAKVFiAIW2k6dkQAAQQQQACBWAmkjH86JaNJpL2nTnuldOUnpdcKI92R9ggggIAVmDD9ScX47Et/QcGyg3t37N66Mf9Unn+rqemac/87pC45fQjCBoMKvz4lJWXA0NGDR4zLbJrt32vQ8LHXr15Z+MV7J44e9G+lBgEEEEAAgeogQBC2OpwF5oAAAggggAAC9wUqF4E1+6fkzild+n6dm9fvd0cJAQQQiKpAg4YZ/QeP0K/WGVj4+btF16/5uz9yYPewMZNM/ZEDe/wNqltN3bp1X/nVvyrQqYl99vZ/Xjh/tlrNMC0t/ZEnnu3ee0CIWWU0bvLk8z9Zv3LRpjVLWf8hBBSbEEAAAQQSJUAQNlHyjIsAAggggAACAQTKViGIPAfW7Sh10rMlC/7k1lBGAAEEKiGgQOSF8+Xrk6bUSanfsGHjJplNsprVvbdQdceuPZ79yT/P/+its6dPePo/czLvk7/9oVO3niePHVas1rO1Gr7Ubf6NGpfff5B67wCryTwF/uQLP2vbobOdjzKLjx7Yc7nwgqLGSozViejao6/KOoqR46e1ad95/sdv1cSlCewBUkAAAQQQqJUCBGFr5WnloBBAAAEEEKiZAnXTwl8HNsQRpkyYV7r8wxAN2IQAAghUKLB3+6Yfvl/uaVa/QcPeA4YMGpGrNUm1SU+UenTuy++8/mv/QrF6yBLPWfLoVe7lsDETbQS28GLBgk/+di7/lNvV9k1rs1u0mvbkCy1at1W9lkUeMiJ309plbhvKCCCAAAIIJFwgNeEzYAIIIIAAAggggIARSJ38fFQoUho2rpNePypd0QkCCCDgCty8UbRt45oP3vz3vMP7TX3jzKZaRtZtQzmKAnpu1bDR5Qs7XCw4+/Fbv/dEYM1YSlv+/N3XC86dMS+HjZ1cv36DKE6DrhBAAAEEEKi6AJmwVTekBwQQQAABBBCIhkBKap3g98CWFt+6uOKL0ju33ZEa9R3WoGMPt8aWU3PnlCx5174Ms9C5e69WbTqo8cm8w6eOH1FspWPXnE5dezZqknnhXL4evX1wz3bble6BVUJcdovW2lpw9ozuPj6Vd/hy4UXbwF9o36lbyzbtslu2ada8pR6zfu7MSf1qR4V1/I09k2ma3VKT6dC5e6MmWSePHfp++bfuLnXT0vQooVZtO7Rq075R48xLF86dP3tat0ifPnHMbRZRuWl2i14DhjRt1qJxZpZWvVRv+s0/dTzgbG3PunE4p88ATUZ3bTdo0PDa1Su6Zfjwvl3ytG3cQnp6vUHDx6mmtLREWYda+bFtxy4du+To4fKlJSXLFnx6seCc275Bw0Z9Bw5r3qqN/O/cvn2l8OLpk3n7d265fbvYbRZRuXW7jj36Dsxq1jwjo3HhJQVzTisFUicoo1HjfoNGqKubN29s37TG7bP/kJENGzZSzZ4dP1y7UtiqbceOXbq379w9LT1dETr3OlGbjEZNOnTp3rxlG027Xr36ihOdvXvqz+efdvs0ZQ+IlrbUiejZb3Dzlq2VdHn1SuGFgrN7tm4MfaXZbrVL+87d2nXsqkiWrmFdD2dOHtMh2gaRFip3VWgU4XTr2bdJZlNdn3qwlZ5nr3fZoX07A94z7kFIyFURWkaH8NWHf37mtX80qZe9+g/ROqTuOqqpqalDRk3QIgaldUq3rFtx584d22FEb23tpTUNOnfvndUsW5fc1as68wX7dm4pOBvg4rFDmII+cLr16qd3YqNGTS5dPJ9/6sS5Myd07emN47bUxa+3eWrdurbyoWGjr1wq+ygrLr65dcNqW28LzZq30qef3jI6oaLQuybv8L5jh/aFXolViwVo0QAdjnbUErS6kvNPHt+3a0vAa8COpcmYuanzRV9+eP3aFbvJU9DH1PIFn815+Req1yXUtWffvTs22zaac87dJWUluG/nZr27dU126JKjN6Y+0776wLuITVU+rnWkPfsN0sdgsxat9DmmU3b3fx879Cln5xOsoI9QfZLrbWueDnfmxLHTJ48Kqrj4VrBdqEcAAQQQqCkCBGFryplinggggAACCNRygZRBE4Id4c1TR67uWOffem33plunjmSOeMS/qU69yuRA9egzsM/AYepN8ZT0evVnPfOqVhg0nesf5AOGjlKUYeFn7ygkN3zcVD11R3EEs1VBLm29XXzri/feDBhtVKB20sy5uknWnaqJCCjYp3//+9eUdCeT2bTZ1MeftfsW37ppyyooojFzzssmGGTq23XqagqKQaz49rNbD7Z39w1Yrle/wZTH5il8o1CCbdC9V3+Vi2/d+u6L9w7v32Xr3ULPvoNypz3RMKMsOun+DB6Rq+S17z5/141SmQYNMjJGTphmyjt++H7OK3+vmIjdV09AsmVNZnju1CEjxyskZytV6Dto+OiJM1Ys/PzA7m1ufThlxTtmzHlRgSHbWMHfXnUG6+SuWfz1+bNnzNwU3PEEYYeOmmAe0Z5/+viI3Kl9Bz5se9BFYssq9HloWO4jj4vUVir0Y8o7t6xfvuBTT9zKBdmyfpUOWY+D1zzt7iooMXDbhtVrls737Ou2UVnH9ejTr9iTqKtUsWPVr1r0ZcDImmd3z8tKXxXNW7Wd9sRzCkB7OtRbRgG1pd98cmT/bs8mFyH+V4VnMsFeKnS4+KsPnvnxP5pPCYUy9Ugo21hX6agJ083LXVvWuw/vCv+trbjh9Nnlt9jbnlXQ5acVUfVO1GeRW2/L+nJo2pPPu58JurB7DxiqBgrBz//oL+47UU8YUyzS7qtCv0HDzUutseC5VAJeBmo88OExFwvOLvj0bX0j5XZly1ouYMaclzQxW6M3woAho7TUwJKvP7aVnoJsu/cs++TRz/5dW/NP5ZlysD/18asM5ZZt2quB/nSDsPquxbydFdbUt1/zXvuH9Hr1TD93PF/vVe3jWp/PUx9/Rpe9naSWrNVb79L489988rfQ0XP9P+XJ539qP8DVg/m/hr5X++Svf9D/LGyfFBBAAAEEaqIAyxHUxLPGnBFAAAEEEKiFAiltugQ8qtLimyYC23jAyObTnrv/+8izKen1AkdgTUdZLQJ2GE6lMlWnz37eRmDtLkphy532pDI3FXezEVi7NS293qxnf2T+/W8rVVDy4As/+6+eCKxtoISsOS/9XNlhtsZTUIcTZ87xVNqXig4/8+N/cqMtbmBO2Wp6cJAnamn3DVhQ2ua8137VvXd/G7xzmylsMXPuy8PHTnErTXnY6InTZj/vj8CarS1bt3v61V+Z3C7/vqZm8mNPuxFYt5kmozC0xg14LBpUISdlzLm7hFOeOPMpNwJrd9GNzDJXGNrWBCsotuJGYD3Nch95YsqseW4E1m2g4NdjT7+qLGa30i0PHzdFqp4IrBooy3LwyFw3Lu/uZcpt2nfS6Qh4EsdOmRVizv6uVFPpq0LRvadf+aU/AmtGUbePzn3loWFjAg5qKuN/VYSYjGeTvlqwq74qCOvZWuHL0G9tncGnX/2l+9Z2O+zSo8/cV3+pxHC30pQVbQ+xoz6O9E4M9nHk782t0Rtt7su/CPbhoJDx3Jf/XtN2dzFlXQBKUHUjsLaNcvxnPfNa0+YtbY1b0FKwGfceF6b8X3dTsPIX7/3xj7/5P/S7atFXAdvo/fjo0y/bCKynTRU/rvV926xnfuRGYG3/6lkIynK1NZ5CSmrqI08850ZgbQMpPfHcT1lgwYJQQAABBGqoQNC/89XQ42HaCCCAAAIIIFDLBC4t/0JHlDlkfHrLdg8cWkpK9qSgoUm1TOnYq7Swkrddd79716ryPfds26QUpBat2+mJ20o4VbcKa/bqP1iFE0cP7d62QXf4Kk1V+bNKAlWlbjZX5qPSrFS2P7orWQ/z0UuFR/UAmRNHDyp2oxBAl+69lXGpTYreKmnOLjFpdzQFRX5VuFJ4SfPRveS6+fd2cfmt9woTK1Zo/mWunLiVCz8/cmCPEnJbt+vUo+9DJralaffsP3j31g2eboO9nPToHAVTzFbl5x7au0OpnbrZX/FTLbOY1TRbcb0R4x85kXfIhp/UWHl2NqFV9/YqKTXvyAHRaS/Fl00WrWIf05587p3X/03ptAFHt+ynjx/VmgAiKjhX/mz6/oNHGnbtqNvqdQvz8SMH69Wvrxhf/8HDFYrSrMZOeUyVSscL2Lm/Uvg6Wab+wvl8rSFw7PB+3T/eqVuP7r0GKGykAKh/L0+NOTSt0qDTpz+11U5AqbJK9jTtlR64a+t6LT2h3M+sZi2UyWjC7gqlKUtOWY2ebs1LzVAF7aXb9o8fOaCH13fJ6aMza0JvAtGO+3dvDbiv4dKs1ECpfwped87prSi2Yr6y0mWzf/c2XSoB9/VXVu6q0LWtoJKJdulG7EN7d2o+p08eUzCuc7eeOX0H6v2iyYybOuv08SMBF/rUTOJ8VfiPPXTNwb07TGqzwmS6az70nfWerkK8tXU3vb5XsJ8be7ZvEp3SV9u27yQQc/GIUXSLvnzf7bbsXTb7eRv314eGLhKt/KCFMrrpg2DEOG26+058/k//8X+ad+Kirz7UZ4g+hfTti+nquy/e1+IFKrurKOjl+GlP2vCi5qPOTx0/qq+sNB8tEqKPI/Ws7wbefePX7ooHqp/86NM2XqyrUdezPh+0lIEEFLxWwnuwbwW0jIaZkq7VE0cPmHIV/zR96tgP7t2uyVy6WKDr0PZZxY9r85GiDGJ9nhw9uLfwUkGHzjniMReJnHWTwftv/s+SkgDrEmhrTp+HyrKPN67WmjOXL11U3HZE7iMmrq1w/JDRE79ftsBOlQICCCCAQI0TSMvKyqpxk47KhJP2wKOiV/074fxW/3NUlRlyfquiV/335fxW/3MU5xmWlJStpeiNwIYxiZQW7UvDaBasiUJX333+nskqVexDIVfdd6wVNtVeYSMFIL7+8M8mQqFQo2J/6WllSxBqa5v2Hd0+lTumuK2p2bBq0YZVi+1WBRO1PuPsF36mGuXEKX7hf8C6aaxgqBY6uFF0ze5rClomUhEQU1742bvHDu01Zd2Tq9/6DTJMJG7AkJFhBmGVH2czQ9XDZ++8boNKWptVAdmnXvqFSc17aOhoNwg7cfpshVo0uoIL8z96S0EfMxMFH3duXjd60kyFHVWj5SkV41i/4juz1fOntJd988kuX7xYsYnRk2aYxprGx3/9vV2XVqHJowd2z37h7xRbVMbomMkzv/7wL55uA75Uyq0C62aTzu9Hf/mdxT994uiWdSvnamEE54bigJ2YSk1Y03YTkE29btBWyqrKWsj1i/fe0PK4pl7x9JPHDs9+8WfKYlaN/gwWhNVWhew/f/cN0/m5OnUU1lE8Tvl0Jj12zJRHD+zZHmyhScXI9Bx5G+5RlFOh7VnzXlO3mphyk3WkKlf4U+mrQpm8Chyb/tevWLRxzRJT1pWvEJUicY/NK1vxQz9axUJ3WwecSTyvioATCF2pr2FMA30saE1hnevQ7T1bg721h4wuX+9C7bXUhtZkMDvqZvZdWzdqDQ0T/ddny9YNq9xvfR4eO9l8TKm9Flleu/QbO6LWID6yf9dTL/3cxGF79x+6Y3NZt1cvX9Jd7m6OuZYttk+4srtrXWOb7et+PGpKOps6p4oIq7Hihvpw2LJ+pd1RXxtoKQDzUm9YfZSZK1Zx3iMHdu/d8YOm5E/3Nu3t9XPpQoEnImz7r0RBn6Wahn8RmKh8XOuKnf/xX/XONRMTu86RbiAwp0zf7ihQ6/+UM40VvP7qgz/rs9e8vHzpgsSUuWwAWwfPoo0Igb9oRcRVsxpzcmvW+Yp0tpzfSMWqYfuyvxfygwACCCCAAAII1EKB+mXJp5X7UZLU4i8/cMNqSmB0V65UWMSNCCimsGfHJjNWi9btTejNvLxRVPTBm//x7uu/VnaYG4E1W/UPdfOEJUVw2nXsYio9fyoM+vk7r/sjsGrWwFl99Xz+A+m32rrk64+Udqqhv/30bU+fwV7q+UJm07Urlxd88raNwJpKJdsu//YzU1Y6nknT00sFgpUsbOrXLJlvI7CmRn8qe0uhBPPSpAzbTW5BgZuAsYmuPfspbKSWipN+9f6bNgJr9tXDpvT8LlNWRp5p6XYbsNyj30CZa5P6VNTYRmBNY62iq8cuhbMCo7Jfl87/2L1U7HCbv19edt5f//UHb/67jcCarWUXzLbyC8aEYu1ebkHRsQWfvuPpXCPa+6wVbmv9YNDf7i6lbz97x0ZgTb2ivSbDUS9btwt6W7TtxBQqd1WIV4ufmh703tm0dqmnWwWUN6ws/05CGdM2dOhpFs+rwjN0OC+LnOdE6Vb0cHaxbUK8tXvfeyfqOW82Amt21MWz6Iv3bcK1DYxqq8z1PCjTTF8U+bMmFYjf/P0K06DvoPsLGZua0H8qaGsaKHbp+XhUveKM+nrANFDU1e3KLH6tGl3P3372ronA2gZK9F713Vf2paegBStMTbDncenDVgHcgL/u57Cn20VffuCPwKpN1T+u1YnYbQTWjrv4qw/1dZ15qXRXW+8prFv5nY3Amk16+2uNclMOsZSBpx9eIoAAAghUT4G0wsLC9PSyhxsU37uvLW4TTdS45tsDHXjcjtQMlKjjTbZxOb/xubATdV1xfjm/sRBI1PWcbOMm4Nv72+X37FfistFd/26M1fRg/9GuAKX/+fL2cTRaK1Y39tqgniIO/pwyd0pXCi9mZjVTjZ4a79bbsoIUwR6/c+HsGf0T3QQTx0+frRuT3Tv99bQZpafZfiosqB+bBqtnRgWMeih38i+//R9mRBsMtXspjWvbxtX+gTTJzetW6L57bVKinB7Ro+RTf7NjB8szeT2b7NqsuvdZz2H3bNVL5VRq6VUVZK+nirvhcn9jU6N7hE3h+NGDNjjiNjbrP+j+bbfSX/Y8hsttoMCrJ/bqbjXBd9UECz5q047N6wIG3xWV0/oVJgiuNFXdUu32bMqK1bq3hNsGCsOZiHmLVuVxc7spYKHSV4WSu21QUimZnlCyGUsB1uG5U5QMWzZKz76eaKNpE8+rIqBA6Er3vak1BEI39mwN9tZWCrZ57Jva79u52bOXXhYX39KFZ5YN0RcPNt1V5vZyUuQuoPnmdcu1moc6uRPhJ6TJ9NeOWmzE//Goer0Nzc34rdp2VPa6kdHJNasuqIE+VQJfz5u/HznhEbtegVraH7tyq+fZWbaB1rwOtpC0UlDf++NvbEtb0OR1Z4N96Raq/nGtlVs2r7ufBWw71/8RtBaNFolWTYfO3XWp6CTarbZw6t49BLZGBfvFid7yTbKa6qPJ3VqJcpz/IZxsf9tJ1PHyr6RKvBcqsQvntxJoldglUc5xGDetEhzsggACCCCAAAIIxFugtFRZXpENerXy/1INuDylWRhBc1DY1D8TG5H0b3JrdD++/hVdv35DrWeqlRDr1WsQIhHS7Hgm+APBlbCZfzJP67Gqpe517fRP/61sscXD+07mHVHSmTtuOGUtX2BDHiEe4e0/fB2U6f9CwdmAcR9tdcPBjTObBgzCmjVV/VNV3NZUqhAikda00UKT/h78NTZWZQMc/jZntcZrRUHYCh/XbrpVzKVZi1Z3z3j9eg0a1m/QoFvPip/6pdUD/LMyNYrs6/lLKpsIvr+ZAnz+StXYCE6IB4K5O1b6qnAnFux7CMWhCi9eMOdXV4U7ri3H86qwg4Zf0A3stnFR0XVbDqcQ7K1tL3h1ooVfs5qWrUbt+bEPuWqSmWU3uebBLh6FIPUlkt0lzIIuXf2axnqIVsC3oVbHNg0UUm+UmXXz3A29bJiRoS+lTH2wKWnr+fwzWu7ANHP/tN9VNMks79zdqrL5QshTaV4G26S3vEKlAXfxVFbi41ofdJ5UX9unfRcod1ffT/i/yVNmtLuyhN1R3/rpc9UcTt26ZelT/CCAAAII1FABgrA19MQxbQQQQAABBJJFoH6H7jdPHLqw+KPsqWWpju5P0ZE9Dbv2cWvccml+gPRAt0GIsuc2/BAtw9ykXC2thaoog439hbmjmoWezIJP39bqonookFoqhKo1Is0StPoX/r4dm/fs+MEfMw02tF1+UQ1ChCb9u9scXjfS6mmmtTKVGafIs+pte0+bO3fX//VU6qW9JVnBKT10yN/ArbGN3Up/uWGj8tiZffaXv40Nmvg32RrP/f623hQUNxk0Yly3Hv20aICydD1bK3ypTOdgbZR5bYKwDTMaB2xTdN27grBpFixCFLATVVb+qrh3b75OvU0M94+iR6KZmKM7kNssnleFO26YZfd6u371cph7mWbB3toZje6fU5PiHaJbRcl13725DjPuZdPrO5gwvxYK0bO7yT3MfoOG69fd6i+rvfk0aOgcS4jPB73XAgZhCy8UmM4zm2X7R1HN5YsXtCCBu0kjms8Zt9ItlwZ6KJbboCof1yE+NOzdEhqrbCWZC+fdQVXWl2oBU4zvfrOlFc4j/BrS0zsvEUAAAQSqgUDEfxesBnNmCggggAACCCBQGwVu36qTFuBm3sb9hisIW1pyp2Dhexk9BzbokFNacvvWudPXd29SOKno8K7syXMDcpQe2xOwPv6VvQcMnTBjdqS3Koc5T0W4Pn7r9wOGjOo9cFhW0/txCgW2Rox/ZHjuVN0J7l8aMmDnen66rXdvsraVwQpp6eV/pQwW+DM73ii6boIj7iOAgvXp1tv8XLcyWDnMBE+t22Cm4Qa8PH02uvscNk9l+C/V87TZL+jW4/B38bQM4SlM0zgiHE//4bys9FWhVTlM/zeuh8oPtQdSHa6KcEA8bTp0yTE1iqjaY/G0ifRler364e+iQL/i+yUlZfe2p6WVvxNv3ijLQo3iT6SXmZ2Je1pDXc9BvjOwS4XU02LPDRv5VzPQ2s2ew9TXXWMmzVRl5cLQVfy4DnG1az42oTVG/zvwUPASAQQQQKC6CRCErW5nhPkggAACCCCQpAKl21elDJkc8OCbT3vu4uKPS+4UX9+/Tb9um+zJc9yXD5RLSx54maAXWitg6uPPmMEV+NNTxZUOpttLbxZdV6BT/yzXU7P1nPqqzE6hjQ2rF+vR83qCtkJ+7Tp11RIH5hZgBWiGjZ5Yp7T0++XfVjiEuwisbnb2PB8mxO72AVZa7DVYM8VG7b3SRdf1MPYIfoquXdMaDtpBD1IP+OSusr7uJYopMy6crpW0aG4k1zKawdq3Cr4p2C5u/dTHn7URWN1TrwclKT1ZUaQbN4puFhXppFeY1ZvdsnWwm/G1uIEZK0Rgy51MpcuVviqKrpWf5abNW2hh0GAZuNnNK3kgsbgqKqGU02eA2UsLFgdbiyPSbt03yCd/+0PQ3e9e88qBtauL2neizHXPe7BM26AdBt/gXmaLv/6w8GJ5gqp3j3tvw/NnTplN7o7NW7bWY/S8u9x9rUs9YL17z37XHn3ss78CNjaV9nMmRFJqsN2r/nFt35j+IbSMg1lSQJvcU+xvSQ0CCCCAQG0VIAhbW88sx4UAAggggEANE9DqASFutmw2ZW7JzevXdm4ovniuLPOrWctGvQbXbZQZ7CBLD20NtinO9XpukhlR6zB+9Nbvrl+94plAakqqp6ZyLxUA0jKgZSuBrl2miGdO74fGTnnU3ETcb/CIdSsWVhghcufWsk27ygRhg0RSdER6iJANQIR4XFXAY1cc0ARhFWw6lXckYJtIK8+fPaPHH2kvBayVSOh/7I9mq0ceRdqtba8gePt7ObBrlszXc8nsJlPIbhk0YG1b6rboYEFYuySojbvZvaJbqMJVUX6pKxcyq1m2G01zZ2ijb+5AboNg5VhcFcHGClaf03uAfSrUgT0PfD8UbJdw6q9fvf8txaWCc+GfYhsx1yXdrHlL9/73cMYN0cY9O7eLi8N/G7qT10UbLAhrGT1zUAxXqxibt//DYyfrMWUVLQCS2vneR26IJWg9o9iXVf+4btGqje3NU2jRsuwDx/zYryjuVfBfBBBAAIGkEIjOX/qTgoqDRAABBBBAAIEYC5QeDBU5Ta2f0WTohOwpTzebPDdzyPgQEVhNs3R/gEeKx3j6gbvv1LU8kLf9h7VuIMO01hKxzYP/oz1wj2HU3rl9W9GKVYu+Mm2V8hkiP8v2p+UIz54+YV7aadutpqD1BEZPmjlm8qOjJky3N/7bQKEOx10Swd23Q+du5qVGCfHUL3cXW7b9t2nXyVZWsXBwz3bTg9ZtmDjjKX9v46Y+3qptB399mDU63rp1y5aq1HKoW9av9O/VuXt5dN6/ydYEXCVTW/VUH4XYTDOLY/eKbqHSV4WuJRv3N8vX+ifWonVb3WVefiCnj/sbhKixBx7FqyLEcP5NOgsT7l05Ujq4Z4e/TeVqzuWftInDrSO55mVis1+DfYWg1G/dra+38EPDRgebnrl03a16kpVd0VUZ9+6m0OXbxbcuFpw1bezXEp5dJKksUU+lfbl+1XemnNWseZ+Hhtn6gIW+A4fdz4QN/ly7gPuq0n7uVfrjWs+X00dKwP51j4Kp1xoykX4RFbBDKhFAAAEEapwAQdgad8qYMAIIIIAAArVWoPRAdCKnJT8sqj5GNv0z4HOZBgwdVZWpDh01YfaLf6dfhVT8/bh346b4HuqiPNC2Hbp49jpwLzTZpYfCHQFiNJMenatBh4wc37P/YBvuOXZwr1ZaMF3NmPOSDc7azpXmNnLCdPMy79A+PX/GbgqncHBveXhL8aNhYyb5d1HC79Ov/PLZH/+Tfv2RUz3xSQluHv9jh/ZdLDhnuuozcNi4qbNsSqYK8hz48Bj/QBHUpJQndqekBvj7tiI1XXOCPlPOjtKr/5Ce/QbZl6ag28xnPPWiua4Uqjt6MJprH0fxqlAO48m8w2bO4vVHprTM6LQnnzcN1PjE0YOeIw39MhZXRegR3a2KjT7z2j+aFS1Ur2WX/cuVuu0jKuvbGi1uYHbJnfZEwEeW6T1oLni9JW3nWt7k+NED5uWoCTP87wWtrKp3qFZN1e5t2j/wlYaNmGv3gM8PPLi3/HsLfTIEDKdq8Q0zpXmv/YOeFWZndWjfLlPu1X9wj74Dbb0p6Hqe+dRLbntPg73bN9uvbcZOndW9V39PA/uy/+ARE2eWf6GSf+rubQF2W3iFqHxcz3jqJXclXDOyPoL6Dxlpykf27w5vOrRCAAEEEKhtAvf/71jbjozjQQABBBBAAIEaKFCy8K2qzvpyQZ2zkaXUVXXEkPtrJVCzfeDDY91bbrVKpiJTAUOKIft7YKNu9VXgQ78KqQwemetu01NsRk+YYWqUjHbp4gNP4lbg5vmf/pe5r/z9nJd/4e61e+tGG0saO+Wx7r0HKERiGuhJMholp89D5uW2Datt1EZZcjs2f2/qFSed/OjcjMZNbLdK9dW6t+ZBNNply4ZVdlOYBd37bFN0lYGrp5C5mXqKG8565jUt5qihlVJn4zWmc8WSX/3Vv8565kev/sO/uk941/oDS7/52B7CoOHjXvjZf/3pv/z3n/yX/66CjlS7u1HsMKdqm508dsgEqXXgknQD07oMnn71ly6R3ctfEKZSGm1sSFG/8Y88YaPnyr70p1f7OwmzJrpXhQbdcm8RBqW7zpzzss3e1SadKa2ZaxdV2L5pbejbzP2HEIurwj+KW6P3QpOsZt169nts3qs6gzoEs1XnemvkV7Xbs79ss6eV1znr2R9nOs/c09cJ+iJk9KQZuuD167ngtfCFuar1Hpk556UWznrTelKcTrHNVd+ybqU7rt4RdjUDhVn9cdhdWzaYr080gceefkXZzfayVD9imf7Ui2ZKyvR0z+buLeuVm2/GmvLY0x279rA76nqeMH223rzuTDxlfdOwesl8U2mCyPoQ8EQ59fLhMZMnzpyjz1W1VGLyoi8/tO9uT4chXkbl41r53VNmzbOfNjpYWT3yxHPmqCWz44fyT8sQM2ETAggggECtFGBN2Fp5WjkoBBBAAAEEaqxAyZ3SlZ+k5M6p5AHcKipZ80Ul943Nbsq4NJFWRUCe/9m/KPtS6YEKrLRu30m39mtMhSfcCF1Es9BjvrTwqx4arr3GTn5M0Ul1rmfmKGTTJaePTaBTXMYGQdRS4T97V6+iA0qIK1tJ9u6PIrArvv3CPDBKoRYFcXQ3/YljhxTSVTObTKrA366t680u5s/1K77r1rNv0+yye4rv5m8OVmzocuFF5eK50ZydW9YpYuXuGE5ZUZjFX3/0zI/+wUxgwozZil+fPnns2pXLTfVcp7YdTORFXa1dukDxF7fPwSNyTRxZ/rpVedPaZXaronhff/hnZZWah5ip3kiaBpJcs+Sbea/9yraPqKDUYCUzmvUEFOHVsrwnjx5Svqdu5dbSEArHhHPeFcyS3hPP/UQZjjpHOgut290/WEXEVi/+OqJZhWgci6vi6MG9+3ZuUf6jxlUs/sWf/y+6JAryT2c2y3a/kNClsmnt0hBzC7gpRleFO9aoidOHjZ1saxRPt9FDW3l4/65FX35QiXif7SFgQcmSenf37FuWB61nuL3yy/9Vi0qfPnG0foOMsi8b7n3JoVVf9cWJ28OJo4d2bl5nUuwVMn7uJ/+sq+j08aN6aF52yzZ2/jo15/LLn51ld9eCAyZ02KFLjr600OIGVy9fWvDp26aB+lm79BvFTPVSUXV9f3Oj6LpWjtaXDerZPpRPnxj6NLB9qlB46YLedyNyp6qs99qTz/9UOypTVW+3Vm3bmzevudTdvdyyYqOb1iwdOnqi5q8ffaIqmVffkei7meJbN7U4R8duPRSftbusX7HQroFgK8MpVP3jWp+Neisp4VffV53PP6VlB/SWtxnTmsP2TWuq8u1OOEdBGwQQQACBaitAELbanhomhgACCCCAQJIKlF4rLF36fuqkZyM+/ssF1S0Cq0NQkGLN0m9GT5yh2IFeKhnQzQfcsGqxwqDBlv6sUECBvPkf//WRx59VtEWNtWaift29FB9Zu3zB1vUPJJ/evnVLO6bWq2daKmji7qLQT1p6upZJNbFLRVuU4+Y2UGRh/kdv2fUHzCYlw3729uvKEFSESDU6WKXguVl4qty1dcPK7750uwq/rDjdl++9qYxaBSK1l8LWyv91d1dIbuV3X/kfnn7zZpFtduPG/bKpVCjqnf/v3wYOH6uISaPGmZq2Wfty28bVih5WcbneJV9/OOvZH5lkT8XvtMKDnYlCM2uWfK3kOFsTsCDnp178uW7b11F37t7LbaOw7Fcf/EmhK7eyKuVYXBWajxAUoOw9YIiZm75+sEt2mhoFl+d//JZd2iKiQ4jRVWHnoPigG9qz9aagbyx++H6Fsn2jHoE1/S/+6kMVTBxWBX2z4ubDqkYR2M/ffV1PqzPt7Z8rv/tCV7K9+V1xfM8iAFoweun8T2x7W/h++bfKjjdRUfWg711utXjg8XFK4dSHg5aUNW0aNMzwfDjow+TL99/0Bxk3rl6S0bixviUyY2lHd03kA7u3nTtzUotN25n4C5qbPkuVPW0Cmlq+QLFp/Xpa6qSsWvT13h0/eOrDfFn1j+vd2zY2zszqPWCoAMvygh8cWJ8qekzfg3W8QgABBBBIIgGCsEl0sjlUBBBAAAEEaozAzeslC/6UMmFeSsPGYc659IfFpWfL0znD3MXf7E5JeRJlyb2C28beYFtSWuLWm7ICMfrRP7wVDbQtzabN3y8vvHh++NgpyhezSx8qI1BpZVrXUnmOpplnr9CTsRNQOue7b/xGQV4F6RSK1QTMJiVkKdNt/crv7POL7C7KoFy3YuGI8Y/ohuWdm9dfOF/+2BzbQHGEs2dO6pZ8LQxrlyPQ9C6ezz9+9OD3y75VpNI2tgUFBD/56x/6Dx2pUIsnFqzs120b1xzat9M2tgV71NKro9/gP0rIfe+P/3PIyFwFOBSVtA3vPhNJ6WVL/AeiNkrKmzxrngJ/yhBU7MnuZQvKzdQTzPQrDaUZFl2/WjaTuz92lHuodqc69grxJN7eb1Gnjnr+6C+/mzD9yY5deyoP12xS53u2bZS/DajZE+3ua8p6vPvb//l/KzilIJq9chSv3Ldri6JauoT8u+jqKx/oXsHTxoY77SGYBjG6Ku7eGP6+Fq7VHe76vsGdzKUL5xTU06/fMLFXhR3dna3KOnfXrl6+dqXw8qWLB/ZsO3pgr27h97SxL0vUurREwcqy/967osxWe8Y9p8DuW97s9u3vPn9Powx8eLTn8VyXLpzXp8qeHT/Ys+nuq/kvW/CpkjoHjRjXvlM3u0nLkpzPP62LR4s/2Eq3oID4h3/+bb9Bw7Xis4k++9+QWsTgzIm8wSPGdevV337aqBMltyoDV8syKN3b7dOURbF8wWdKyB06aqL73YaS2b9f8a1WfR00fKxpGcJER/TeG78eP322f4ln7asPJYU49aGqmfgnoBrbs/UP2KxyH9duV4qeK3VXayaY78bMJl3tm79foY9Wz8Wgrfb6D3bhqU1JSalZGMYehTsiZQQQQACBmiKQ0q9fv/T0dE23uDjAX6ZjehiJGjcrK0vHVVgYtcSBMJUSdbzJNi7nN8wLsorNEnVdcX6reOLC3J3zGyZUFZslyjlR4+r9m5ubm3f3JwK69PqpWpqg3v2Im3/f0kNbS/cHCK75Wya8RgsXKgCRmlr3cuEFRR+iPh+lTGa3KIvzFl4qqHCpUOVmKsKiuEyIaaiNHiHVsFGj28XFyjq0wYIQu2iTQjO6IVdxz9S6abduFCkWqbTN0LtEtFWLEijXTPl9ilkoInblcqFCPCF60HyUSeoJzajShjWDHddDw8aMn/aEelbK4btv/DrEEBVuUjhGIErFLbxwPmAI2/bQJKupFrE1L3/3f/1vJsqmQ9aDrXQuFOlW7DX0WbNdVaIQu6tCk1H+ow5B50KX09XLF7WisT8gVYk5m12iclVUevRY76g793Vh6FsBvZUuXywwa7OGM6i0de3pz6JrVy4WnA/9TrEdCrNBw4Z6f2kgdyUT20AFfdqo5wYNMvSllKaks+luDVHWO1frUajzq4WXKpfKLYf2nbtpFYL6DRroDaI1XpR7q8h4mEcXYm7upog+rqc8Nk/P99PuWjZBSbumH63tkN2yVWlJqRZk0CdVFK92d57hlDvd/dm/f/++ffvCaR/dNon6W0eyjcu/kqJ73QbrLVHXFec32BmJbn0czi+ZsNE9ZfSGAAIIIIAAAlEVKL5ZsuTdsh6zWqR27FXavF1KRpM6usH8+uXS/GOlR3eFzp2M6lSi0Jmib/681Cj0e68LLRGglRbvvargv/67mP07qI2WVgyUcOlve79GsQaFmGMRZTZjKP1QgciAeaD3J+GUNB9PBFYbtTCrHsBlWukGaiXZOXuUFXXXs3k8l8oXzud7tkb68krhRf1Gupdtr0NWmMl/l7dtEK1C7K4KzVBnwX8iojXzqFwV0ZpM1PvRXfb6rUS3CtpW4isQYWrFjNDD6dNGa8iGbhNwqwKvlYu92t606IHWzLUvY1So+se1HnRmn3UWo0nSLQIIIIBAzRIgCFuzzhezRQABBBBAIFkFCs+XFJ7Xwftvj01WEY67SgKKH504elAPIFIv02e/oPUBtNzBhXNnlUynJNmuPfrevZu4qRlDzxOr0mDsjAACCCCAAAIIIJD0AgRhk/4SAAABBBBAAAEEEEhKgY1rlrbv3F0hV93dnPtI2bIDSu5TvqGe0GVXwlUW7cY1S7SebFIKcdAIIIAAAggggAACURNIjVpPdIQAAggggAACCCCAQM0RUCbsp2//p7usgVnm0kZgtfTqgk//pkd71ZxjYqYIIIAAAggggAAC1VSATNhqemKYFgIIIIAAAggggECsBU7lHXnvjd/0HzqyZev2zZq3zG7RSg+117OzzuWfOp9/SgvF6jH0sZ6Dp/9bN28ePbg3JUXPQ9cTj1h+w8PDSwSqo8C5/JMZhxprZlVfP7o6Hh5zQgABBBCIkgBB2ChB0g0CCCCAAAIIIIBADRTQo6i2rFtZfSauxyh99cGfqs98mAkCCFQosG3jGv1W2IwGCCCAAAJJLsByBEl+AXD4CCCAAAIIIIAAAggggAACCCCAAAIIIBBbAYKwsfWldwQQQAABBBBAAAEEEEAAAQQQQAABBBBIcgGCsEl+AXD4CCCAAAIIIIAAAggggAACCCCAAAIIIBBbAYKwsfWldwQQQAABBBBAAAEEEEAAAQQQQAABBBBIcgGCsEl+AXD4CCCAAAIIIIAAAggggAACCCCAAAIIIBBbAYKwsfWldwQQQAABBBBAAAEEEEAAAQQQQAABBBBIcgGCsEl+AXD4CCCAAAIIIIAAAggggAACCCCAAAIIIBBbAYKwsfWldwQQQAABBBBAAAEEEEAAAQQQQAABBBBIcoG0JD9+Dh8BBBBAAAEE4imQlZXVqVOneI7IWAggUHWBNnd/ztz9qXpv9IAAAvEU0P954zkcYyGAAAIIBBMgCBtMhnoEEEAAAQQQiL6A/inIvwajz0qPCMRYoGvXrt26dTt8+HC9evViPBTdI4AAAggggAACtVOAIGztPK8cFQIIIIAAAtVQYP/+/dVwVkwJAQQqFMjMzFQQtqCggHdxhVY0QKB6Cpw/f756ToxZIYAAAskjQBA2ec41R4oAAggggECCBfbt25fgGTA8AghUSkCZsNpPQVjexZXyYycEEEAAAQQQQKAOD+biIkAAAQQQQAABBBBAAAEEEEAAAQQQQAABBGIoQBA2hrh0jQACCCCAAAKuQEJWg02/++NOIz7lZBv37mK/CXv2S7JpJ+p469evz7s4Dh8giTq/iXoXJ+p4k23cRJ3fOLxlGAIBBBCoKQIEYWvKmWKeCCCAAAIIIIAAAggggAACCCCAAAIIIFAjBQjC1sjTxqQRQAABBBBAAAEEEEAAAQQQQAABBBBAoKYIEIStKWeKeSKAAAIIIIAAAggggAACCCCAAAIIIIBAjRQgCFsjTxuTRgABBBBAAAEEEEAAAQQQQAABBBBAAIGaIkAQtqacKeaJAAIIIIAAAggggAACCCCAAAIIIIAAAjVSIE0PhTQTt4U4HwfjxgccZ5xjIcB1FQtVf584+01iUYNzLFT9feLsN4lFTbI5G8NkO+p4Hm9q6v3UjXiO6747GNfViF0Z59jZuj3j7GrEroxz7GzdnnF2NWJXxjl2tm7PMXW+/9cpd0jKCCCAAAIIIIAAAggggAACCCCAAAIIIIAAAlERSCsuLjZRXhWi0mP4nSRqXDPD5DneRDknalzOb/jvwaq05PxWRS/8fRPlnKhxjQyfz+FfIZVryfmtnFukeyXKOVHjGp/4v3/NuIk66uQZt6SkxL4F4n+Wk8c5sddzot7FnF/75opDgfdvrJETdT3z/o31mTX9c35rt3Mczi+ZsPG5hBgFAQQQQAABBBBAAAEEEEAAAQQQQAABBJJUgCBskp54DhsBBBBAAAEEEEAAAQQQQAABBBBAAAEE4iNAEDY+zoyCAAIIIIAAAggggAACCCCAAAIIIIAAAkkqQBA2SU88h40AAggggAACCCCAAAIIIIAAAggggAAC8REgCBsfZ0ZBAAEEEEAAAQQQQAABBBBAAAEEEEAAgSQVIAibpCeew0YAAQQQQAABBBBAAAEEEEAAAQQQQACB+AgQhI2PM6MggAACCCCAAAIIIIAAAggggAACCCCAQJIKEIRN0hPPYSOAAAIIIIAAAggggAACCCCAAAIIIIBAfAQIwsbHmVEQQAABBBBAAAEEEEAAAQQQQAABBBBAIEkFCMIm6YnnsBFAAAEEEEAAAQQQQAABBBBAAAEEEEAgPgIEYePjzCgIIIAAAggggAACCCCAAAIIIIAAAgggkKQCBGGT9MRz2AgggAACCCCAAAIIIIAAAggggAACCCAQHwGCsPFxZhQEEEAAAQQQQAABBBBAAAEEEEAAAQQQSFIBgrBJeuI5bAQQQAABBBBAAAEEEEAAAQQQQAABBBCIjwBB2Pg4MwoCCCCAAAIIIIAAAggggAACCCCAAAIIJKkAQdgkPfEcNgIIIIAAAggggAACCCCAAAIIIIAAAgjER4AgbHycGQUBBBBAAAEEEEAAAQQQQAABBBBAAAEEklSAIGySnngOGwEEEEAAAQQQQAABBBBAAAEEEEAAAQTiI0AQNj7OjIIAAggggAACCCCAAAIIIIAAAggggAACSSpAEDZJTzyHjQACCCCAAAIIIIAAAggggAACCCCAAALxESAIGx9nRkEAAQQQQAABBBBAAAEEEEAAAQQQQACBJBUgCJukJ57DRgABBBBAAAEEEEAAAQQQQAABBBBAAIH4CBCEjY8zoyCAAAIIIIAAAggggAACCCCAAAIIIIBAkgoQhE3SE89hI4AAAggggAACCCCAAAIIIIAAAggggEB8BAjCxseZURBAAAEEEEAAAQQQQAABBBBAAAEEEEAgSQUIwibpieewEUAAAQQQQAABBBBAAAEEEEAAAQQQQCA+AgRh4+PMKAgggAACCCCAAAIIIIAAAggggAACCCCQpAIEYZP0xHPYCCCAAAIIIIAAAggggAACCCCAAAIIIBAfAYKw8XFmFAQQQAABBBBAAAEEEEAAAQQQQAABBBBIUgGCsEl64jlsBBBAAAEEEEAAAQQQQAABBBBAAAEEEIiPAEHY+DgzCgIIIIAAAggggAACCCCAAAIIIIAAAggkqQBB2CQ98Rw2AggggAACCCCAAAIIIIAAAggggAACCMRHgCBsfJwZBQEEEEAAAQQQQAABBBBAAAEEEEAAAQSSVIAgbJKeeA4bAQQQQAABBBBAAAEEEEAAAQQQQAABBOIjQBA2Ps6MggACCCCAAAIIIIAAAggggAACCCCAAAJJKkAQNklPPIeNAAIIIIAAAggggAACCCCAAAIIIIAAAvERIAgbH2dGQQABBBBAAAEEEEAAAQQQQAABBBBAAIEkFUhLT083h24LcZZg3PiA44xzLAS4rmKh6u8TZ79JLGpwjoWqv0+cn3hYOAAAQABJREFU/SaxqEk2Z2OYbEcdz+NNTb2fuhHPcd13B+O6GrEr4xw7W7dnnF2N2JVxjp2t2zPOrkbsyjjHztbtOabO9/865Q5JGQEEEEAAAQQQQAABBBBAAAEEEEAAAQQQQCAqAmnFxcUmyqtCVHoMv5NEjWtmmDzHmyjnRI3L+Q3/PViVlpzfquiFv2+inBM1rpHh8zn8K6RyLTm/lXOLdK9EOSdqXOMT//evGTdRR50845aUlNi3QPzPcvI4J/Z6TtS7mPNr31xxKPD+jTVyoq5n3r+xPrOmf85v7XaOw/klEzY+lxCjIIAAAggggAACCCCAAAIIIIAAAggggECSChCETdITz2EjgAACCCCAAAIIIIAAAggggAACCCCAQHwECMLGx5lREEAAAQQQQAABBBBAAAEEEEAAAQQQQCBJBQjCJumJ57ARQAABBBBAAAEEEEAAAQQQQAABBBBAID4CBGHj48woCCCAAAIIIIAAAggggAACCCCAAAIIIJCkAgRhk/TEc9gIIIAAAggggAACCCCAAAIIIIAAAgggEB8BgrDxcWYUBBBAAAEEEEAAAQQQQAABBBBAAAEEEEhSAYKwSXriOWwEEEAAAQQQQAABBBBAAAEEEEAAAQQQiI8AQdj4ODMKAggggAACCCCAAAIIIIAAAggggAACCCSpAEHYJD3xHDYCCCCAAAIIIIAAAggggAACCCCAAAIIxEeAIGx8nBkFAQQQQAABBBBAAAEEEEAAAQQQQAABBJJUgCBskp54DhsBBBBAAAEEEEAAAQQQQAABBBBAAAEE4iNAEDY+zoyCAAIIIIAAAggggAACCCCAAAIIIIAAAkkqQBA2SU88h40AAggggAACCCCAAAIIIIAAAggggAAC8REgCBsfZ0ZBAAEEEEAAAQQQQAABBBBAAAEEEEAAgSQVIAibpCeew0YAAQQQQAABBBBAAAEEEEAAAQQQQACB+AgQhI2PM6MggAACCCCAAAIIIIAAAggggAACCCCAQJIKEIRN0hPPYSOAAAIIIIAAAggggAACCCCAAAIIIIBAfAQIwsbHmVEQQAABBBBAAAEEEEAAAQQQQAABBBBAIEkFCMIm6YnnsBFAAAEEEEAAAQQQQAABBBBAAAEEEEAgPgIEYePjzCgIIIAAAggggAACCCCAAAIIIIAAAgggkKQCBGGT9MRz2AgggAACCCCAAAIIIIAAAggggAACCCAQH4G0+AzDKAgggAACCCCAAAIIIFA9BTp06NC/f/8Qc8vJydHWLl26TJgw4ebNm8Fa7ty588SJE8G2Uo8AAggggAACCCSzAEHYZD77HDsCCCCAAAIIIIAAAnUuXLig6GqDBg1CW3S9+xOszY0bN1auXBlsK/UIIIAAAggggECSC7AcQZJfABw+AggggAACCCCAQLILXL9+fdWqVVVUUA/qp4qdsDsCCCCAAAIIIFBbBQjC1tYzy3EhgAACCCCAAAIIIBCuwLJly5TKGm5rXzvtqx581VQggAACCCCAAAIIlAsQhOVSQAABBBBAAAEEEEAg2QWqmAxLGmyyX0AcPwIIIIAAAghUJEAQtiIhtiOAAAIIIIAAAgggkAQClU6GJQ02Ca4ODhEBBBBAAAEEqipAELaqguyPAAIIIIAAAggggEAtEKh0MixpsLXg7HMICCCAAAIIIBBrAYKwsRamfwQQQAABBBBAAAEEaoZAJZJhSYOtGaeWWSKAAAIIIIBAogUIwib6DDA+AggggAACCCCAAALVQ6ASybCkwVaPU8csEEAAAQQQQKC6CxCEre5niPkhgAACCCCAAAIIIBA3gYiSYUmDjdt5YSAEEEAAAQQQqOkCBGFr+hlk/ggggAACCCCAAAIIRE0gomRY0mCj5k5HCCCAAAIIIFDbBQjC1vYzzPEhgAACCCCAAAIIIBCJQJjJsKTBRoJKWwQQQAABBBBIdgGCsMl+BXD8CCCAAAIIIIAAAgi4AmEmw5IG66JRRgABBBBAAAEEQgsQhA3tw1YEEEAAAQQQQAABBJJOoMJkWNJgk+6a4IARQAABBBBAoGoCBGGr5sfeCCCAAAIIIIAAAgjUOoEKk2FJg61155wDQgABBBBAAIHYCqSlp6ebEWwhtgP6emdcH0lMKnCOCauvU5x9JDGpwDkmrL5OcfaRxKQC55iw+jrF2UcSk4pEOZuDSdTotXXc1atXjxs3rkGDBv5rRWmw2hrnA4/zcPaoGddSxLSAc0x5bec4W4qYFnCOKa/tHGdLEdMCzlHkJRM2iph0hQACCCCAAAIIIIBALRFQMuyaNWsCHozqtTXgJioRQAABBBBAAAEEAgqkFRcXm6i2CgFbxK4yUeOaI0qe402Uc6LG5fzG7j3r9sz5dTViV06Uc6LGNZJ8PsfuijI9c35jLZxY52Q7v8mpHbezvGTJkjFjxniSYZUGq/p4flbH7Xg9Hw7JNq45/HieWd6/nksuDi85v7FGTtTnhjkuzi/nN7oCibqea/G4ZMJG9xKlNwQQQAABBBBAAAEEaolAwJVhWQ22lpxdDgMBBBBAAAEE4itAEDa+3oyGAAIIIIAAAggggEDNEVi2bJlSX+18b968qRr7kgICCCCAAAIIIIBAmAIEYcOEohkCCCCAAAIIIIAAAkkn4EmGXb9+PavBJt1FwAEjgAACCCCAQDQECMJGQ5E+EEAAAQQQQAABBBCopQI2GVZpsGvXrq2lR8lhIYAAAggggAACsRUgCBtbX3pHAAEEEEAAAQQQQKBGC9hkWKXBFhUV1ehjYfIIIIAAAggggECiBAjCJkqecRFAAAEEEEAAAQQQqBkCSoYtLCwkDbZmnC1miQACCCCAAALVUiCtWs6KSSGAAAIIIIAAAggggEB1EVAy7G9/+9tbt25VlwkxDwQQQAABBBBAoKYJEIStaWeM+SKAAAIIIIBATRCYPn16TZgmc0QAAQSSV2D//v379u1L3uPnyBFAAAEE4itAEDa+3oyGAAIIIIAAAkkjoNu39ZM0h8uBIoAAAjVGIOvuT42ZLhNFAAEEEKgVAgRha8Vp5CAQQAABBBBAoPoJKAKbl5dX/ebFjBBAAIFkF+jUqZPCsMmuwPEjgAACCMRXgAdzxdeb0RBAAAEEEEAAAQQQQAABBBBAAAEEEEAgyQQIwibZCedwEUAAAQQQQAABBBBAAAEEEEAAAQQQQCC+AgRh4+vNaAgggAACCCCAAAIIIIAAAggggAACCCCQZAIEYZPshHO4CCCAAAIIIIAAAggggAACCCCAAAIIIBBfAYKw8fVmNAQQQAABBBBAAAEEEEAAAQQQQAABBBBIMgGCsEl2wjlcBBBAAAEEEEAAAQQQQAABBBBAAAEEEIivAEHY+HozGgIIIIAAAggggAACCCCAAAIIIIAAAggkmQBB2CQ74RwuAggggAACCCCAAAIIIIAAAggggAACCMRXgCBsfL0ZDQEEEEAAAQQQQAABBBBAAAEEEEAAAQSSTIAgbJKdcA4XAQQQQAABBBBAAAEEEEAAAQQQQAABBOIrQBA2vt6MhgACCCCAAAIIIIAAAggggAACCCCAAAJJJpCWZMfL4SKAAAIIIIAAAtVYICU1ZdD4lDZdA0zxdnHp9pWl+ccCbKIKAQQQQAABBBBAAAEEqrcAQdjqfX6YHQIIIIAAAggkiUDdtNTJz9epG/zvZmnpKUMmp9SpU3pwa+mBzUmiwmEiEEKgecs2jZpkqkHB2dPXrl4J0ZJNCCCAAAIIIIBAwgWC/0U/4VNjAggggAACCCCAQHIIpPQbldKpT5jHmpIzSL8lC9+qU3InzF1ohkCtFBg9aWaXnN46tBULv9i+aU2tPMZYH1SL1u0yGjX2j1Jy5871a1evXim8dfOGf2s4Neq5cZPM1u06Hdi97cL5/HB2sW1SUlK79OjdtkOXzKxmmU2blZbWuX7tyuVLF48d2nvi2CHNzbakgAACCCCAQA0SIAhbg04WU0UAAQQQQACBWiiQMv7plIwmkR5Y6rRXSld+UnqtMNIdaY8AAghYgQnTn1Ss0770F24UXT+4d8furRvzT+X5twarSa1b98nnf9owo5Ea9Oj70Nv/+f8Ea+mpT0lJGTB09OAR4zKbZns26eWg4WOvX72y8Iv3Thw96N9KDQIIIIAAAtVcgAdzVfMTxPQQQAABBBBAoDYLVC4Ca0RScufUqZ9Rm3U4NgQQSLRAg4YZ/QePmPfar2xQNZwZdene20Rg1bhZ81at2nYIZ6+0tPQZT704ftoTASOwpoeMxk2efP4nD4+drHBtOH3SBgEEEEAAgeojQCZs9TkXzAQBBBBAAAEEkkugbBWCyHNgXaPUSc+WLPiTW0MZAQQQqITAhfNn7aIBKXVS6jdsqMUEmmQ1q3tvoeqOXXs8+5N/nv/RW2dPn6iw/94Dhrpt9LLCvTTQky/8rG2HznbHowf3Hj2w53LhBcVbFZbVBLr26KuyFisYOX5am/ad53/8FksTWC4KCCCAAALVX4AgbPU/R8wQAQQQQAABBGqjQN208NeBDXH8KRPmlS7/MEQDNiGAAAIVCuzdvumH75d7mtVv0LD3gCGDRuRqbVZtatwk69G5L7/z+q9DLxSr5Fmt6Op21av/oNVLvg4dMB02ZqKNwBZeLFjwyd/O5Z9yO9m+aW12i1bTnnyhReu2qtdywENG5G5au8xtQxkBBBBAAIHqLMByBNX57DA3BBBAAAEEEKi1AqmTn4/KsaU0bFwnvX5UuqITBBBAwBW4eaNo28Y1H7z573mH95v6xplNtYys28Zf7tFnoMmfPX3iqMKpatCgYaPO3Xv5W9qa7Jath42eZF5eLDj78Vu/90RgzSal637+7usF586Yl8PGTq5fv4HthAICCCCAAALVXIBM2Gp+gpgeAggggAACCNRGgZTUOvdu8vUfXmnxrYsrvii9c9vd1KjvsAYde7g1tpyaO6dkybv2ZZgFxURatSlbqPFk3uFTx48ottKxa06nrj0bNcm8cC5fjyA/uGe77Ur3AishLrtFa20tOHvmzMm8U3mHLxdetA38hfadurVs0y67ZZtmzVvqMevnzpzUr3ZUWMff2DOZptktNZkOnbs3apJ18tih75d/6+5SNy1NjxLSKpOt2rRv1Djz0oVz58+e1s3Op08cc5tFVG6a3aLXgCFNm7VonJlVdP2aetNv/qnjAWdre1akKafPAE1Gd203aNDw2tUrunX68L5d8rRt3EJ6er1Bw8epprS0RFmHWgGzbccuHbvktOnQubSkZNmCTy8WnHPbK3TVd+Cw5q3ayP/O7dtXCi+ePpm3f+eW27eL3WYRlVu369ij78CsZs0zMhoXXlJQ67RSIHWCMho17jdohLq6efPG9k1r3D77DxnZsGHZE5b27Pjh2pXCVm07duzSvX3n7mnp6YrQudeJ2mQ0atKhS/fmLdto2vXq1Ve87OzdU38+/7Tbpyl7QEpLS3UievYb3LxlayVdXr1SeKHg7J6tG0NfabZb7dK+c7d2HbsqoqdrWNfDmZPHdIi2QaSFyl0VGkU43Xr2bZLZVNenHmx15fIlvcsO7dsZMBXUg5CQqyK0jA7hqw///Mxr/2hSUHv1H7JpzVJdOsH26v1Q+VoE+3ZukYDWb1XLPg8NO7J/d7BdHho2Ws/y0lZdA4u+/PD6tSvBWurtuXzBZ3Ne/oUaiK5rz757d2wO1ph6BBBAAAEEqpUAQdhqdTqYDAIIIIAAAggkhUDKoAnBjvPmqSNXd6zzb722e9OtU0cyRzzi31SnXmVywZSt1mfgMPWmeEp6vfqznnlVKy2azhU/HTB01LFD+xZ+9o5CcsPHTR02ZlLduyESNVCQS1tvF9/64r03A0YbFaidNHOubhZ2p5rTe4BeKtj31Qd/8q8O6U4ms2mzqY8/a/ctvnXTllVQ9HDmnJdNMMjUt+vU1RQUi1nx7We3Hmzv7huwXK9+gymPzevWq59WmrQNuvfqr3LxrVvfffHe4f27bL1b6Nl3UO60J+zTh+ymwSNylcT33efv+qNUDTIyRk6YZlru+OH7Oa/8vYKVdkfdxG3Lmszw3KlDRo5XSM5WqtB30PDRE2esWPj5gd3b3PpwygoZz5jzolbVtI0V/O1VZ7BO7prFX58/e8bMTUEuTxB26KgJ5kFJ+aePj8id2nfgw7YHXSS2rIICbbmPPC5SW6lwpCnv3LJ++YJPFWKzm1RwQbasX6VDHjxinEmitM2UILltw+o1S+d79rUNTEHH9ejTr9iTqKtUsWNtWrXoy60bVnsaV/iy0ldF81Ztpz3xnALQniH0llFgcek3n/gDkS5C/K8KzzyDvVT4ePFXHzzz4380nxKK469fuShgY32D0qZ9J20qKSk5sHu7gvsmCKsPBF3hiuf691Kf3XuWveP0s3/X1vxTeaYc7E997CgzV8Oogf4kCBsMinoEEEAAgeomQBC2up0R5oMAAggggAACtV8gpU2XgAdZWnzTRGAbDxhZv115bLGsZWnphWWfBo7Amo6yWtQprGTGnzJVlYZmI7B2YspOzZ32pNJXFXezlbaQll5v1rM/+vRv/6kGtlIFJQ/Oe+0ftJSkW2nLisjMeenn8z/+q7272W4yBYVUBo0oyxUN+KPo8KPzXnVvQFZgzsbdlKurNSXfff3X4SeKKm3zqZf+Tk9vDzhcer16M+e+vGHlog2rF3saDBs9cdTEGZ5K+7Jl63ZPv/qrL9//k27HtpWewuTHnnYjsO5WHZHC0L36D3YrbVlh32lPPq8/tUSmrQynMHHmU24E1u4iz4kz5/jXA7UNbEFhTROetjVuIfeRJwY+PMatccv9B49o3Djzm0//ppRet96Wh4+bIlX70hZSU1MHj8zNaNxEAXFb6Sko6jd60gx7Jbhbx06Zdevmzd3bNrqVocuVvio6dMl57OlXddkE7F/dPjr3lZXffemJcbuN439VuKOHLuurhVN5R0xUPUQQtvdDQ0w/x4/sv1F0Tb9Kgta3Joqtay9Fmf2j6G2r82vqlTzrb+Cv+eK9P/orqUEAAQQQQKCaCxCEreYniOkhgAACCCCAQBIJXFr+hY42c8j49JbtHjjslJTsSXMeqHnwRUrHXqWVDcJ2v5ujqnzPPds26db+Fq3b6cnjSjjVCAprmlDgiaOHdm/bkH/qhNJUlT+rJFBt1c3mynz0BGGHjJpgIrAKjypKeOLoQcVuFJbq0r23Mi61SdHbUROmBwvCmoUjrxRe0nx0L7ny5m4Xl996rzCxYoUmAqv83JULPz9yYI8Sclu369Sj70MPDSsL/2naPfsP3r11w4M8QV9NenSOjcAqP/fQ3h1K7VQMVysMaLnJrKbZiuuNGP/IibxDCj/ZXpRAahNatV6BklLzjhwQnfbq1K2nCVMqlXLak8+98/q/KZ3W7ugWLPvp40e1JoCICs7lmwb9B4+0EVjdVr9v15bjRw7Wq19fMb7+g4drjQLNauyUx1Sp1TPdPkOUha+TZRpcOJ+vNQSOHd6fUielU7ce3XsNUOZmwACop0NzaFqlQadPf2qrnYBSZZXsadprwYpdW9dr6QnlfmY1a6FEWrFoU5ceffSAez3v3tOteakZqqC9dNv+8SMHGjVu0iWnj86sjlf1AtGO+3dvDbiv4dKs1ODMiWNKH+6c03v42ClauUJWumz2796mSyXgvv7Kyl0VurYfeeI5E4HVchOH9u7UfE6fPKZFPDp365nTd6DeL5rMuKmzTh8/EnDBU80kzleF/9hD1xzcu8MEYZXuqtUD/Ksr6AB79y9fi0A5raY3XcAmdV1XYMAgrJaPMC11jk4cPRB6DmxFAAEEEECg5goQhK25546ZI4AAAggggEBtEygpuaND8kZgwzjKlBbtH7jNO4xd3CYKXX33+Xvmdm/dRK+Qq+471gqbaqOoimJJX3/45zt3yuamUKNif+lpZUsx6mWb9h3dfpSeqbitqdmwatGGVfcTSBVM1Nqgs1/4mbYq3VUxymAPWFcwVAsdKIHO7VnlrGbZSto1lQs/e/fYob2mrHuT9Vu/QYaJxA0YMjLMIKzuj7aZoerhs3det0Elrc2qgOxTL/3CBI8eGjraDcJOnD7bJA7rhuv5H72l5T7NTBR83Ll53ehJMxV2VI0WilVIev2K78xWz5/SXvbNJ7t88WJFmZXUaRprGh//9fd2XVqFJo8e2D37hb9TbFF5hWMmz/z6w794ug34Uim3CqybTTq/H/3ldxZfubpb1q2cq4URWrUNuK+nUhPWtM2l4m5SDqxSVlWjhVy/eO8NLY9rtiqefvLY4dkv/kxZzKrRn8GCsNqqkP3n775hOtfiuEcP7t2zfZNW/zQLFIyZ8uiBPdsV3zQ9e/5U1H7BJ3/TGTH1inIqtD1r3mt6qYkpNzlEVrLbVaWvCmXyKnBsulq/YtHGNUtMWVe+Qt6KLD82r2zFD/1oFYtP/voHd1BbjudVYQcNv6CvYUxjfSxoTWGda8++WpO3SVZTVeqbDB2y2Xpg91atoaFdtB6x3sKehY/VxrpdulBgPmc83fISAQQQQACB2iFQ9lclfhBAAAEEEEAAAQRqtkD9wLf/h3NQStVc/OUHblhNCYzuypVagdSNjCgKtmfHJtNzi9btTejNvLxRVPTBm/+hBQHefePXbgTWbFWIzTxhSeGYdh27mErPnwqDfv7O6/4IrJo1yCjLiDQ/5/MfWANBlUu+/khppxr620/fvteqgv/q+UKmxbUrlxd88raNwJpKJdsu//YzU1Z+ol1gQVEkJQub+jVL5tsIrKnRn98vW6BoqXlpUobtJrewZf1KfwRWDbr27GfWVFWc9Kv337QRWLOvHjal53eZstJLTUu324DlHv0Gylyb1KeixjYCaxprFV09dknL9Qbc161U9uvS+R+7l4rduvn75WXn/fVff/Dmv9sIrNladsFsK79gTCjW7uUWrl6+tODTdzyda8RVi74yzfStQOsHg/52dyl9+9k7NgJr6hXtPZ9/ypRbt+tgG4cuVO6qEK/WNTY9672zae1SzygKKG9YWf6dhDKmzTccnjZ6Gc+rwj96hTVFzvOytPSzv33vAeVpsEKwOeAKxNsIuG3g7quFGszLYM/j0oeMAvEBf93PH7dPyggggAACCFRDATJhq+FJYUoIIIAAAggggECEAreLI9zhfnPd9e/GWM0G++wsBSj9z5dXyqdppqd1aXkBG9RTuK3gXPmm+wM4pSuFFzOzmqlCz0x3qu8XdTe6op/3XzulC2fPKEJngonjp89e9OX7NsqjVnfu3FbKodO8gqL6sWmwemZUwOiPIkd/+e3/MCPaYKjdS2ubbtu42j+MJrl53Qrdd69NWiE3u0Ur/xO6tOnYwfJMXk8PekSYqTl1/GjhpQuerXqpBMMps+apIHslHrrhcn9jU9Ohc44pHD96ULnM/mZm/Qct2+rf5NZ4HsPlblLg1RN7dbea4LtqggUftWnH5nUBg++6gV3rV5gguNJUtdqA27MpK1YbcKlZ5cOaiHmLVuVxc/++bk2lrwold9ugpFbX9YSSzRAKsA7PnaJk2LJRevYNeGN+PK8K98DDLLvvzfR079K3+ijI6f2Q6UpLELh97t+5VY9KU40y5det+M6TzmxX0dW72N3Llp/9yT8HW0BZC86+98ff2JYUEEAAAQQQqM4CBGGr89lhbggggAACCCCQlAJ6gvzdvMUIDv7qpQgaP9g04PKUZmEENVTY9MHmZa9sRNK/ya3R/fi6N7l+/YZaz1QPRq9Xr0GIREiz45ngD0ZXwmb+yTytx6qWWpy00z/9N4Uj8w7vO5l3REmU7rjhlLV8gQ39FJw9HWwX/+HroEzjCwVnA8batNUNBzfObBowCGvWVPWPq7itqVQhRCKtadMks+zW7wp/bOjTZob6dzmrNV4rCsJW+Nh6063Cc81atLp7xuvXa9CwfoMG3XqWR5b949oarR5gy56CIvsmhGci+J6teqnYvb9SNQoum3ot4BCwgaey0leFO7Fg30MUF98qvHjBnF9dFZ6hzct4XhUBJxC6UuuN2AZFRddt2RS69+pn3lOK1eYd2u9u1ToSWoRBWas68Padup44dsjdamP0TTLL31zuVpXNFyGeSvMyxKaA7alEAAEEEEAggQJpWVlZCRw+gUMn7YEn0DyeQ3N+46kd/7E4v/E3j+eInN94asd/LM5vaPP6HbrfPHHowuKPsqeWpTq6P0VH9jTs2setccul+QHSA90GIcqe2/BDtAxzk3LWtBZqhy7dbewvzB3VLPRkFnz6tlYX1UOB1FLhHmXVmSVolau7b8fmPTt+8MdMgw1tl6FUgxChSf/uNofXjbR6mmmtTMWhzDPEbHtPmzt31//1VOqlvTVb0bpps5/3N3BrbGO30l9u2Kg8dmaf/eVvEyx06Lb03O/vblJZ4bBBI8Z169FPiwYoS9eztcKXynQO1kaZ1yYI2zCjccA2Rde9KwibZp6My4D7upWVvyru3ZuvU28Tw92eTVmPRDNBWHcgt1k8rwp33DDL7vV2/eplz152qQE9GC2nT3lKrG1j1w3Qk/08QdjCCwWmWWazbNveLVy+eEELErg1DRs1Nu8vt7Iq5eT5f1PyHGlVroeauy/nt+aeu3BmzvkNR6mat4n4r0fV/HiYHgIIIIAAAgggUAMEbt+qk+a9mVfTbtxvuIKwpSV3Cha+l9FzYIMOOaUlt2+dO3199yaFk4oO78qePDfg0ZUeC/zE+YCNY1qpQMyEGbP9typHZVBFuD5+6/cDhozqPXBYVtP78RoFtkaMf2R47lTdCa4lWcMZKy093TZzb7K2lcEKaenlf38OFvgzO94oum6CRApIBesqYL3Nzw241VMZZoKn1m0w08hoFDiIqW4b3X0Om6f/8F+q52mzX+jQuXv4u3hahvAUpmkcEY6n/3BeVvqq0Kocpv8b1735oe649kCqw1XhTizMcocuOaalviyxx2Jq9I1Lx67lW7VKySNPPBusz+69BixL/+x28S3bwC6RUU+LHDds5F+VQmsW28amoK95xkyaqXKYWfme3XmJAAIIIIBAQgTSCgsL0+/+HbS4uPJLiVVu6oka13x7oAOv3LQrvVeijjfZxuX8VvoSjWjHRF1XnN+ITlOlG3N+K00X0Y6Jck7UuMn2/g19MZRuX5UyZHLANs2nPXdx8ccld4qv79+mX7dN9uQ57ssHykEeGf9Am9i/0FoBUx9/xoyjwN/+3VuVLqpFZW8WXVegU+GSmXNf1nPqqzIRheo2rF6sR8/rSesK+bXr1FVLHGgxSvWpTMxhoyfWKS39fvm3FQ7hLgKb3aL1qeNHKtzFNLAPsNJir8F2UWzU3p9edL3iB165/RRdu2aeL793xw8Bn9xV1rhUR1v2X2UIlv2noh8lLZobybV0abC2rYJvCraLWz/18WdtBFb31Ocd3q/0ZEXTbtwoullUpJNeYVZvdsvWwW7G1+IGZqwQgVp3MpUuV/qqKLr3WLOmzVto1ddgGbjZzSt5ILG4KiqhlNNngNlLCxZ71uLo1X+wDjycPhVJz+ndf++Ozbaxu+p01x599mwvf4ybbeAv2PdXOBnc/t39NfH8tyH/F/b7x6ImUc6JGjfZ/paVKOdEjcv5jcWnhL/POJxfMmH97NQggAACCCCAAAKxFdDqAXdjaIFHaTZlbsnN69d2bii+eE6BxbrNWjbqNbhuo8zArRWRO7Q12KY41+u5SWZEPczro7d+d/3qFc8EUsML03j28r9UAEjLgJatBLp2mSKeehzQ2CmPmnul+w0esW7FQk+EyN+DO7eWbdpVJgjbsrW/W1PTrHkru1RliMdVBdxdcUAThNUSoqfywg0NB+zKVp4/e6Z5q7Z6qYC1FgrwP/5Is+3UradtH2lBQfD293Jg1yyZr+eSeXrIbhk0YG1bahWLYEFYRclNMxsBt3tFt1CFq6L8UleKa1azbDeq6M5QgebyA/G9Ndxm/nIsrgr/KKFrcnoPsE/HOrDnge+HtGPvh4ba3Vcv/tqW3cLYKY+Zl30eGuYGYRVb1+q95rJ/eOzkfTs3V7TwRWrnex81IZYSdoemjAACCCCAQHUQIAhbHc4Cc0AAAQQQQACBpBMoPbg1JWdQsMNOrZ/RZOiEYFs99aX77+eUeTbF+WWnruWBvO0/rHXjWWYaumG5eas2UZ/Sndu3FbVR7uG0J8tWUFXKpxInQyzYaiZw586ds6dPtGrbQS817W0b1/gnpvUEho6ZpAClbr5W+q0GUhsbKNThaEmEwksBclE7dO5mRwnx1C//iKZ/Jfmq0KZdp4ANKlF5cM92JSpqR63bMHHGU4u//tDTybipjxsKT32YL3W8ugNdjbUc6pb1K/17de5eHp33b7I1WkR497aN9qUtNNLTmpqXrQKsH4tvXkb9z0pfFbqWFPc3kXctXxswCNuidVvdbW/mnH/6eEST14FH/aqIaAI6CxNmPGV2kdLBPTvc3XXx2ED5h3/+f4OdpksXzz/29KvasX3nbnr7aHUR28n6Vd9NeWyeXmY1a64QbdAc8Ls79B047H4mbPDnudnOKSCAAAIIIFBNBMK6Z6SazJVpIIAAAggggAACtUag9EB0IqclPyyqPiY2/TPgc5kGDB1VlakOHTVh9ot/p98xkx/19+PelZxi7tV3GikPtG2HLk5FWVFPbDc1XXoo7DPas1UvJz06V4MOGTm+Z//B9olhxw7u1UoLpvGMOS/5V2VVtuDICdNNg7xD+27duunvOUTNwb3l4S0tHTBszCR/SyX8Pv3KL5/98T/p1x851ROflI/s8T92aN/FgnOmKz0WadzUWTYlUwV5Dnx4jH+gCGpSyhO7U1ID/OOicWbTrjlBnylnR+nVf0jPft6vJVLr1p3x1IvmulKc/ejBPbZ91QtRvCqUy3ky77CZknjN07fcGeoefPMlgSrV+MTRg+7WCsuxuCoqHNQ2aN2u0zOv/aNZ0UKVWnbZs2xrn3tpsIo+B4vAase8Q/vN+stauMDNnNWmvds3268rxk6d1b1Xfzu6p9B/8IiJM8vDwfmn7qbDe1rwEgEEEEAAgeoqQCZsdT0zzAsBBBBAAAEEartAycK3Uqe9UqWjvFxQ52xkKXVVGq6inbUSqAkLDnx47JH9u21gVDEXLRcwaPi4ijoItV23optVR/Wnbl/esu5+xqWe5jN6wgyzsx74o4Q7tyPFUvsNGq4arTnwyV//YDft3rpx6KjxehCQanSjtNYNOHJgtwm26sFiChnbJ7xv27Darm9w+3bxjs3fKzKrvRQnnfzo3NVL5tu0X6X6zpzzsnkumXbZsmGVHS7MgpYgsCm6oyZM14Kqu7dtUO6h2V1xwymPPW2QhWDjVmarYsmTZs5R4FJW773xGzUw9Vp/YOk3Hz/14s9NNFMnQr+Ko5WWliUOmzY6WfZmc1MT/p8njx2Sm8bVgUty7bIFJmtYPajPx5/7cUbjJuH0Jkw97un4kQNGW3MbOX6ajZ4r+9I6h9Nb6DbRvSo01pZ1K8z1qXRXXQMLPv2bDXwrjXT8tCdtruj2TWtD327vn3ksrgr/KG6NzmajxplazLfvoIe75PSx36/oXG998KpWSxs9378r1NIoug6VlG3ejIq5b1qz1I6oCLveR0889xPV6PFc+nrjh7XLNq5eorebbaOlHgaPyB05YZqp0Zti0Zcf2jembUYBAQQQQACBaitAELbanhomhgACCCCAAAK1XaDkTunKT1Jy51TyOG8Vlaz5opL7xmY3ZVya5M2MRo2f/9m/KAil9EDdONy6fSfd2q8xFZvzp46GORc95kuR3PKY6eTHBgwZpc4LLxZkNs1WkEgZoKYfLUhqI4CqUfjv/2fvvcO0qvJ8X6rIOQdFck4SBUUEJIuiIoratqnj9HSYOWeeuXPPPPe54Y/znHPuzHTP7ZmOdtvabYMiJhQlCBJEQEBAcgESBCRDkWPV/VQtarHYe7+73vy+9b7feuqpWnvttVf4rB1+67d+67dQTZpTrBNv07Z9mSfZ8h+0kEvnvWc2jMJ0dPK0Z1lNf2DfblS6JLPGpCj+tmxYbS4xf1cvXdC5e+8mzcrWyJfbbw5EGXqm+BS6URZZ25Sb169CY2UPowygjfr4gzef/M5PTQVGPzAVy8pvDu47f/ZME/Z1uu0Ou/3RZ4s/sspZkzkqKjRihOHPku21n31iC0WL98GsP2FVajYxI96QNAkguWLRh9Nf/IlNH1MA02B2asKfAFeh3sUt78G9u7H3ZAU9riHQ30XT7yxOhx5qODZwo4/ohda332wsBsWRPI3GVFWTOBV3xd5d23dsXm/cPqCL//bf/CO3xIkj3zRq2szVbnOrrP3spvIxysqn6K5wS7/n/klDRoy1MejTreLVRn5VtGXhnDc8es8OXXrYe2nn1jAlLPkUbV5vlLDsa8ft4ZrNMoWDWnbw8Psplx/eJIPuGc3cAHMSV69cxilFu87d0M/ayqxeOv/UiaP2UAEREAEREAERyH4CUsJmfx+phiIgAiIgAiIgAjlLoPR8ceni1wvHPBVzC8+cyDYNLE3A1HTF4g+H3/8AOhQOceVpvXly+Pnyj1GDGlVdzO0tV+DOnf3nCQ8/1bBxUy7HdyS/bj4YY3625KMNq28xPr125QoawMJatUxK1KzuJSh2a9SsiZtUo7vEhrFz9z5uAhZXz33zVet/wJzCOu+d137/0PQXsIQlhsa2aH07v+6FOLVctmCOGxN9GD3dnJl/nPz4cygiuQq1tTGxtDmgklu24H3/JvKXL1+0aS5duhk2kWgJ//q7f+s/dAQWvhg5Um0agvPcjWs+RXuYoLveRR/MmvLUd4yxJ/o7PDzYmmBivGLRBxMeedrGBAbgjK0uy/ZpNXo9Nw1q2fffeNl1IeqejSOciruCagABBWXPfoNMlZh+sK5LTQzK5bmzX7WuLWKqeYruClsHlPuuitPGmwAzFutWLsXa16OB5WyvfoNNmmNHDp08XolW9OD+PdwPZsqkZ7/BrhKWTFYumcc7ZPzDTxkD7cLCQkxx+TX5279UZvnCD7ZvWmdjFBABERABERCBKkFAStgq0U2qpAiIgAiIgAiIQO4SuHyh5KOXC0ZPL6jbIMpGlq77uPToDXPOKC/xJ7tecmOFe0lFwE1jl0uXlJa48SaMIoYftHhoA21Kc+qLlUuKTx0fOmJcs5Zt0KGYSCwCP1v8IX4tzXJjIj1XhVfGZMJfzDlnvPQLlLwo6VDFGlUv8RirogBavWyBR6fDKSwoVy2dP2zUBHaO2vzFar+SiM2gjh4+iHsBHMMaVSxXUb1Tx498vXfXyk/muQuiOWV+UAji2aDv4LsxyPXogrF+ZZuv3Ts2V6S9+d+2GnrV+I38g0HuzD/8+6C7R6Kosrs5kbx8T6Qv165Y5G8IZzHRHTtlOoq/A3spP8DpMLaZyxe+zy80atepd/HCubKalP/YUir8u5rosr/2DvEY3t5MUa0aOb/5yq9GT3q0Xafu2OGaU2S+beMa+GOtbGJsR7vXmjDb3L/2238ZPmZyt9797Z2DvnLHlvUsS+cW8l/C3WcibcCTxqo7bRNMghTdFeUL5F/HcS0uhplvcCtz+uSxTetW8utnmNm7wpbu1pYwfXf+3JnzZ4vPnD61c9vGvTu340zAk4ZDHhns0E08Vq7+BJ4Y3hhYyxrPJJiTL53/ricB1vQzX/r5qElT/a6NScnDyIQBLxPcVngu1KEIiIAIiIAIZD+Bgj59+tSsWZOKXr160+FOeuqdqXIbNy5bJlZcfHM7ztxub6Y4Z6pc9W9u38/qX/VvKghk6n2Vb+Xm2/M7ZcqU/eU/Mdy0NWsX4pqg1o390wMvLN29obQoQLkWmDizkThwxLiysLD6meKTLKVPemUwmWzWokzPW3z6RKWuQrHNRNeIu9iQapCGLaTq1q9/7epVrA79yrLAa1EEs7YdvWdh9RpXLl1EF4nZZmDK+CJxStCgUWPW6aMsQyN29kwxaqyQrKgPlqQeFRWRVq0ZqV13Drl31MRHyPnE0cMzXvp5SBGVnkI/DhBMcYtPHg9UYdscGjZu8sJP/tkc/up//jejM6XJbGxFX6DpRvca3ms2qzgCqbsrqEyduvVoAn3B7XTuzCm89Fp9dxxV9VySlLvCk2e2HTIr0LZDZ7wQ1K5ThxsD3ya4JkAjHH7/R9+K9uU/RUVFO3bsiP6qpKTM1Nc/377CmeKcqXLVv0l5PCvNRP1bKaKkJMgU5zSUK0vYpNwhykQEREAEREAEREAEEiZw9XLJohlluTRuUdiuR2nz2wvqNazGAvMLZ0qP7CvduyXcdjLh4pOcAdo3v11qEsvARQB7o0eZ4dVQ9avJhDS4mAwyuAwrpMxg8CwGg8nXMptSMT9EERloBxpYLerj0cCSDMesz/zgH0z6Oa//EWNDz7Ws/jZbjRHP/vaes7Eeni0+xW+sV9n0NBl1G782JkWB1N0VVJhe8HdEshqSlLsiWZVJUT54DmFzvxRlrmxFQAREQAREICMEpITNCHYVKgIiIAIiIAIiIAKRCRQfLyk+zumw9eqRr9YZEfAQwPHrgb277ujYlfhJU5/BPwDuDk4eO4pRIUaynbr1vmf0JIxSzVXsJ+a5XIciIAIiIAIiIAIiIAKJE5ASNnGGykEEREAEREAEREAEREAEsprAmhWL23bogsqVVd4jJ5S5HcCUmA2O2KHLesLFinbNikX4k83qlqhyIiACIiACIiACIlA1CdzYLaFqVl61FgEREAEREAEREAEREAERqJwAlrBvv/Zb160BTnVx3mo1sLhe/ejtv7C1V+V5KYUIiIAIiIAIiIAIiEDsBGQJGzszXSECIiACIiACIiACIiACVY3Aof17Zr70i76D727Zum3T5i2btWhVUlrK3lnHjhw6fuQQjmJPnyxzgpHOnyuXL+/dtb2goBrbjpWWyP1GOtmrLBEQAREQAREQgXQTkBI23cRVngiIgAiIgAiIgAiIgAhkhABbUa1ftSwjRQcWevnSxfffeDnwlCJFQAREQAREQAREIMcIyB1BjnWomiMCIiACIiACIiACIiACIiACIiACIiACIiACIpBdBKSEza7+UG1EQAREQAREQAREQAREQAREQAREQAREQAREQARyjICUsDnWoWqOCIiACIiACIiACIiACIiACIiACIiACIiACIhAdhGQEja7+kO1EQEREAEREAEREAEREAEREAEREAEREAEREAERyDECUsLmWIeqOSIgAiIgAiIgAiIgAiIgAiIgAiIgAiIgAiIgAtlFQErY7OoP1UYEREAEREAEREAEREAEREAEREAEREAEREAERCDHCEgJm2MdquaIgAiIgAiIgAiIgAiIgAiIgAiIgAiIgAiIgAhkFwEpYbOrP1QbERABERABERABERABERABERABERABERABERCBHCNQI8fao+aIgAiIgAiIgAiIQJYQaNy4cfv27bOkMqqGCCRCoHfv3tzM+/fv37p1ayL56FoRyBICvJ+zpCaqhgiIgAiIQP4QkBI2f/paLRUBERABERABEUgrAQb5GuenlbgKSxmB7t27N23atE6dOufOnUtZIcpYBERABERABERABHKZgJSwudy7apsIiIAIiIAIiECmCBQVFWWqaJUrAkkn0LNnT5SwFy5c0I2ddLbKMIMEjh8/nsHSVbQIiIAIiEC+EZASNt96XO0VAREQAREQARFIB4EdO3akoxiVIQJpIXDx4kXK4a9u7LTwViEiIAIiIAIiIAI5SEAbc+Vgp6pJIiACIiACIiACIiACIiACIiACIiACIiACIiAC2UNAStjs6QvVRAREQAREQAREIHcI1Cz/SX97MlVuZh3gZqrV+VZu9erVM+LmON84Z6q9mXqKM9XeTJWb/u+CShQBERABEcgSAlLCZklHqBoiIAIiIAIiIAIiIAIiIAIiIAIiIAIiIAIiIAK5SUBK2NzsV7VKBERABERABERABERABERABERABERABERABEQgSwhICZslHaFqiIAIiIAIiIAIiIAIiIAIiIAIiIAIiIAIiIAI5CYBKWFzs1/VKhEQAREQAREQAREQAREQAREQAREQAREQAREQgSwhICVslnSEqiECIiACIiACIiACIiACIiACIiACIiACIiACIpCbBKSEzc1+VatEQAREQAREQAREQAREQAREQAREQAREQAREQASyhICUsFnSEaqGCIiACIiACIiACIiACIiACIiACIiACIiACIhAbhKQEjY3+1WtEgEREAEREAEREAEREAEREAEREAEREAEREAERyBICUsJmSUeoGiIgAiIgAiIgAiIgAiIgAiIgAiIgAiIgAiIgArlJoEbNmjVNy2wgzQ1VuekBLs7inAoCuq9SQdWfpzj7maQiRpxTQdWfpzj7maQiJt84G4b51up0tregoMDeqOks1xZKQOW6NFIXFufUsXVzFmeXRurC4pw6tm7O4uzSSF1YnFPH1s05pZxlCeuiVlgEREAEREAEREAEREAEREAEREAEREAEREAEREAEkkygxtWrV42Wl0CS864su0yVa+qVP+3NFOdMlav+rezJS8559W9yOFaWS6Y4Z6pcw0Pv58rui0TPq38TJRjd9ZninKlyDZX0P7+m3Ey1On/KLS0ttTd++ns5fzhn9n7O1FOs/rUPVxoCen5TDTlT97Oe31T3rMlf/ZvbnNPQv7KETc8tpFJEQAREQAREQAREQAREQAREQAREQAREQAREQATylICUsHna8Wq2CIiACIiACIiACIiACIiACIiACIiACIiACIhAeghICZsezipFBERABERABERABERABERABERABERABERABEQgTwlICZunHa9mi4AIiIAIiIAIiIAIiIAIiIAIiIAIiIAIiIAIpIeAlLDp4axSREAEREAEREAEREAEREAEREAEREAEREAEREAE8pSAlLB52vFqtgiIgAiIgAiIgAiIgAiIgAiIgAiIgAiIgAiIQHoISAmbHs4qRQREQAREQAREQAREQAREQAREQAREQAREQAREIE8JSAmbpx2vZouACIiACIiACIiACIiACIiACIiACIiACIiACKSHgJSw6eGsUkRABERABERABERABERABERABERABERABERABPKUgJSwedrxarYIiIAIiIAIiIAIiIAIiIAIiIAIiIAIiIAIiEB6CEgJmx7OKkUEREAEREAEREAEREAEREAEREAEREAEREAERCBPCUgJm6cdr2aLgAiIgAiIgAiIgAiIgAiIgAiIgAiIgAiIgAikh4CUsOnhrFJEQAREQAREQAREQAREoGoTKCgoqNoNUO1FQAREQAREQAREIHMEpITNHHuVLAIiIAIiIAIiIAIiIAJVgUBhYdmowfytCvVVHUVABERABERABEQg6whICZt1XaIKiYAIiIAIiIAIiIAIiEBWEahVqxb1qVmzZlbVSpURAREQAREQAREQgSpEQErYKtRZqqoIiIAIiIAIiIAIiIAIZIBA3bp1KbVOnToZKFtFioAIiIAIiIAIiEBOEJASNie6UY0QAREQAREQAREQAREQgZQRaNCgAXnXq1cvZSUoYxEQAREQAREQARHIcQJSwuZ4B6t5IiACIiACIiACIiACIpAIAQxga9euTQ78lTFsIiR1rQiIgAiIgAiIQD4TkBI2n3tfbRcBERABERABERABERCBSgg0bdqUFNeuXeNvo0aNKkmt0yIgAiIgAiIgAiIgAkEEpIQNoqI4ERABERABERABERABERCBcgJNmjTh/+XLl/krJaxuChEQAREQAREQARGIj4CUsPFx01UiIAIiIAIiIAIiIAIikBcEGjduTDsvXLjAXxPOi2arkSIgAiIgAiIgAiKQVAJSwiYVpzITAREQAREQAREQAREQgdwicOedd9Kg4uJi/vbs2TO3GqfWiIAIiIAIiIAIiECaCEgJmybQKkYEREAEREAEREAEREAEqhyBu+66q3fv3pjBvvvuuxcvXuzevTsxVa4VqrAIiIAIiIAIiIAIZJyAlLAZ7wJVQAREQAREQAREQAREQASykQDOB6ZOnUrN3nnnnQMHDsybN48wMXJKkI29pTqJgAiIgAiIgAhkNwEpYbO7f1Q7ERABERABERABERABEcgQgenTp9erV2/Lli1r1qyhChs2bCgqKiKG+AzVSMWKgAiIgAiIgAiIQFUlICVsVe051VsEREAEREAEREAEREAEUkcAtwN9+vTBEcGsWbNsKXPmzCGGeDklsEwUEAEREAEREAEREIFoCEgJGw0lpREBERABERABERABERCBPCLQtGlT64jAbMllGn/27FlcExDmLGnyiIiaKgIiIAIiIAIiIAKJEZASNjF+uloEREAEREAEREAEREAEcosAVq7/+I//6DoicNuHawIcFHCWNLKHdckoLAIiIAIiIAIiIAIhBKSEDYGjUyIgAiIgAiIgAiIgAiKQRwTYcev73//+M888YzSwM2fODGw88UYPS0rSa5+uQEqKFAEREAEREAEREAGXQA33QGEREAEREAEREAEREAEREIH8JIBZK04GUL/i9RWfA2YzrkAU586de+mll0x6/MP+0z/9U3j6wEwUKQIiIAIiIAIiIAJ5RUBK2LzqbjVWBERABERABERABERABG4QqFOnTpOKn/79+/fq1YsTmLiyE5frBzYSL7S0RUVF06dPRw+LSeygQYM2btx4uuLn0qVLkS5UvAiIgAiIgAiIgAjkIQEpYfOw09VkERABERABEYiTQEFBQbOKn1j35KlduzalXr58Oc6y472ssLDM+VJJSUm8GcR5Xb6Vm6n+Nd2Tb7QTaS9PMHpXHAjw1/SavcUrNYC1KW0AXa01iUWHa9S45iwPO/pYEvD35MmT9pI4Aom0N47i7CX5Vm6mnuJ845yp9sbRv6dOneLhNT+lpaX20VBABERABEQgPgJSwsbHTVeJgAiIgAiIQF4QaN269YABA1q0aGFUr7EqXvOCkRopAlWWgKsnPX78+OrVq6MxgPU315jEDhs2jHeFq+HlBcKPP71iREAEqhwBq5DlXbFhw4YjR45UuSaowiIgAiKQcQJSwma8C1QBERABERABEcg6Ali89u7d+7777uvZs6encnYYhmlMTHYxcdjgeIqO7zBTNkf5Vm6m+tfcFflGO5H2VngLKPufRI8BaG8XLFjgPqSurwM0s+6pWMOJtDfWstz0+VZupp7ifOOcqfbG2r+etS/MwvLTpUsXnpEHHnhg+/bty5cv37p1a0ySgPt8KSwCIiACeUhAStg87HQ1WQREQAREQAQiEqhbty7mbKhfmzdvTqIrV66sW7du7969FesRY1O8usWY/dPjs7Nz84k1XLNmTS65evVqrBcmmD7fys1U/5puyjfamWpvTA8FGt7D5T8xXRWYOFPtzbdyM/UU5xvnTLU3kf51FbIdO3YcPHgwc7T8nDhxAlUsRvQXL14MfHgVKQIiIAIi4BKQEtalobAIiIAIiIAI5C+BBg0aTJo0aejQobVq1YKCRlb5eyuo5SIgAiIgAiLgEMDcFamAH+JQuc6ZM8fO1z766KOTJ0/+/PPP582bd+7cOeciBUVABERABLwEpIT1EtGxCIiACIiACOQhAYxcnn/++W7dutF2rTHMwxtATRYBERABERCBKAlg97pkyZKlS5daz0UjRozAAfSvf/1reSeIkqGSiYAI5CeBAnbbyLeW16tXjyaz/Wu+NTxP2qv+ze2OVv+qf3ObQAZbN378+AkTJpw9e/Z3v/tdinbb0PObwf5NQ9Hq3zRAzngR6uWMd0FKK6D+TSnejGeeuv5F/frDH/6wYcOGOIZeuHBhxluanxVIXf/mJ89sa7X6N9t6JO76FMZ9pS4UAREQAREQARHIDQJdu3YdN2yNkucAAEAASURBVG5cSUnJjBkzUqSBzQ1QaoUIiIAIiIAIiICHAJID8gNSBLIEEoXnrA5FQAREQAQsgRrsU5Ep1+CZKtc0Xht02JsgRQH1b4rAerLNFOdMlWuar+fXcxsk/VD9m3SkgRlmirOn3EaNGj399NNs1ow3t23btgVWNYmRen6TCDMwK0//BqZJXWT6+9e0JVOtzrdyDe3093K+cc5Ue9W/qXs3ujnnZP8iP2AGi2d5JIp//dd/PXPmjG1yptqbb+Xq+bW3XEoDmbqv1L8p7VabeRr6V5awlrYCIiACIiACIpCPBMaMGYMedufOnfPnz8/H9qvNIiACIiACIiACCRNAikCWQKJArkg4M2UgAiIgArlJQErY3OxXtUoEREAEREAEoiHAflz9+/cn5dy5c7WZRjTElEYEREAEREAERMBPACkCWYJ45AqkC38CxYiACIiACEgJq3tABERABERABPKXQIcOHZo2bXrq1Kl9+/blLwW1XAREQAREQAREIGECyBJIFMgVSBcJZ6YMREAERCAHCUgJm4OdqiaJgAiIgAiIQJQEBgwYQMqNGzfKDDZKYkomAiIgAiIgAiIQSABZAomCU0a6CEyjSBEQARHIZwJSwuZz76vtIiACIiACeU3A+iLYsGFDXoNQ40VABERABERABJJBwEgU8kiQDJbKQwREIAcJSAmbg52qJomACIiACIhANATkiyAaSkojAiIgAiIgAiIQJQF5JIgSlJKJgAjkJwEpYfOz39VqERABERABEajWrVs3KGzatEm+CHQ3iIAIiIAIiIAIJE4AiQK5gnyMjJF4hspBBERABHKJgJSwudSbaosIiIAIiIAIxECgevXqpL5w4UIM1yipCIiACIiACIiACEQmYOQKI2NETqUzIiACIpCPBKSEzcdeV5tFQAREQAREQAREQAREQAREQAREQAREQAREQATSRkBK2LShVkEiIAIiIAIiIAIiIAIiIAIiIAIiIAIiIAIiIAL5SEBK2HzsdbVZBERABERABERABERABERABERABERABERABEQgbQSkhE0bahUkAiIgAiIgAiIgAiIgAiIgAiIgAiIgAiIgAiKQjwSkhM3HXlebRUAEREAEREAEREAEREAEREAEREAEREAEREAE0kZASti0oVZBIiACIiACIiACIiACIiACIiACIiACIiACIiAC+UhASth87HW1WQREQAREQAREQAREQAREQAREQAREQAREQAREIG0EpIRNG2oVJAIiIAIiIAIiIAIiIAIiIAIiIAIiIAIiIAIikI8EpITNx15Xm0VABERABERABERABERABERABERABERABERABNJGQErYtKFWQSIgAiIgAiIgAiIgAiIgAiIgAiIgAiIgAiIgAvlIoEY+NlptFgEREAEREIH8IDB69Og6dep42lpYWDYFW1JS0rVrVwL8nTRpkieNe3jp0qUlS5a4MQqLgAiIgAiIgAjkJ4FA0cJF4ZEurNThppFo4dJQWAREIH8ISAmbP32tloqACIiACOQdgfr1648fPz682QyWzHgpUrKFCxdGOqV4ERABERABERCBvCIQjWgBkHDpQqJFXt0zaqwIiIAlIHcEFoUCIiACIiACIpBrBD755BOMTRJpFZeTSSI56FoREAEREAEREIGcISDRIme6Ug0RARFIPwEpYdPPXCWKgAiIgAiIQJoIXLhwYfny5YkUxuVkkkgOulYEREAEREAERCBnCEi0yJmuVENEQATST0BK2PQzV4kiIAIiIAIikD4CiVisyAw2ff2kkkRABERABESgihCQaFFFOkrVFAERyDoCUsJmXZeoQiIgAiIgAiKQRAKJWKzIDDaJHaGsREAEREAERCA3CEi0yI1+VCtEQATST0BK2PQzV4kiIAIiIAIikFYC8VmsyAw2rZ2kwkRABERABESg6hCQaFF1+ko1FQERyCICUsJmUWeoKiIgAiIgAiKQCgLxWazIDDYVfaE8RUAEREAERCAHCEi0yIFOVBNEQATST0BK2PQzV4kiIAIiIAIikG4CsVqsyAw23T2k8kRABERABESgShGQaFGlukuVFQERyAoCUsJmRTeoEiIgAiIgAiKQUgKxWqzIDDal3aHMRUAEREAERKCqE5BoUdV7UPUXARFIPwEpYdPPXCWKgAiIgAiIQAYIRG+xIjPYDHSPihQBERABERCBqkZAokVV6zHVVwREIMMEpITNcAeoeBEQAREQARFID4HoLVZkBpueHlEpIiACIiACIlClCUi0qNLdp8qLgAikn4CUsOlnrhJFQAREQAREIDMEorFYkRlsZvpGpYqACIiACIhAFSQg0aIKdpqqLAIikDECUsJmDL0KFgEREAEREIE0E4jGYkVmsGnuFBUnAiIgAiIgAlWXQDSixYoVK0hWdduomouACIhAsghICZsskspHBERABERABKoAgXCLFZnBVoEuVBVFQAREQAREIJsIVCpaLFu2LJvqq7qIgAiIQMYISAmbMfQqWAREQAREQATSTwBTFAxSIpUrM9hIZBQvAiIgAiIgAiIQSCDcGFZmsIHQFCkCIpCfBKSEzc9+V6tFQAREQATylwAGKVi8+tsvM1g/E8WIgAiIgAiIgAhUSiCSMSyihcxgK6WnBCIgAvlDQErY/OlrtVQEREAEREAEyghEMoaVGazuDxEQAREQAREQgTgIRDKGlWgRB0xdIgIikMMEpITN4c5V00RABERABEQgmIDfGFZmsMGkFCsCIiACIiACIhAFAb8xrESLKLApiQiIQH4RqFGzZk3TYhtIMwCVmx7g4izOqSCg+yoVVP15irOfSSpi8oqzMYYdO3asJYnLtqtXr6YBQhqKsI1yAyrXpZG6cKY4mxZlqnSVm7o7ys1ZnF0aqQuLc+rYujnnHmekCGQJv2hhWp177XV70x9We/1MUhEjzqmg6s9TnP1M4o6RJWzc6HShCIiACIiACFRhAq4xrFy2VeGOVNVFQAREQAREIDsISLTIjn5QLURABLKXQA1r9kIgzdU02vT0l2uamf5yM9XefCtX/ZueBzlT95X6V/2bCgKZup8zW25xcTGe2saPHw9SAhymgq0/T31//UySG5Op+8q0Iv39a8rNVKvzrdxM9XK+cc5Ue9W/hkCq/+Zw/waKFplqb76Vq+c31U+uyT9T95X6N2f6V5aw6elKlSICIiACIiACWUfAuG+Ty7as6xhVSAREQAREQASqJgGJFlWz31RrERCBNBGokaZyVIwIiIAIiIAIiECWEbB7GRPIsqqpOiIgAiIgAiIgAlWPgESLqtdnqrEIiEAaCUgJm0bYKkoEREAEREAEsowAFitZViNVRwREQAREQAREoAoTkGhRhTtPVRcBEUgxASlhUwxY2YuACFQQmDJlSkVQ/0VABERABERABConUFRUtGPHjsrTJTWFvtdJxanMREAEREAEREAE4iGQESkonorGco2UsLHQUloREIHECOCtn5/E8tDVIiACIiACIpD7BBqX/2SqnfpeZ4q8yhUBERABERABEcisFJRS/lLCphSvMhcBEbiFAIO6/fv33xKlAxEQAREQAREQAR+B9u3bMwLxRacpQt/rNIFWMSIgAiIgAiIgAj4CmZWCfNVJZkRhMjNTXiIgAiIgAiIgAiIgAiIgAiIgAiIgAiIgAiIgAiIgArcSkBL2Vh46EgEREAEREAEREAEREAEREAEREAEREAEREAEREIGkEpASNqk4lZkIiIAIiIAIiIAIiIAIiIAIiIAIiIAIiIAIiIAI3EpASthbeehIBERABERABERABERABERABERABERABERABERABJJKQErYpOJUZiIgAiIgAiIgAiIgAiIgAiIgAiIgAiIgAiIgAiJwKwEpYW/loSMREAEREAEREAEREAEREAEREAEREAEREAEREAERSCoBKWGTilOZiYAIiIAIiIAIiIAIiIAIiIAIiIAIiIAIiIAIiMCtBKSEvZWHjkRABERABERABERABERABERABERABERABERABEQgqQSkhE0qTmUmAiIgAiIgAiIgAiIgAiIgAiIgAiIgAiIgAiIgArcSkBL2Vh46EgEREAEREAEREAEREAEREAEREAEREAEREAEREIGkEpASNqk4lZkIiIAIiIAIiIAIiIAIiIAIiIAIiIAIiIAIiIAI3Eqgxq2HOhIBERCBLCNQUFgwYFRBm04B1bp2tfTLZaVH9gWcUpQIiIAIiIAIiEA6Ceh7nU7aKksEREAEREAERKAKEpAStgp2mqosAnlCoHqNwrHfqlY98muqRs2CQWMLqlUr3bWhdOcXeUJFzRSBEALNW7ap37ARCU4c/eb8ubMhKXPgVJNmLXrdOeT0yeNFWzdcv3YtB1qUiibc3q5T5x599n9V9PWenaWlpakoIg/zzKsHLar+1fc6KkxKFJGA3ucR0cR4okHDxs1atuaic2eLTx47EuPV2ZU8l9qSXWRTXJtc+kTmUluS2O01a9a6rV1HMrx27eqh/XuSmHOeZBVZu5EnANRMERCBrCRQ0Oeegva9oqxaQdcB/JbMf7VayfUoL1EyEchJAsPHTO7YtSdNWzr/vS/XrsjJNppGIf9N/87PateuwyEDzhWL5ma2sXd06FJYvXo0dSg+ebz49MloUiaeps0dHaY99yPyGThs5PtvvLx31/bE84wjh5q1anXrPYCRTKMmTRlUI7KfP3vm1MljX+3YcuzwwTgyzPgl+fOgRYNa3+toKClNCIFse5+HVDX7T3XvM+DesQ9Sz93bN3341l+yv8IhNcyltoQ0Mw2nEJY6duvdrmNX5unr1qt/9cqV8+fO8P3dvWMzM9lJr0AufSKT0paCgsKO3XredkfHRo2bIggxIX4BMej0qX27tx/Yt7vketUbvSJ4P/L097hzLl288NLP/++k30I5n6GUsDnfxWqgCFQ9AgWjniio1zDWehdOfL502Vul54tjvVDpRUAEqhwBZuCNBpaao3fOrBK2sLBw6rd/GCXDL1YtTVttO3W9OZXVsWuv9Cth6aO7RozrM3BorXJ1uQfR0BHjjhz6+qO3XztbfMpzSodVhYC+11Wlp7K5nln1Ps9mUKqbCMRBoEvPfuOnPMlsqOfabr37o2Hc8PlyZJKSkhLPWR0mhUBBQUG/wcMHDruvUZNm/gwHDB1x4dzZ+e/NPLB3l/+sYnKYgJSwOdy5apoIVEkC8Y3oTFMLRk4rXfx6tcsXqmTLVWkREAGHwJTpL7a6vR0Rq5bM27Lhc+dMWfCbr/devnSxdp26hPfu3OY5yxr8B6Y9SyRT9H/93b96zubMYaXN3LNz65B7x5j27vFR4lT/u0Zwdu+ubYs+eDPpWBo2bvrI099t2rxVSM6tb2/39Pf+fsGc1/2dGHKVTmUJAX2vs6Qjqno1wt/nVb11Vav+1atXf/4n/4zmiGq/89pvTx4/WrXqr9q6BOjHYSMn8K03HeqesuEBQ+9r1eYOZkOxzbSRmQ1UKttktnrRl16jRs0JjzyFEjzkknoNGj76re+tXrZw7YrF8hkVAirHTkkJm2MdquaIQNUmULaqMXYbWLfNhWOeKvnoZTdGYREQgapIoG79BvXqN6DmNWvV9tf/6tUrb7z8y+69B7Cga+fWDZ4EXGKurVEj3XIOvrEuXDjnqY97mMQF+JU28/DB/W/95TftO3c/uO8rfMK61SCMmaqhVKduPc+pxA8bN23++PM/NvmT2/Xr17dvWoeqhf6qXadO4ybNe/Qd2KL17WXVqFP3oSdeWL1swZpPFyVernJIGwF9r9OGOucLCn+f53zzs6qBrJuu3+DGWrTCkF0ZsqrSqkwEAiMnPHznkHvNyevXr23f9AUbBpw6cQyPBHx/8faAgyDO3t6+0+Mv/Pivv/0XvtQRckprdKWyTVprE29h1avXePSZH9x2RwebAauRmG8+U3wSnTiGse06devUrTdhHrq7R01s07bD3NmvVkXXBLaBCkRPIN2Dk+hrppQiIAJ5R6B6jej9wIbAKRg9vXTJrJAEOiUCIpADBIpPnVizIuvUdp8umnvk0P7swYtSOP17JjCkGPvg41YDy8ADS1uPlQ1uGTp06Tlx6rfQBZMeax2W431zYF/2oFNNwgjoex1GR+diJpCd7/OYm6ELRCBrCDRo1KTvwLtNdU6dODr/nRnHjhyytduxeT2ml2MmT+va604iGzdpxqp5XBPYBAokSGDIvfdbDSzvt4/e+ovLn8y/XPtZsxatJj76TIvWt3GIZ61Bw0au/eyTBMvV5VWCQGGVqKUqKQIikA8ECsd+KynNLKjboFrNANO5pGSuTERABERABMIJ9O5/V9sOXUyaXdu+nPvmKx4NrDnFlhTv/vX3Vy5f4hA97L1jHwrPVmezh4C+19nTF6qJCIiACPgJuPuFLp77lkcDSHp8Os1/d8bZ4tPm2g5devgzUUx8BNi3asjwG86g0IDPfvXXfv7kjLuPd2f8/sSxw6aUISPG2t0O4itXV1UVArKErSo9pXqKQK4TKCisFnndU+nVK6eWvld6/ZpLoX7vIXXadXNjbLhw5LSSRTPsYZQB5A/8IpH44P6vDn29hznkdp26tu/Unb1ETx47wv6VaBNsViwk6dlvULMWrTl74uhhlv0e2v/VmdDtZdq279yyze3NWrZp2rzlhfPnWJXMLxciBtlsbcBTmSbNWlIZJKr6DRsf3Ld75ZJ5NiWB6jVqsOdmq9vuaNWmbf0GjU6fPHb86DdHvzmQiFlZk2YtevQb1KRpiwaNGl+8cJ7c+GUXncDa2sqw+qZrr35UBneQderUPX/uLOtu2AMdnjaNG2BPZNxREVNaWrJu5RLcJ7FBB/u3sqt7aUnJJx+9zbIpN32duvV79x/SvBXbrDe7fu0a+/l8c3B/0eb17LfuJospjFdKdidg9XS9eg3Yth50279cSwdhx9dnwDCyunz50pdrV7h59h10d9269YnZtmnd+bPFrW5r165jF7RONWrW3LhmhXufkKZe/YZ3dOzC1vBUu1at2ghbR8u7/viRb9w8TdgDBP9QdET3PgObt2zNqrFzZ4tPnji6bcOa8DvNZsslbTt0xrsW4iD3MPfD4YP7EtkJF/+e3PawatioCe5WwbX/qx37du8I9GNF4q7lnrCo7Y7NX9SoWQujACpze7uO165dO3n8CHcUrDzXtr69fftOZc81RZiGYB0AFhPevH4Vd6MJ97pziFlJt3PbRtuoQXeP4iakvSYNO1Hcde9YE4b8V0VbCNMdt7XtSADNoN/brElMTxl/qRxu2bCa+8HEJ/2v50nnrgMRvcZSQbZroLv37y765sBeT7nRNJNL2DFs0D2jC6oVlFYrXb9qqVlpyA3ZZ8BQzt7evrPJlpvTUtq7e7txmGDxHj603+/K4MaFrdp07taH8LXrV9evWmYi+Tvw7pEmDOFFc2eH7PjBPcCFw0ZNID23R8PGTeyAkJjUPWiezM+dOc3WYeiOMUjh9uYth93Kzq0beT+bhoT/TfqDFl5c5s/qe31rH3ie4vR/r7lp27Rtz5eoZevbrly5zFfs5NEjX+/dad+Wt9b3xhHeP/m48LVlw24+Xjx6vJa3blgTOGXi+TYFfqwxpiNDcueFs+6zTzzvdlsHPvrmlb5n17bjFaZ59oXjvs/tJSYQn1jCtbhkwe6+cdNmfLjPneOLdAIzQNZle/J3D1MhVkXfTSxPHnzPKP5SJYwTcdfg1s2EoyFmUvINvaNjV97z9DgbsvNK3/7lOr/UhCCEyFdYvbot684hw8+eLts18erVyxs+/9TGm0BMso29Nolg4YlLIpMzYhWzeraUaALx3U6xSrkeQYhPPLKi6Q4+NO+/4fWfFpOUFd5M+JgEly6e90sR5hRf5/WrlyIncMhLwESavwyCevUbTPjihXOb1692T5lwoIDhT0YM0BAdGaQ0bdEK0b349AnWx+zbtd3/iohStrGlMArjDdai1W0IyfhbOHb4EAIMckW4kMxQAkGU+rRs0xanVcePHuZtwDjFSpI2/0oDjMsY8phku3ds5hVqwjw75lGijQvnzAp8qZqUvKWXfPTOtOd+xCEvxk7de+M1wpzib6z3TyIjTebC8VBBc+gmhmC8J8tHvpsYoNn6RArQxfBEdjU0Dh/Y983BvUcOfh347oqUSV7FSwmbV92txopA9hIoGDA6UuUuH9pzbtMq/9nzW9deObSn0bCy0bv3p1Ydb0wUx9169e/VfwgJWaGDQ6IpT75gJGBi+Kr1G3wPyqb57/wVldzQ+8bj5x5x1uSK0oSz165eeW/mHwO1jShqx0x+HDnYrYXRT6HcQQhDYnBPEXYr06hJ0/EPP2UTXL1y2YYJIGZNnvacWcxi4vHuZAJ8yJfOe4chmZu+0jDKiHEPTe/cow/fY5u4S4++hK9eubLgvZlGk2VP2QDS8MiJj+BqysaYwMBhI5kBXvDuDP8OD3Xq1bt79ESTbNO6ldOe/1vGCfZy11UllRk6cjzyGWM/m4BA7wFDh9//wNL576IxceOjCSM0PDDt27hksokR5npUG0jnrvj4A8QyUzckJI8SdvA9o80+p0e++XrYyPHobmwO3CQ2TIBhEj653K3hrYUgQu2Sj972yKAukPWrl9Nk9lSlnm6ezK5v/PzTFYvneq510xCmXQ8+8bztRO5SVFrEL184xz+a8lzrPwy8K0jW/657meRnSwemIjxXod02AJHGvt5ThIdQOyQgpXkcDg0Z/vGcNxj722vbd+6Gbyx7SAC3WfyaGLaQsmoFikaAJv7UyWNWdGarX9tkTpV52qq4wfYUbTW3bqPGzUwkvrd2bd8UOK+AHGzSMGDw9L6pSbL+uk86HTr1mR8wRnUzRz26hVvh4w94w9j4aJpJYh6We0ZPMleRiUHHyNMyMafoFxuDxGyUsIwSGTWRgLfTGz5/suZC9NRGn4sHBquERQPOsMEkWLVkvjF0NYeBfzeu+bTPoGHmJkeId5WwqXvQqImbOfrfURMf9by7UBXt/6poHu/8oHky25bkPmg222wO6Hvt6R33KU7z95qaoEDhI+i+98xHjWH/wjlvcA97amsO2Stm9KRH0aPdPNuuLDj0vnG8b9gO0fN9cb9NET/WBQX2TcIERuB+30xC3zd+iinUlZcC3+e2boEfoGjEEt5Fk6beWO1rcyPA449zRuQZJDo33oSTLlaRbUzdhHrrnvsfMJXZ9uXaQEUG+6obt9p8gu0X0NMWpsPHT5lupQ7Otu1QDUEX9y+LPpiFIsxN33fgMF77box5vRPDa9wjNsQq25hskwgWjf9jz/6NmYhlfppFFW7Nw8Nx305xSLmuIMS3dfqLP2Vu2FQPpaFbz8BakSBEynIv94cvX7qxTXHNmrVRCCLM+NMQg+kAv/5TrJQ3jzPKuEAlLDPrVsDY/MXq6xdvTJB7skJNOeahJ+gvN77foHvQe86d/Wcyd+OjlG24hCHY3aMnISHbkRqRzLXwF83y4g9nb9u41s3ZhpmSmfDI0+7n3tz2dAcSy/rVyzyvPnuhP9CxW6/J05410guTABvWLDdpqFKX7mWDJn6Ktmyo1EUVb0Je1Eag5a+rhI3+/klwpMnQcvzDTzZvVeYYwfwgeDNqOD3q+Idv/aWSKavq1R/91vft2JPLjYSPSdBbf/5N6owYKmpaJf+XzbDpRwREQAQyTqCgTcfAOpRevWw0sA363d184tM3fyc8VVCzVrAG1mTUuEVghtFEMkiYNPVb7nfdXIW1y8iJjzIyR+9mNbA2Q8SRKU99x3xEbSQBVB7P/OAfPBpYm4BZ8WnP/g0ygY3xBMjw/snTPJH2EO3wk9/9O1cD60oP6FCe+t7fe7SW9trAAEOy6S/+pEvPvu6IzqZEdpz8+HNDR4yzMTYwZPj9uHd0xRp7ikDL1rc/8cJP7HSxe8qGxz70hKuBtfEEqAxqaMoNbAuFTnz0W0w7u5dEE75/8mOuBtZewmogmKOGtjGRAggorgbWk2zkhEfGTZmOYO2JN4cMeNiPyKNxc1MyGIaqRwNLAoZnWBq6enn3KhPGKoruCOzEEeOmhNTZnxUxEH78uR9FuisY5T7+3N9SYuC1RPJoPDT9RVcDa1OiGuaO8j9rNkEqApjfmjEtw5JIvWy8pFE6etvAUXrSK8Zr56HpAfcDnchthpIl6SWGZ8jI3yRAMWqmHDzpuQ+7VDwj2zaus2e79uhnwui4dzqrB2wCTwC8f/rlf//DL/4ffndv3+w5aw5T+qAxAOMFEvju4s2MfQpbhwXWisjkPmiRSsm2eH2vI/VImr/XvDmZgr3XmXlyBQC+5g8/9V2eHX9t0YA88Ngzt2hgKxLxxeG7M+HRpysiAv5H+lijT7F61W7ljib9F3ftWeaAkh8WstjEJibS37jFEh7PJ174sSsguUWgQGEzImzi3EjCSRer4u4mT8ViPSw3JnjR1cDaHJA8H3ziBb7pNiamQHyyTRLB8kma+u0bGlhsHt/+8288q6ZCmhP37ZSglIso+OATz1kNrKeGCUpZntzM4aGv95oAciZq98A0qY5kBViZ+HerBtYUir4P0RHJJ446IH488eJPMcsIlB45iymJXd/j5s8I7uGnvmM/99h42ncmr757xz6IftZNHxJmWMfr14joqFDnvP4ydiomPdO69Sp2t8PoPiQTe+q9mX8wUtDyhe/bSDcQfv8kONJEgTvlye+4GlhbNDkjBSEH2hhPoKCwEGiuBtYmYFHII09/Xw4WLBA3cIu1hXtCYREQARHIBgKnl7xHNRoNGlWz5e231KegoNmYiKpJUha061FafPyWS6I+wEKEtChfmEdlHg9bA0zzjAoJtSabenP2wN7dWzd+fuTQAcxeMCswS6JYwox1gLEjs6Vh/mDG8Hzp8cKObQhmochhHbv0xOKSU2YyOZK5CppfssI6jPqw3Io14Neu3lh6j/CBrtB83lBkLJv/7p6d2zCXY0F3t953mh1RqXb3vgO3bvjc1ic8MObBadaKDQu43ds3YdrJsjX0p/gqQpBCJcTa4QP7d7u7/WBAau1fsBrDKHX/np2g4yq0GMZcBQFi4qNP//X3/2bFFE9NLHa2UGc1JYhOHDti0rC3gMHOIcvqd2xZ//WeXbVq10Z70nfgUAZR1GrEuIeIxCTEk22kQ+DTWeYsC4hQzO37qoiF21hidunRD8ERgTvStTbeNA0vDXQff4m3FWCQgH20SYmVKEvasQzCNKlx0xbY4Bi1O4NAppqxx7EZugFqyCFXscSJ9eBsWNyxay961gwaAcKFRVs3uJfYsMFFrUiAISrK6w5de6LFRhaHFbdN0daNrmWlvTAwgJGgFc7Ik1sR4R7RmVbgHYL7kM5FKTzjpZ8HmlqYMTD38KZ1nx3Y9xXWGawdw8wH2Y7ieL7IxLoF4BnBfwXxD0x71kjnLMZkhaypmMUbWE8iZ/z+36gPDgcYJXLIAvw3/vj/mcTWnhHbcIowiNAU+M0leJA7dC577vjZvummetHEpOivuf/pLHxc8HDRTbQCQw8qQ4ncS1if2eZH08xI9eRGnfH7n3N28PD7DQQWKn7y4dsm/dkzN9zDHdz3FYv0WZBIPCrpL1YuMQnsX8b25lbEfoQVxDbe+oJAw1KpGay9KjyQ0geN55HSz5w+icqYBZIY0XBj02TsgIhnZghjnyXz3gmsYXIftMAiqlCkvtdp/l6zdNTq0Xgtr/xkHq8IPAi1bd/lrhFjecHyGmHlBFbwVtFQdku3uo31GUZ5wTrlrRvX8n25fOnSHR069+w32Dy/iDRff8WX/MaL13MThnysWefO1BrpScNT45ZrMrHzW9u+XOc/6ynIHMYnlrCwl8kVK30xq8THi+U4t0GnZz/zCWYtM2a5C+e8bstNhVgVXzfZKsUdMG1kMgwRgkUkSJ4Ih2iOOncvW+eEoooVWgf37eEeMEUsfH8W8iQSKTPxJmbBe68bfxHGlY2JjE+2SSJYvGdM/fYP8V1DfTABfuevv+dTZeoWzd/4bqfEpVzzZCEA79r+JR/606dOmI+7qXOCUlZgwxmMIO2YUvjMIcBj5hmlj53ADOOIxNqAq1iFw9sEfxEYReJwjLcWtyLxaCrHPPg4xpI25yhlG1xnYNthrkIS5tuNYFNSch1dIepmIzoOGzV+49oVrhCCYXj5lFWZDSKvSsQersKkBmEGEcs8L+S8etlCxi+2SoEBXvWTH3/emOPs2bmVTbfcZ8RKQYjZB/buDMwh1sjw+yfBkaYZDcGKoRAG8viLuKNDVwR8M4XDawGl9ut//PdA11Kc5a1eZiy/5lPMgXF4wqeHXjCWGcj/g4bfv/KTj2Jtb86nlxI257tYDRSBqk2AbyoN8Gpgo2hTQYu2pVEki5QE1dWCd2eaEQJSOyrXJ7/7M7PuCeEVUf6DWX8yX1w+1ej+atYo8+NDbm3alq/oq8iX6VazpJeIz5cv/Hz5xxVnypSJOLFi9TExmM+gxnJlBZuMAMpQHB1YQdmewsGZnUNm21PrDwvdB7+169QzCoJ+g+6OUgmLdG4tQ8kB0Rbx3RSHlQEK2cee/ZFRqN05eLirhL1/0lQzouMLPffNV3Gqa65C+bj5i1UsLzJqDgQgBIXVSxfYJrgBaH/y4VtWGWdP8YEfPuaGGSDVmP3nX1ttGkPHvTu3Tn3mh+gWyyexJ38w6xV7YUgAxYpd807/vvnKryx8FFIsrH4cxwjOqpyQrKgw1fYPJllBxiCHC1ko997Ml3CPazJBF4l6a+q3f4BVCDH8jaSE5Swq+3dnvGQyRyRENmIkyaS0mXu/d9yDiJ6RvDUxJkcutDITAzBU21Omv0i2VAz5NZKPMFNP+xdVIFKpOXSfC1YnIa5xG5u1pUhd3BWI+PZCN4B7UzYfsEsmCfAQPfu3/5sxxeLZsf1O55r+tT0CMbtrgZtnYNi4vDCqQxJcv3Y18FpUq+bpaNexG6N0e0eZPFGOGwtlBgzUM7CgSJGduvUyyuXABNeuXYlk7El6Hrr3ZvzBuuqj5oyXMCE3A2YeT6uEjbKZgXVAZ2qY4M7YJGCA5KfEfcWaODMTgKrar4S1yhRuYCaHbFnWAASHHjYy8UBKHzRmR2a/+iv7kPJooPpnkQGjVmred9AwfCZEsrRK1oOWOKKM56DvNV2Qtu81ZXXocmMNDaoEvrzmBuCFyfuNF/6TL/6U9xi6KvQF7sJzvBCwCIDELAhAtKDC5kLWzG7ZsAYFnJly5sO9ffMXVgYwaczfSB9rzvJJQp1EuQg/fN1wKeheiGGUtUvFUbh7KlI4brFk0PAbXoPIGYdFTGKZIvhy0Uw8EZmpHSQ0HnY7d550sYpC4+umSEBijV+2cI7T9sNIg8wqmRc7Hp/uGjHGWt6hyjxX7sTGFsF3wf9piE+2SRZY7me8ECBMUkk+iO+89jv73rbVDgnEfTslRcpFjHefOFvPpEhZNjcb4Dld9MGbTEUYWZRPNr9MN2KugUkHiuBwx6k2nwQDzM0jx1rvz7xwEBSR243tJHM2SIB4izKlRCnbDLx7lEmPhDZ39qtW0MUYnwHIMz/4r+XGGYU4fnVffRg9mFcfwzfEfiP4IXHxEceD9lPf/TteUIhbfQYOXbFobkirUdc+WKGBRQye/95Mz3sSmwlz+emTJ1zlbEie0ZyKdP8kZaTJ3YJ3COtDhl0reDGyUs28JzFMQVFrBXVPbeni99/4ExKsieceY3SG7IovBWJaR7ai9eSTV4dSwuZVd6uxIpBPBGpHXEBaKQVmqvFTaTRfJjFDdEQEa9iIQO9+VtFWbNu0FjGCxC1at0XcsQLBpYsX3/jjL8syKajmd5rJ1w4ZiFl9vvoeWcGUy18+7fi6ClwQXcfxvnr8yEF7iQkge639bDGmndEbPPboW+YCkp/zZ8989NZrHqmCOmDYgnaSBBiSWNUVimDjmIx4BBergS3LqPyHKVB2DDNuPbGviaSERSwL/MB36t4HDTU5oZV7//U/evRlbDbF/l2s+icBglGILttUxvzt1qc/zE2ejF2tvs+cxXbg/Vl/mv7iz1iy517lDzP0XTx3tj+eGJRWxn6TPQ08HpHKbpiNa60SNvByIhkRffT2X937kEhKZMg0etJUwswKtG7bDknanwOU8GVp70OTAGUZcrDprNa33xGlErZn38HmckRnz3NBPFIag2ozi46VbiQl7OIP37IaWJMbkDesXs44n8MQraVJnPS/TJygHAeg8UjgMYa16sWiLes9DCutCQZoIWnQeuze/n8EJqAgphCsBtakobsZYxjzusbNmgdemLpItCRmrG48EiBY27J4fIxoTgymuzaegF3jzJ3vxtswzHkv2UM3AITASYWUPmi86HjdeUbyPEEfzv7z9Bd+gjqJGSbeePgKd6tqwkl80PyZ51GMvtexf6+5PerWu/GF8jvsI+bPv/5fxg7UdbqNvGEsVbkcC1CrgTU3G4N8nNQ//f3/wjwfA3ts1jxezk2ySB9rzvIxRaNh5u14kXqUsOzbaXLg6+P5Iph4/9/4xBLy6Vkhz+Dv0mohTf68ZBa+93qz7/7MrPuhtlYJm3SxihLj6CY/h/himLX1tJ18Vi2dj5Ga8YNJH1klbJRFxCfbJAUs06t4ITAaWO5wDAWMo/Moa06y+G6nZEm5+Gj2PHGm5kmRsgIhoCIk3uphCWPIjBqdX8JoPHdsWsdsK+JQ4OVJiUREtxpYkyEfejYSePr7f2+kBWZ5rRI2yhLnvf2asUXg5eYR0pjyR8tshFIMOV0lrBXp8YXiGUow7pv18n+Y+fuLFbbhgZVhLMN2C2aeHlcDvEU9UjpXWSmIwWNgJowTjeWK/yxvJ0+LbJpI90/iI02KYKRmNbC2xI/fn8WOZ+imieFdEThG49SqZQusBtZcCxNEJkBxGOLKwCTOz79SwuZnv6vVIpAHBK7dWLMfR1OZInZ1rCYHKzmhoPQPHqyClcUpLOaySj2+pn47ArdKiAIMioip36CRG2/DmMIFamBJcPLoYb5zRpk4atJURAF3pT/2blgp2nwqDZCPNYPFB3+g6MDA6ZX//B+mRCvB2KuYC8VezF8Qlfxi1VKjhEXdxiJfM9ftSclCYE+MObReO1kC7w4mbWKW2hklLOzZmjMaYY6FNubyr/fuClx2hDERI0mzkMoW5A8EDlBNMnQ6HrWOe7k1QDDm1e4pG970xSq/+TNnGVNhyWJG15h1BCphUVoFegbAPMooYVu0utW/hy3VFzCzC0Szmsz/XBAPfyPvsjc3Zsv+25Ub4FCFcbSbPZUxh42apFu9yINZtHk9dtlUwOORwLgKMRVjwawJpOEvLwr7TLnFQckoYdlPzI1PQ5jnlBvJ2DIgf7vGsIxt0NFQB25Rz1Ngfd4F3oFc9b3/8n9Fqjx7v7BxnP+spwg3QeIPGnoiz/jB5M+4ce/u7UbXzIMWqIRN4oPmNirvwvpex/i9treoWULL47lr+2a7GsacRbHi163Y9znSwlc7blifufcbFt88+GapL5kHPnqRPtYmHxR/RgnL1AUz1rz/bf7U04TxWmAjQwJxiyUsZEHZZHIONLllPoymGSUszfxs8YcmcXLFKpMnb5JYuymESUyn1jirr+yF9Mi6lUuMEhYJhIVB4WKqvdAE4nvlJg6Wqj727R+a1QkI5PjQdFdgeCoZeBj37ZQUKRfxiUV1gRWzT2XcUlZgtiYSPSyDFuZTjRsKNyXSOI6hcCaGATvqtsBPtps+jjDGBLwQ/BcyxMBMwczymt20/GlCYvyjMDcxAytz6BlYHTt8Q+ZkJILDsXUrlyIK2guRXS8fq2T5DpuM4bvf7E6BUfniD72b65rcbkpBt+69Zstiu45Ie2BggjrzD7+wKW0g5P5JfKTJ9P8XqwLWsTGYxUWY8e5F2/HxYjZUsLUygUAJ32reGa1gwM6oynNVnh9KCZvnN4CaLwJVhABCfLndYgzVPRf/697qhtzizEJLYuzX3T0bqD1xE5gwE/h8imrXros/UxaC1apVx5hD+lPamMOH9tuwJ4At4ZGD+/FURTyagvZ/93+iDtv/1Y6D+/fE5CHLZIv7Ais3+M1qbNH+5hurBBKcPHHUHW7ZS8pOOepgppoDlbCoM9xLbNiaSRIwvnftKX+gYbkLS3+8J8aqPq2U4EnA4VHqU+7Nyn/KxlS656lJieDStEWr8h6vXatO3dp16iAN20wiBfAeEOkUQyZjzWQ0+P5kkdx+WTHITOP7L/TEUGd+TWST5i0D+eMW2SRghFO/UePLx7ybTbNAzK+Z5RKrIMAmwFNuGg6x3zRKWI9HAhzvGjhADrk9ItVw1/ZNIU9foPxqsrLTPJ6crdOAKLvMc3mChwyfjBLW45GAQ5Pzjs0bPCbzvCLM82WdQkRfBzPB40+f0gfNTqH5y+UeMEpY+5bzpEnWg+bJtmof6nsd1H/J/V6bEphENC8xloCw2wyjdxQuLEbheQmcMOMq+z3lc2+fYk998ZRqYiI9wpE+1uYqjPfR07EgF7szpkWt4omijW4XXQ9OyT2FBh7GLZbYZpItzWkcNM9nm9mwUWNbepZ0k61PIgH07Ha615OPK+M1bNI0JiWsm1X0sk2CYLkV8QNrHGVwd2EDa20d3PqEh+O+nez7PxEpF3HCs9LF1DYpUlZ4w5EuWNjBqANn9207dsEtcrOWbezXFpNMRDuMN1lRHv3KufAS7dkQr0T2roMAryPXiMReHk0AzwNNmjWncysGVrWH3jc+8MLDB/Yig3HTchbtc78hw3lhsnCejSgCZVRPJniNwDea0cBG8o9kLrHPXcNGN8RjT1YWvieew0inIt0//hziGGkyRnP10W6etptYw8T+XX71NxKgXUngXojBEkNC05zq1Wu6pxSGgJSwug1EQASymkDtO7pcPrD75MdvNhtftt7c/bm4Z1vdTr3cGDdceiRgjbabICTs0SmEpIzyFBOejJT4flvdX5QXkiy8MqzowbuoWSqCEIN3M+OCls/kjk1foGby60wjFW19GJEgJt2TnWp2Na2eUlC3IeKgeSbepvekuV7u/9cTyaFd18OwauLUb/kTuDE2sRvpD9etX2bEx4/d+8scun+t5OFGesKRFg2ZZAgfA4bd17lbH5wGmJVTnsvDD7EciZQAtZFRwtp1jp6UkdboRRKzPJfbQ5dnnwFD+bWnAgOk998Gly7c2PfDc0n4ve1JnPRD6snIhHVSHo8EVjERpa2Wp2JfrFwapcbQc+HF88GL91NhnOIpOuQQwxx8/nL3uh4JuLGxcTNX+Tcu4+XDjnycxQmgP2d0Q34hnjGD2eDCn97EpPRBC3nSrX7WmP36q5esB82fc1WM0fc6/J2WxO+1uT1Qd+ICiB29zSGeYYzHVV4aGHHzBuOvp0ruKz2K72mwQ55IH2tTDQbeGJ+ycTmHmL5aJaw1g91dtDlKDVrcYoldd0wdzEIZU7fAv6hvXC9S2dBNgfWMNZI3W6R5cfSYvLvMa61+/Yax5hyfbJMIWDMXaOqJopAV27HWmfRx305WavWLN7YalUq5kersPpJxS1m2GiEBjEVw688vaZi2YXPgrr3vtG6FsHMcM/kxtmILySGOU+HGBDZDIBRfOWEPowmgusX7E5Po7FhlNH2VXsUwBEXzw0++yIJFEjMiGzD0Pn4RjI8c/JopZyaHQl5NlpUpKNLDxdnikzfa0ihICiLBmVMnCwvLHHPbn7r1G5ghko3xBCLdPzZZIiPNaKQgCipzKnLyuC3RBJhfCZzzK+fDMogM2Fh4apidh1LCZme/qFYikH8Erl2pVqPso+j5adBnKErY0pLrJ+bPrNe9f507upaWXLty7JsLW9fy1bz41ZZmYx/3XGIOS/dtC4xPfyTbDY9+YKqZek166Yh9s1/9db9B9/TsP8Ss0jJFoK8cNmrC0JHjWXQW5a6UNWrenKiMZk7YtqVGzRufkkj6CJOShWNGwjDTyPbySgPWPrfSlCSI0lqQKXdTDXeo5sm/fsOb1jGeU9EckvPEqc8g10aTODBNCE+7Ci8mOIGlhEfGmn+NGlVJrsDbgHFWheLVuIWlvR269oSJ0SOEw8mHs9xpuBI2Kld0KMYjAfb7ZvTOvih+A16rYw20PmOE85ff/L8edBjxmQWJUS4pcC9PwoMW2QGcfdBQQ7tqGrcC+RjW9zquXk/i99qWj6sfxs99Bg7r1LUX80kmnu8g+gJ+mYV9d8YfXJc7Mb3S45g7NBVgbsYoYbt077t03ntm8s+Z3/rC1j88ELdYUrNW7fCc3bNocGhpSckVE5kN3eRWL+6wfX0F5sDL1rzGXciBKT2Rcb9ykwUWe9gxDz3ObrSeilV66LY0e6TcmB5J2pgUKYsPsVHI4lkIx51GODeOjyrFGFOCy86mnZ4L3fvT7RpPssBDJLfJ0561FsqBaQIjD+7bPeuV/2SHD4x/jVMvkmELzJpCfu+b8DC7KUTj0wx1+bFvDm764sZ2f56y7Cu3FtruuvX9jsXYdsJzCZY695bvkRCHFERWCY40L1244KmPPaQ+yMNGzZ2ikawtK68CVWmwlFcdo8aKQL4RKP1yecGgsYGtbj7x6VMfzy65fvVC0UZ+3TTNxk5zD28JO45+bolP7wEf9fEPP2nKRPGH0MNEOms0kEsQAfm2sfWkWaAXd71Q1X3+6cdrVizCUgCVH/uNoiIx07x8NXF7hD5p5ZJ5lebvOoFlmV6gk8TATOyuU7iXCkxAJGNCu3A+0nY9ka69eP48Phw4y7guklf4ahWzrUwvR8rHjb9w7owZfrRs09aNd8NsJuYexhoe//BTVgPL4k1MllBOIYpdunTx8sWLdHqlVkhM70da9YlzA1OfEEVtrBUOTO/m//EHs3AsEJjM8j9e4XIrOFmWxRZt2XDfuIfQXFiPBJ269jbaeVaoYSuUZfXNTHXYtcMoYdGhGCWstWgLNBZGM2sqyl3KaDniPeO0xg6lQswxnOS3BJPwoDVvhaL5lkwrDuw7jdd1uDVuxRV58V/f67i7OVnfa7cC+Dbll6F+hy7dMUJnzY1xdUoanqxpz/7NrFf+wzqisa90YhbMmenm4w/Hpw4gH0zIWaDK57Veg4bIJCg+mBg27siRNHCa5C8rMCZuscQVM976y28CMy+LLJcceLQ9jmIy3k0RK+ycqNT6z8oJzkU3giidrc9cK8L5kwXGJPLKTQTsnp1b6S/jPhUNGv49XTflgVX1RMZ9O1lE9ovgyZnDuKVc+0iSSfqlLJ7NZfPfM+MU3iE0MNBdmL+9xFR6B5Im5CZsWr7dk8kZOT+wiMBI1s3gmwL9JmeZ4Nm7czt+28rcXiFdl//eOeTGzmOBl/N2WvLRO8sXzGGnitvbd2bX4NZt25u2IP5Nnvbc3DdfcbfzcjPhluvcoy9vMyJHTngYO9/AHW7tVDTJOnXrFegV182WsB0ixSEFJT7SDOkmHJHZjnbfq5766zBWAlLCxkpM6UVABFJCAO8BISsWmo57vOTyhfObP7966hgfg+pNW9bvMbB6/UaRqlK6u2y5TTb8sJ2LqQZ+8d989Vfs2umpVWFBoScmvkMmKvFOWOag8LNPkAW79rxzxLgHzSonbGTYDLd8YUhY3m7dWra5PR4lbMvWkQpgTGi/4rHqtpCbjRKWYdKh/XsiFRFTPG6q2LiDS1BYMxphEzPP5dTW7KThiY/yECU49gUmMctFMVbyXNisZUSFtU3J2qJISljrzM6ODexVyQ24d8W1q1eTxT+5lYw7N7OpFIM665Hgpnpx07q4s82xC1nRzCiRSQvjkQDbOqOTZfCDftbfWBxTcgrTEh6iofeNYz9ffxo3hvGM1Rm5ngrdNJHCyXnQyl8FgUXYB+1ihD2OA6/K+Uh9rxPs4sS/1/4K8DZjq25+OYWHIh69Hn0HEkYNigvyjWtWmEvsK/3ataR9T/2VIYZJUzPHyeQNip6uFQ5MdmxaX6k0YjO0tSUmNrHk3E3vLqdPHIvvQ5nBbrIECGBKhw2pG2PCkTz22pSodbCyDHS12bRFS0z7TcqYFCtJeeXGB/bDt/7CCu7pL/7E7Gg0/P4HcJzF9LZtb6WB+G+nCmdBTI1HKiVuKdetVRKlLL6/PfoOMoI320WErLJ3J0V4dfiVsNZi1NP2Su9A0reI/Hk1vlNIg8AQ002I5tRoYBHd3/3rS9GPVtz6s4IeTatRtqJ97jf47qEjxiEK8lz0HjA0UAnLzsArFn/ICqrpL/6UJ4vEkx9/9o0//tL/eCIyMctlRi74TMA9S/gkLvKSWYNFDUMcOLj1d8OJjzRbtGrjZuiGW7QsGyuZn4sVD0JFhP7HT6BG48YJLbeMv+RMX5m3Dc80+DSVr/5NE+ikFlO6a0NB1wGRsiysXa/h4NGRznriS4sCVAOeNOk5bN+puynoy3WfuZKWicQhUfPIX764a4g/OD75iDUTHy3zoIr2hEnOEFdWpiAkEuMik0OqbcdsbjVYsjT43jFIdbiZw/zWeKu0ikKag0sExBT3EhO+o0NnE6CUWPUs5G/cgbW5vb0/5/hicMZvBqgogO5/4DGsDzz53Df+YbNQ3RMf5SHtNT4uEXzXr17mvyqa3WAxaNq6cY3/WlzjN23e0sRb+P5kSYlhHwnuHDPwoBfwEJqUbGPKxI4VY7rKJC6oGGdGuhYLBWNZg6Zg59YvO3TtQUpcXO3evjnSJVkYX2kzw+vs8U3mSczDjslw/7vuJR4lNRvWGSceB/d95R97kAaDFDRBLI4jzCBwzaeL7dI8T84clitqx5uBIjfb6QpPav6UgTFJedBuu6MDT6vfqRm1Mp6XKTrVD1pg6zyRWSXY6Hvt6Z24D+P7XocXxxPH5Ac6UGO4h87CftDtncy3jw96TIuywwv1nOUlcO+YB9FT4BVh6fz37PxWNEZhNqu4xZJjRw6aqSCyan17+zIjysR+0txNaJfM1Be1RtXlN45DDIikGrMN5Q3GZHCgmb/dEhbdkN0y3l5oA35X3Ul55dr8CUQJdvf2TXyJ+J375qtPfudntJ3WIeLOevmXgTKnW4QNx3072acmFVJuiqQsjDrHPvSEEZ9wnxooiBoy7oIw95t+/twZk6Bs46yatTzW4pwK0dxZ5kiPCAyBsyC8l0wy7sBIEzOBso21kEAFH6iBjdWvAjNYaz5dxIPWt3wz3rbtO9n6u4ENq5dzePL4kYXvv/HAY9/mDsTSBT3sW3/+jV9+WL18wbiHppOe9UC97hwScRlfeQG9+w+5aQkbeUtetzJuOPGRJm3ni+Aa8Nr8WcpgwtwbsdrQ2EySFcgqKSjBRt2YBEswF10uAiIgAokTKN2ZHM1pybqFiVcmWTnwkTZZBfpWwy1RIgUNvmc0S3L4tftyuLm5UnuBzzM6dqBm8xz3kp3bvjSHHdFIDRnunjLhMQ8+TqH4euvedyDSsInct2u7NbV4YNqz2OF6LsRs4e7Rk0zk/t070HB5EoQfst28SYCkOOTeMf7EiEFPPP/jp777d/z6NadsxcAssYc/izdPnThmsurVfwhbD1kDBwLwNConf1nRxlT0e6AEibiD/75Ks0KB1b2Pd1qCMa0R/ricQebeXcHLqCvNPDBB4F2xa/uNu4Jbwpr3upfjdcHAxzogEYWpmydhazgALs+pSg8hY9IwcggfqWLvYBYD4pGg152DjS8CdPSBuxgH8qm0MqlLEH0zA+tgCbubgwemtHoTGEWjTFm5ZL4ByAtwypMvWHtST+acZZRopkM49eXaz2yLPCkjHibjQWOMNHLio/4isLSyk2RfFSWqxPHnX6Vj9L2OtfuS/r3mw2cEgEee/p7fqRGPkp38uCGFlNeYb59RpmB7NeHRb/nf2MSj2zKv9L6D7o61mTY971WM6DnEFBcVg1H0YLroSiY2cUggPrGEOe9DX+9Drg5SAABAAElEQVQ12Y6c+Ii7I5MtC0nGNBPBxkZmSTdRH7s/apeefW31bOCue4P9d9kEJjB28uOoaz2RCDm83EwkOiyP0wlXHYbO0XMt82YmJlbZJhGwbh2Y5Jv/7gzzpUA5iD9T433LTUOY2xjJBL2SJz6+2yn1Um5CUlagZMJjbvesv/OuewMpGVCsljOUEAlcNdyp40eNpQVnO/fo4yHJ53sw7s4q+0GmmvjoM3YoZJMzxrD7XPnnSKwkECjC2RGNR7A3maOi9fe7OTVp6jPmnYl0bWtiA6eOH6kIu6/MijjnP1MC6z77xEQwxzP6gceckzeC27/8wlqcjBg/xTbWnxLN7/2Tb+SAbXfZisYYfyzeQCBRjjQfeOxZIwC7hTN6sl+BaFzlutcqHE6gRnFxcc3yzViuXr0anjTpZzNVrlGi0/Cktyg8w0y1N9/KVf+G34fJOpui+6pk/quFE59PqJJnTlQ7+nVCOST1YuZpjVqw/10j+IDZ4QcCIu4C2JQzkdKYWzZeR/nL2pf1q5bZ3FA8DR99Q8hmJ9nTp27ZzpIhh9nmHvmbKVx71dYNawbfM4qFOcSMGPcQc57IRkbZiiTEh9zqXzZ+/qmV1NG24Jze7MLBQGvsg49/umiuNftFi4GLJS4nTy5Z/3nZTHJMPyyBtya694yehEPVrRs/t9POSJ/jHnrCQAaCFXpMEch5YyZPQ3EJq5kv/YIEJh4zk8Ufzn7s239jZBezQSqT4aWlZYbDJg2dZVa9xVRbk5jVl3CjXBoOyc8++cjKsuT58NPfZVwaTbbAZO8C/JMa2tTt7lETrfZ817ZNlnM0uYWniXRXbFn/+YBhI1n8hXj30BPPs7csPrBs77PQlQsNNJa8Wb1eeFnRnD135nS1ah1IieKPHmeRezRXmTQsmbeJUdx/vnyhnSew8SbAnYB5L/plOmv0pKkmMtDVaSQ+ngzTeRh9MwNrhXNqE89DxGJhus92qyc9YzljEM2DZp413iq7IhsL03fYjJgpE5Y3op1fPHf2zm0b3fx5BEZPnGr1C0yK4DXFU26lh8l60BgFobHatG4V7aJQZpIYpA0s396dwzPFpwKtySqtXnITeATXFH2Fo6+zvtfRsyJl0r/XaDlx+Wo25GRtxBsv/9LMJ5laManUoXOZXT8/7vpWVDNb1q82sgcD7DGTH1/+8ftWDYfN2ohxU+zk3+GD+0wO8f3FXQkfCK5lZYnJgZW8sWYVn1hCKZj+GXtPTMymPPXdD2f/Ga9QpnS+ZQOGjrjn/klIYsTYSSbCWdJN1OTYkUP4rCTQs9+gr4q22FdQmfLrntFWM0KCkB9es5Mfe3bBnNetb26mxBDJrEruywo/FTYTvolISsaZFV9GjEBd68i4X7lxg7UVswEmElYtXYA0SIyRANlMyZ4lwNf86e/9PS3li4OF4+plC+zZ+G6nVEu5iUhZIZLJpnUrzTIyHoFnfvgPS+e941llj5J9wiNP2cl1ZCHXawHiHK8Ok8OwURPLxIDjNxy+o/4eNfHRKCVkFnWNnPAIYph5QXEDt+/cg/2KTafwzaVTbAeZQLhss39P0cC7R5KyXaeu3Xr3Z9bciha8u8ZNKbM/DfyhH82gieUvZ06f+ObAzfcb3iT6Db5heuK+MAPzIZI7kPGOMbnt3f8uBinQdhOjR2YoxAwZkcjPWKigt+VuNPPTJiVKz4HDRt49eqI5ZFyzcM4s2xY3t/BwUkaaeIcA3bIFc8xAiW5irDHhkafNKImbwdPA8Cql6KxHCkpRKWSbBvnKa6+UusYoZxEQARGonEDJ9dJlbxWMnFZ5ysAUVy6WrHgv8EymIhEWjSaCsc23fvBfUTQc3P8V8hBu4M1upOjm/KajUdaWbb7Q5N7QmY59qN+ge8gcUZv9Fjp27WVNP3BIajWA5IxQjmrSFMFi2zZt29t5V7SQbGRsNoxilMLeowhkB/btRqVLMjvFiuJvy4bVbiVXL13QuXtvtC1ElttvDkQZiuYCfY1rSbF5/SokePfCaMKIMh9/8OaT3/mpqQCiG4ar3xzcd/7smSbNkMDvMOMosvps8UdWOWtyRr5BHCcMf4xx1lbMXRODbveDWX/CqtSORgxJcyEkVyz6EO9j5jDWv6j8MMNB9ORChrsYGhzcuxsBFHEW1xDINNH0OyMf6CHDMUKmj+iF1rffbCwGxZ9+/EGsFYuUPuSuoBqfLf7QKCgxK5323I/QC6O+R8vcrGUbu08Ftwq3QaT844hHCd6tWn8upG5Pf++/IP2j2ls0d3a5craS/M6cPoWuwaj+mR5gJAnAA3t2sX+d/0psGkhg45H+/QvcQvjYC03g8ed+dM3nYthNw2QJoxE3Ju5wTM30l+K6KGGEwCAZ26uNa1fY0b57CXoK1+Ie+3Sjr3TTuGHGG3aIgvc03ipjH3r86OGDR785iPEdOiOGL9YKj2d80Qez3NeUm1VIOCkPGi80+nfE2IfuGf3AN2XWc6Vsc+GahLCDhztwCqlPfp3S9zqW/k7695qnZvO6leapRBv7wk//mbcc7y68i7CrpF2xy+saG3O3pquWzO/UvY/R3rIQpOedg8r20TpyCD83fKHsXu3bNq6NaerLLcKEeZNQetla5lpls7AM44u2rPcnC4+JWyxh2hvm7OBE/lgKP//j/x0lLDOItevU49VkBSTa7uqAsqebmAJHeOAlieQzZfqL9CzObal8q9va0t1oasxEbwg9lCl16zXgbfbc3/4TwidbJrI3ml31zIX7dm9n7s2fA58Go4S9o2NX7qsyPeyZ0x+9/Rop437lxgfWXzcTw/elVZs7zBweajj0g+tWLrGJ2QrJLL9A1kLbvnbFIisZxn07pVTKjVvKCpdMmAXBcoK5FsiUTUU8+R0eAUQpzF1r16nDQ9G0RWvrcQIB1S+ZfLVjs1HC8rqY/p2f4YL37Jniho2aEMlzzWfR/VBa/m7AyLGIWDhdPXzwawRFbkgz/DHJVi//mDTuJYTDZRvkc1M0wj/GrRcmPIKlAk/Kbe06mhFHJAGbN6EZ/vBMTXvub7lteKww7MA2nOkiMxYrU9wv/9hTH/8hzx8W2XjGYCUNZ0eOf5g3iUd0RDe6dsVi7IW5D/lhMDjontFItmhsr165zPu2XeduxrmtyX/10vl2X1N/iSExiY80jRTEo8QNgxyICQ5dbE1SKPrLtSusFVFITXQqegJlE4D6EQEREIHsIVB6vrhk8evx1OfMiZJFM+O5MJXX8EnGj7ud2ET1gMkVoyMjgny+/GN3JjbWiiBnzJ39ZztjjCjAfCzWAVi5mgEGMvqniz6gFDfna1euuMoOd96bZAjKiz54kwvNJSjdEE3M7lUmhs/zm6/8p8euEHnondd+j0Bj0iBtIOtzoauBxSMSU6wmQax/UenOmflHa62DqMRsNquYWQdkNLDIQ3idc+1ZTBGXL1+0ZV26dDNsIjEK+Ovv/m3D58sRAU0f0RDEo4VzXn/ntd9dv57QAhGUSriOMgWhDcQuieEuoh5wkG8WzX3TVixSAN9nhjPqV5rLsNqqm0ExZ+Yf/JJrpKwqjQ+/K5gA50YCsskH4ZvORVZzNbBzXv9jckU0nBi6/qcoiwenbt16lbaFBNjyuLc94wRuGDOW8F/OCNMVfBm32AfWJg7nY5MRYMSMVB3ya3Uc7lXxhWNqpr8I3k6uXQwTFWXr+Jp612+aC3dsuWU7nUot2pgkeP+Nl9mVzr5MmO1g1ochMeMxLLysBpane/arv477TZj4g7Zk/rtGH81wlIkT9A52YMk9v2TeO5ih+ekpBgL6Xkd/G6Tie41OwVonmbcce8sMGX6/1cDyOZv1p/9AE+rWkwmqd1/7nX1d81nhe41ugpvfvp1wAx3NR8rN1h826wxsPCo/ZnrsYfSB+MQS8v/4/VlcawtifppJYnRSrgb23Rm/B4hNkz3dxDwxwpj9GPHyZL8g1I5oYKktSw2sgGEr7wkwpWRnahE++Wq7Glje//PemeG5xByuXDLPfu6RWJA97B1FgvheufGBDawekWBZ+P7rdh4Ro2a3hlZWJCVfIs8Cnfhup1RLufFJWeGSCZ2IqQGGwLY3y000evIV5nnnqbcaWB5MvteuLwJDHsMF68wUOZbNDBjCII4iBJJg8dy3TLKQv+tXLTUfUN4z2J9yrauBRfwmgf/ycNmGe+mDWa/YwQuiC8MBFIhmxIHhiH8vXFME70M+6OZ558bGhoN5jmGjJnCt0cDCAVGWHPxV8sdwmyGlm9loBD9MOtwhj0nPowRYu0YBsQfdN2M0yoWl1cAyN4AXb3ciwV9cSEziI032n8AcgSLAwhwVL0lXA4uDb2S5kAroVBwEZAkbBzRdIgIikGICly+UfPRywejpBXUbRFlS6bqPS4/G7EbHkzk+/01MSUXATWDFuJIKVZR7FomQH75eyDo2pUnwxcolxaeOMzTCbNDqHbBXxboQazKzVoWUnqvCK2OLRkyf8dIvcO+FZINoTgXMKWY1MWxB9rL7CdhLEElZ9ovYgfi1+YvVdnmRTcDHGIM17AdZBm7MSDlF9fCX9PXeXSs/mYcwahPbAApBPBv0HXw3BrlmZtiewvoVhVqgwYVtNfQQq+0l/gBS0cw//Pugu0ey4Q+qYZsAAwfWImHp4G8IaTBeGDtlOgOPA3spP8DpMOa6yxe+zy80sDFhh9aympT/2FIqoNoyoXHjVrHmFTfPVYTI+c1XfjV60qPtOnVHRjTRZL5t4xr4IwqbGNvRFdfd/M+SqNd++y/Dx0xGQLR3Diot1GGsabKrC29ewMik5Iae1Abcs4StRsw2wSSo9K7AfvPwgf0Dh93XuUdfe5txLcP7zV+sQpK2UqYt0RYRqY2290tKAroeCZs9Nxh2MrVgNpklZ+4SJ/+wxlJhPJr1GTgUq3BTYfdam4kJoHEYNnKCCRtJ1JMgnA/dyo+LxXO5e2hbbSItHIvLTUzYvnBs37kJwptZUlavEgY/Zf8rbmz38nnvvNajz0AstY2TgfJTNwm7KTE8x/zELOXDKopdudyzgWFKZCx0cP+eURMfCdSAM/BY99kSbh4PE5ubZZLSBw2bFBRVOB9ghaMdFFEH3jmo8gON9+3zZQO2ziZgO8s2wZMgdw71vWbWp+KLEN7dSf9e8y1Gp4DJ5ND7xrM02KpQuf34IOIxnBsYdYb/Ziv/PP3nnYOH9x18j6uY43XBdAjfF2y4PFfZh7TsTRL0MvGkN4d8nK1HQv8sqXvJzfwrvmLu2fjEEpQ1C96duXfn9v53DWfK1s0QfROy2bZN6+yjas9mTzfxMeLT33vAXVh92iVT2Ldiy7x149onXvixqbNF5zkknrcrE+e4pET1YxtIDuhwN6z5FD420g1gUj3rT/+Jqgjv/+aV6H4V4pZt4gBrm2YDtp5MUc+dXbZJF6Ia3zgsIl/+5X83GrFyeW89K9ORTxBZ/d+++G6neKXcCnGx4i1hm+AJxCFlhUsm5E/beQmwMIuvcKBzdhChYsMGM9IefZ98+BbaRoYYTITD2dSZmwq7B7v9HaVYPa9JYL+M169d/3D2X/oMuAsRC7td22Ss7Nd+tjhkr9dw2QbT1zdf/dWoCY+2advOrmZDaMREGqdnrIEzBflfyCi7ufa+cVNa3d7OlcyxEea2Z9LCLMa39SRg22ID9ixTWSzU494jhtbh4/69mX+wZ00AM9WZL/181KSpaDbtgkKbhnc4/BkPeqbKbALbBPuVsafcQHwjTTcHpqx47WPHY6Z5zCncNH2xcinPCx3sJiZspTL/s2lTItuXr0W8OWiypxQo6NOnTxq8HgSCzlS58hka2B1Jj1T/Jh1pYIaZ4hxHuVOmTNlf/hPYkODImrULcU1Q66bGzZ+sdPeG0qIA5Zo/ZcZjMFTBQSpry84Un0SjkfT6MABr1qJMz1t8+gRK2PD8mdPmixq+oJg07IlUt379a1evYq1mv7jhOaOKQhZhXFdYvcaVSxeR112rhPBrozmLENOgUWMmnPnwnz9bzNooj/DnyYT6YEnqkW+ItGrNSO26c8i9iK3kxiKjGS/93JNtTIfINADBFLf45PFAFbbNDW3jCz/5Z3P4q//538z4kCazzwB9wRgA3Wt4r9ms4ghEdVfUqkVz6tSph3LwzKkT8Vk2xVQ3+qpO3bKtkK9du2ZtH6LPAQGd9xXdTVX9cqTJB7+9RmpHCsfQO1Lm0fCJdG2q46NpZkgdeEaYh4CPX5lur2ITG0wkOMQ6ZuUnH9n4aAI8sG07dObNAENeCCeOHcGIyT/aiSarkDTRP2hkwvJkMxfCqMmonLjTGjVu0rhZi8uXLvGgoSMOKSsNp9qX/xQVFe3YscNfXBxfYX8mkWL0va5y32vekHwjWCl85cqlU8ePBepe/d3NPY9ZaIPGTaoXVmcOsvjUySgv9GeVnpj4xBLqhrshPq8o7Hj/8OVCexVNhZMuVsXXTcgAeGxEesSRN2JPpA9ZSIswXWzSvGVhQWG51HQ6RG/iZkK5fHxJDK5AjW1Mr1w355jAuhdGH0Z9jN4qsNo2k/huJzoxpVIucGKSsqKUTBAjMWrG0QQvN24hvr84qcDvc5Q3A89O85atQccERoicYNn6A+YFBT0GKdEPgsJlG3JDuYwAQ3P4asf0aGDsCRMuQRqJ8oXgb1T0MQBECsILAb4guDGBD34cL4QPYaLP36SM6cs17qHpLNHjQtwmYLRrcuAOadayVWlJafFpxqrxvG1irXNI+nApKOTCBE+lVL4ydZMlbIJ9pMtFQARSSeDq5ZJF5aulGrcobNejtPntBfUaVmOB+YUzpUf2le7dEr05RiprGW3eaN/8dqnRXhxFOuwC2FgzioRlSdz1d5EuIQ3LtE+diHQ+OB6BBukqegErOJfIscjUSFr8Rk5yyxnq49HAchrHrM/84B9MOhYfMVN9yzXVyrbnMluNEV/poj/Ptf5DZEPrNcJ/ttIYmoysxm+lKRNMENVdceWKXQOYYHFRXo6EGp/Eb/JHZx2utsbCqNedg01i3BaH1CoaPiGXp/RUpc0ML73SmRJMZY0Glgdq64bPw3Pzn2X+AHMPf3xyYxJ80LjTGHXwm9xa5Utu+l7H0tNJ/17zYMZx/3PP82zyG0vdM5k2PrGEGjOnEse0SpZ0EzJAgtIjUtBhZxuiKLuQcl2nQP6r4rjlTCYxgfWXG01MNGq1+G6nVEu5wIlJyopSMkF56nc4EA1Jk4Yp8Li9BpkcWEMTjU9/T5XCZRv6Im7ZGMEyEdnSU89KDwGIo+pKkyWYIPGRJurspE+QJ9ionLxcStic7FY1SgRyjkDx8ZLi47TKuxwi5xqqBqWHAALugb27cP5Icawkwj8AS49PHjvKiJR59U7depcvyWliKhOumEtPhVVKighgQDFywsNmTzaG6PglSFFBVTpbLEbHPfSEacK+XdujnwKp0q1W5eMkoO91nOB0mQiIgAiIgAiIQO4TkBI29/tYLRQBERABEfATWLNiMfuzo3JlidDICWVuB7A+QA1Xv0Ej6wmXOfY1KxbhX8x/uWKqOoExDz7OXiVt2nawjilWLVkQvnSxqjc51vpjD46PMzxpNG91m7mWJ+KzGB0RxFqo0ouACIiACIiACIiACIhArhKQEjZXe1btEgEREAERCCOAJezbr/0Wj0h2GzH8cPFrr2EN1II5r+/evtnGKJBLBNp36m73+6JdbCHF7hS51MDE21KzVm2swm0+LHNj64a4l/7ZfBQQAREQAREQAREQAREQgfwkICVsfva7Wi0CIiACIlCNvXpnvvSLvoPvbtm6LUaR7P3KbvLsnXXsyCH2fsVRbCL+s+Lje+Xy5b27thcUsJcoG1/J/UZ8FKO6il2+0LOfP3/u5LHDbNGbBo+lUVUrmxLhnQPTYNwCshsMHjzWr16WoF/CbGpctf17drKBIFU6fy752yRmVUtVGREQAREQAREQARFwCRw7crDe7gbEJL71hZutwtEQkBI2GkpKIwIiIAIikJsE2NBg/apl2dM29kd6/42Xs6c+OVyT1377rzncuqQ07Wzx6V//r39OSlZZmMknH76VhbVSlURABERABERABEQg1QQ2rlnBb6pLUf6BBAoDYxUpAiIgAiIgAiIgAiIgAiIgAiIgAiIgAiIgAiIgAiKQFAJSwiYFozIRAREQAREQAREQAREQAREQAREQAREQAREQAREQgWACUsIGc1GsCIiACIiACIiACIiACIiACIiACIiACIiACIiACCSFgJSwScGoTERABERABERABERABERABERABERABERABERABEQgmICUsMFcFCsCIiACIiACIiACIiACIiACIiACIiACIiACIiACSSEgJWxSMCoTERABERABERABERABERABERABERABERABERABEQgmICVsMBfFioAIiIAIiIAIiIAIiIAIiIAIiIAIiIAIiIAIiEBSCEgJmxSMykQEREAEREAEREAEREAEREAEREAEREAEREAEREAEggnUCI5WrAiIgAikgEDjxo3bt2+fgoyVpQiIQDwEevfuzSO5f//+rVu3xnO9rhEBEUgZAb6YKcu78oz1va6ckVKIgAiIgAiIgAikhkBmpaDUtOlGrlLCphSvMhcBEbiFAC/THH6f3tJUHYhAVSDQvXv3pk2b1qlT59y5c1WhvqqjCIhAmgjoe50m0CpGBERABERABEQgnwhICZtPva22ikBGCRQVFWW0fBUuAiLgJdCzZ0+UsBcuXNDj6UWjYxHIDgLHjx9Pf0X0Qkg/c5UoAiIgAiIgAiLgIZARKchTh6QfSgmbdKTKUAREIJjAjh07gk8oVgREIEMELl68SMn81eOZoR5QsSKQjQT0QsjGXlGdREAEREAEREAEqj4BbcxV9ftQLRABERABERABERABERABERABERABERABERABEchiAlLCZnHnqGoiIAI+ApnyUlez/MdXnZRH5Fu56t+U31LlBWTqvlL/qn9TRyBTd3Wmyk0dyfCc9RSH80nW2UzdV+rfZPVgeD7q33A+yTqbKc6ZKlfPb7LunPB81L/hfJJ1NlOck1X/kHykhA2Bo1MiIAIiIAIiIAIiIAIiIAIiIAIiIAIiIAIiIAIikCgBKWETJajrRUAEREAEROD/b+8+gKW48nuPc+FeuOScc84ZAQJEFFFCiAWhtFpptcH2ru21veX3nl31nt+relV2le1dvy3v2pZW2tVKq5yRQICQCEIiB5GTyIic84V73+9y4ND09PTt6ckz31sUdab7nNOnP6dnuuc/p08jgAACCCCAAAIIIIAAAggggICPAEFYHxxWIYAAAggggAACCCCAAAIIIIAAAggggAAC8QoQhI1XkPIIIIAAAggggAACCCCAAAIIIIAAAggggICPAEFYHxxWIYAAAggggAACCCCAAAIIIIAAAggggAAC8QoQhI1XkPIIIIAAAggggAACCCCAAAIIIIAAAggggICPAEFYHxxWIYAAAggggAACCCCAAAIIIIAAAggggAAC8QoQhI1XkPIIIIAAAggggAACCCCAAAIIIIAAAggggICPAEFYHxxWIYAAAggggAACCCCAAAIIIIAAAggggAAC8QoQhI1XkPIIIIAAAggggAACCCCAAAIIIIAAAggggICPAEFYHxxWIYAAAggggAACCCCAAAIIIIAAAggggAAC8QoQhI1XkPIIIIAAAggggAACCCCAAAIIIIAAAggggICPAEFYHxxWIYAAAggggAACCCCAAAIIIIAAAggggAAC8QoUFhUVmTpsIt4qYyzPdmMEC5kd55BwMRbDOUawkNlxDgkXYzGcYwQLmT2NzgUFBWq0/k9lG1K5LWeXsF2nRvLS6XI2e5SurbPd5B1RzppxdmokL41z8mydNePs1EheGufk2Tprxtmpkbw0zsmzddacVGdGwjqpSSOAAAIIIIAAAggggAACCCCAAAIIIIAAAgkWKCwpKTFRXiUSXHdF1aVru6Zd+bO/6XJO13bp34reeYlZT/8mxrGiWtLlnK7tGg8+nys6LuJdb/u3rKxMden/VJqncltGyu5vvHAxls+37Rqe1PcvvRzjgZmA7Knv5Xx7N6Vrf9P1Lk7X/ubbdunfBHz8BagiXccV/RugcxKQhf5NAGKAKtLlnILtMhI2QP+TBQEEEEAAAQQQQAABBBBAAAEEEEAAAQQQCCtAEDasHOUQQAABBBBAAAEEEEAAAQQQQAABBBBAAIEAAgRhAyCRBQEEEEAAAQQQQAABBBBAAAEEEEAAAQQQCCtAEDasHOUQQAABBBBAAAEEEEAAAQQQQAABBBBAAIEAAgRhAyCRBQEEEEAAAQQQQAABBBBAAAEEEEAAAQQQCCtAEDasHOUQQAABBBBAAAEEEEAAAQQQQAABBBBAAIEAAgRhAyCRBQEEEEAAAQQQQAABBBBAAAEEEEAAAQQQCCtAEDasHOUQQAABBBBAAAEEEEAAAQQQQAABBBBAAIEAAgRhAyCRBQEEEEAAgdwVqFyZi4Hc7V32DAEEEEAAAQQQQAABBDJDgO9dmdEPtAIBBBBAAIGUC9y4cUPbrFWrVsq3zAYRQAABBBBAAAEEEEAAgfwSIAibX/3N3iKAAAIIIGAFqlSponT9+vUZDGtNSCCAAAIIIIAAAggggAACyRAgCJsMVepEAAEEEEAgCwRq166tVhYVFTVv3jwLmksTEUAAAQQQQAABBBBAAIGsFSAIm7VdR8MRQAABBBCIT6BevXqmgnbt2sVXE6URQAABBBBAAAEEEEAAAQT8BAjC+umwDgEEEEAAgVwVKC4urlat2vXr17WDBGFztZfZLwQQQAABBBBAAAEEEMgQAYKwGdIRNAMBBBBAAIGUCmgqWG3v7Nmz+p8gbErp2RgCCCCAAAIIIIAAAgjknwBB2Pzrc/YYAQQQQACBSpXMXAQnT568evVqo0aNatWqhQoCCCCAAAIIIIAAAggggECSBAjCJgmWahFAAAEEEMhogbp166p9p0+f3r9/f0FBQdu2bTO6uTQOAQQQQAABBBBAAAEEEMhmAYKw2dx7tB0BBBBAAIGwAn369FFRBWH37t2rhHkZtjLKIYAAAggggAACCCCAAAII+AkQhPXTYR0CCCCAAAI5KTBw4MAePXpcunTpq6++Wr58+Y0bNwYNGtSwYcOc3Fl2CgEEEEAAAQQQQAABBBBIuwBB2LR3AQ1AAAEEEEAgpQJ16tSZNm2aNvnee+/pwVyaFnb16tVVqlSZMGFCStvBxhBAAAEEEEAAAQQQQACBvBEgCJs3Xc2OIoAAAgggcFNg5syZ1atX37x586pVqwzJ/PnzGQzL0YEAAggggAACCCCAAAIIJE+AIGzybKkZAQQQQACBjBO45557unfvfvny5TfffNM2jsGwloIEAggggAACCCCAAAIIIJAMAYKwyVClTgQQQAABBDJRoH79+tOnT1fLPvjgA01E4GyiHQzbrFkz53LSCCCAAAIIIIAAAggggAAC8QsQhI3fkBoQQAABBBDIAgGNgf3bv/3bGjVqbN26dc2aNa4W28GwP//5zydPnly1alVXBl4igAACCCCAAAIIIIAAAgiEFigMXZKCCCCAAAIIIJAVAnXr1p01a1bPnj3VWk0F+9Zbb3k2e/bs2YWFhQMHDpw4ceLQoUM/+ugjPbCrrKzMMzMLEUAAAQQQQAABBBBAAAEEggsQhA1uRU4EEEAAAQSyT0ADYDUFgQbAXrp06b333tPDuIqKijx348KFCy+//PIXX3yh/G3atHnyySfvu+8+FdmzZ49nfhYigAACCCCAAAIIIIAAAggEFCAIGxCKbAgggAACCGSHQHFxcb3bf3379tVjuNRuDYDVk7hc88B67o9Crr/85S8HDRr04IMPKhT7s5/9bN26ddu2bTt1+4+xsZ5uLEQAAQQQQAABBBBAAAEEfAQIwvrgsAoBBCoWKCgoaHD7T8/8qbhAfDmqVaumCq5evRpfNTGXrly5fAbt0tLSmEvGVyDftkv/hj5e9C5U3FXTDuh/w2irsgNg7ZIKEwqzasDshg0bxo0bN3bs2P43/2yp06dP347HnoopIEv/WsOkJtL1uZGu/jWY6drrNG73zJkzx48fN2/GmN6JST38qBwBBBBAAAEEEEAgmgBB2GgyLEcAAW+Bpk2b9uvXr0mTJgq5mj/vfCxFAIE0CehXCkVnNOhV/584cWLFihVBBsBGNvbatWtz585dvnz54MGDGzVqZH5tuf2+r9+xY8fIIixBAIG0CNifRvSWX79+/dGjR9PSDDaKAAIIIIAAAggg4CNAENYHh1UIIHBHQCNee/TooQkiu3XrdmfpzZT97qfxOMkejJOukVZpHOsk4/wZgUv/ut5cwV8q3mr/rly5ErxghTn1Bp83b57NFs/gd/rXMiY1ka7Pq3T1r8FM116na7tVqlQx49/1v+unkcmTJ2v+kKVLl27ZsiXZJ+WkHslUjgACCCCAAAII5JgAQdgc61B2B4HEC1SvXn3IkCEKvzZs2FC1a3DcmjVrDhw4oJCruREyld/xdLe12hBuWF88NOZBRiUlJfFUEqJsvm2X/g1xkKS4iN7vJ2/+hdgu/RsCLUSRdH1upKt/DVG69joTtuv8aaRdu3YDBw7Uz6X60ztVoViNhb98+XKIA4kiCCCAAAIIIIAAAokVIAibWE9qQyCnBGrVqjVp0iTdiVy1alXtmPPrXLq+duaULzuDAAIIIIBA3ALOn0YUcv3www/tT6cPP/zwlClTVq5c+cknn1y4cCHuTVEBAggggAACCCCAQHgBgrDh7SiJQG4LaGTN008/3blzZ+0mNzbmdl+zdwgggAACOSOgca+LFi1avHixnURoxIgRms/9N7/5TSrvXMkZT3YEAQQQQAABBBBIlABB2ERJUg8CuSYwceJERWDPnTunr21HjhzJtd1jfxBAAAEEEMhdAcVbN9/8a9as2U9+8hOd0HVa13jY3N1j9gwBBBBAAAEEEMh0gcqZ3kDahwAC6RDQt7UJEyboeVAvv/wyEdh09ADbRAABBBBAIAECOonrVK4Tuk7r5u6WBFRKFQgggAACCCCAAAKxCxCEjd2MEgjkukCdOnWeeuopPfF5/vz5O3fuzPXdZf8QQAABBBDIZQGdynVC12ldJ3ed4nN5V9k3BBBAAAEEEEAggwUIwmZw59A0BNIkMHbsWH1J03e2efPmpakJbBYBBBBAAAEEEiagE7pO6zq56xSfsEqpCAEEEEAAAQQQQCAWgULziHMVsYlYiicgL9tNAGKAKnAOgJSALDngrOdx9evXTxb6wlZYWMG00TmwvzH1OvsbE1fozDiHpoupIM4xcYXOjHNouhAF0fZB02ld0xHoFD9nzpw4n9CFs49zAlfhnEBMn6pw9sFJ4CqcE4jpUxXOPjgJXIVzAjF9qspJZ0bC+vQ4qxDIR4E2bdrUq1fvzJkz+/fvz8f9Z58RQAABBBDIRQGd1nVy1yleJ/pc3D/2CQEEEEAAAQQQyHSBwpKSEhNdViLFjU3Xds1u5s/+pss5Xdulf+N8I/fq1Us1rF+//tq1az5V0b8+OAlclS7ndG3X0PH5nMBDyLMq+teTJeEL0+Wcru0awNS/f81207XX2bVdndxHjx6tE/2uXbviOeBT38vZ5RyPbXqPZ7N1+jf+HvSvIV3HM/3r3y+JWkv/JkrSv550Oadru0aDz2f/oyL+tSnoX0bCxt9N1IBA7ghoLoK+fftqf/Q9LXf2ij1BAAEEEEAAgdsnd53odbrHAwEEEEAAAQQQQCDFAgRhUwzO5hDIaIG2bdvWr1//9OnT+/bty+iG0jgEEEAAAQQQiFFAJ3ed4nWi1+k+xqJkRwABBBBAAAEEEIhXgCBsvIKURyCXBPTIDu3Oxo0b43xkRy6ZsC8IIIAAAgjkhoBO7jrFa1/M6T43doq9QAABBBBAAAEEskWAIGy29BTtRCAVAlWqVNFmLl26lIqNsQ0EEEAAAQQQSK2AOcWb031qt8zWEEAAAQQQQACBfBcgCJvvRwD7jwACCCCAAAIIIIAAAggggAACCCCAAAJJFSAIm1ReKkcAAQQQQAABBBBAAAEEEEAAAQQQQACBfBcgCJvvRwD7jwACCCCAAAIIIIAAAggggAACCCCAAAJJFSAIm1ReKkcAAQQQQAABBBBAAAEEEEAAAQQQQACBfBcgCJvvRwD7jwACCCCAAAIIIIAAAggggAACCCCAAAJJFSAIm1ReKkcAAQQQQAABBBBAAAEEEEAAAQQQQACBfBcgCJvvRwD7jwACCCCAAAIIIIAAAggggAACCCCAAAJJFSAIm1ReKkcAAQQQQAABBBBAAAEEEEAAAQQQQACBfBcgCJvvRwD7jwACCCCAAAIIIIAAAggggAACCCCAAAJJFSAIm1ReKkcAAQQQQAABBBBAAAEEEEAAAQQQQACBfBcozHcA9h+BPBMYPXp0cXFxtJ3u1KmTVun/SZMmRcuj5VeuXFm2bJlPBlYhgAACCCCAQOoF/M/yak+QE73O8osWLUp949kiAggggAACCCCQ2wIEYXO7f9k7BNwCNWvWHD9+vHvp3a/1Dc18Sbt78Z1XCxYsuPOCFAIIIIAAAghkhkCQs7xa6n+i5yyfGZ1JKxBAAAEEEEAg1wSYjiDXepT9QcBf4PPPP9cIF/88/mtVXJX452EtAggggAACCKRegLN86s3ZIgIIIIAAAgggEFCAIGxAKLIhkCMCly5dWrp0aTw7o+KqJJ4aKIsAAggggAACyRDgLJ8MVepEAAEEEEAAAQQSIkAQNiGMVIJANgnEM0yGYbDZ1NO0FQEEEEAg/wQ4y+dfn7PHCCCAAAIIIJAdAgRhs6OfaCUCCRSIZ5gMw2AT2BFUhQACCCCAQMIFOMsnnJQKEUAAAQQQQACBhAgQhE0II5UgkGUC4YbJMAw2y7qZ5iKAAAII5KUAZ/m87HZ2GgEEEEAAAQQyXYAgbKb3EO1DIBkC4YbJMAw2GX1BnQgggAACCCRWgLN8Yj2pDQEEEEAAAQQQSIgAQdiEMFIJAtknEOswGYbBZl8f02IEEEAAgXwV4Cyfrz3PfiOAAAIIIIBA5goQhM3cvqFlCCRVINZhMgyDTWp3UDkCCCCAAAIJFOAsn0BMqkIAAQQQQAABBBIiQBA2IYxUgkBWCgQfJsMw2KzsYBqNAAIIIJDHApzl87jz2XUEEEAAAQQQyEQBgrCZ2Cu0CYHUCAQfJsMw2NT0CFtBAAEEEEAgUQKc5RMlST0IIIAAAggggEBCBAjCJoSRShDIVoEgw2QYBputvUu7EUAAAQTyW4CzfH73P3uPAAIIIIAAApklQBA2s/qD1iCQYoEgw2QYBpviTmFzCCCAAAIIJESAs3xCGKkEAQQQQAABBBBIiABB2IQwUgkCWSzgP0yGYbBZ3LU0HQEEEEAg7wU4y+f9IQAAAggggAACCGSKAEHYTOkJ2oFAugT8h8kwDDZd/cJ2EUAAAQQQiF+As3z8htSAAAIIIIAAAggkRIAgbEIYqQSB7BaINkyGYbDZ3a+0HgEEEEAAgUqVOMtzFCCAAAIIIIAAApkgQBA2E3qBNiCQZoFow2QYBpvmjmHzCCCAAAIIxC3AWT5uQipAAAEEEEAAAQQSIEAQNgGIVIFADghEDpNhGGwOdCu7gAACCCCAgAQ4y3MYIIAAAggggAACaRcgCJv2LqABCGSEQOQwGYbBZkTH0AgEEEAAAQTiFuAsHzchFSCAAAIIIIAAAvEKEISNV5DyCOSMgHOYDMNgc6Zb2REEEEAAAQQkwFmewwABBBBAAAEEEEivAEHY9PqzdQQySMA5TIZhsBnUMTQFAQQQQACBuAU4y8dNSAUIIIAAAggggEBcAgRh4+KjMAI5JmCGyTAMNse6ld1BAAEEEEBAApzlOQwQQAABBBBAAIE0ChQWFRWZzdtEilvDdlMDjjPOQQRKSkqWLVumnEoEOWaC5Amy3VjzsN1YxcLlxzmcW6ylcI5VLFx+nMO5xVoqXc6mnenaerZsN9azfLTez5b9jdb+WJezv7GKhcuPczi3WEvhHKtYuPw4h3OLtRTOsYqFy49zODfPUoWeS1mIAAJ5K7BkyZK83Xd2HAEEEEAAgdwW4Cyf2/3L3iGAAAIIIIBAJgsU2vFuSqSmoVOnTk3NhtgKAggggAACuSqwY8eO7du3h9s782t2iPM+Z/Bw4JRCAAEEEEAg4QLhrgRCnP3jbHnoqw62G0KA/g2BFlORdB3PppH0b0ydFSJzCvo3PSNhz978CyFCEQQQQAABBPJcoO7Nv3QhcAZPlzzbRQABBBBAwAik90qAXkAAAQQQCC2QtiDs/v37QzeagggggAACCOStQJs2bfTtK127ryAsZ/B04bNdBBBAAAEEJJDeKwG6AAEEEEAgtEDl0CUpiAACCCCAAAIIIIAAAggggAACCCCAAAIIIFChAEHYConIgAACCCCAAAIIIIAAAggggAACCCCAAAIIhBcgCBvejpIIIIAAAggggAACCCCAAAIIIIAAAggggECFAgRhKyQiAwIIIIAAAggggAACCCCAAAIIIIAAAgggEF6AIGx4O0oigAACCCCAAAIIIIAAAggggAACCCCAAAIVChCErZCIDAgggAACCCCAAAIIIIAAAggggAACCCCAQHgBgrDh7SiJAAIIIIAAAggggAACCCCAAAIIIIAAAghUKEAQtkIiMiCAAAIIIIAAAggggAACCCCAAAIIIIAAAuEFCMKGt6MkAggggAACCCCAAAIIIIAAAggggAACCCBQoQBB2AqJyIAAAggggAACCCCAAAIIIIAAAggggAACCIQXIAgb3o6SCCCAAAIIIIAAAggggAACCCCAAAIIIIBAhQKFFebIlAwFlQv6jSpo1t6jPddLyr5eUnZ0n8cqFiGAAAIIIIBAegU4g6fXn60jgAACCCCAAAIIIIBABghkQxC2SmHlcU9UqhK9qYVFBQPGFVSqVLZrfdnOtRmgShMQSLNAw8bNatauo0acPPbtxQvn09yaJG++XoNG3fsMOnPqxI4t629cv57krSW3+pZtOlQpLP+sO7T/m8zfl7w6zIJ3fK3adRs0bqr8F86fPXX8aPCCuZmTM3hu9it7lUSBvPpozfYzeOUqVTp1692oaYttG9e4PvAz54QeT0vy6mhM1Lu6qKhq89btVNv16yWH9+9JVLXUgwACCCCQGwLRI5uZsX8FPe8taNM9YFsKOvXTv9J5L1UqvRGwCNkQyEmBYWOntOvUTbu2eN4HX69elpP7aHZKV7qznv3LatWK9VKRr2ULP86EnS0oKOjQpWezVm3r1K1fu279stLSCxfOnT55bNfWjSeOHvZp4dTHntUeKcOrz/3i5PEjPjkzYVVCDrOCgsrtOndr3qqdrOrUq19WVunSxfPnzpzet3vbwX27S29k34d5l579ho97QB20e9vGOe+8nAk9la42cAZPlzzbzWqBhHy0ZoVAJpzBGzZpVrNW+Y/WMf0dPbT/6tUrKjJg6Kh7R09Sot89I1781f+9cvmSrSdzTujxtCQFR2PuXQbocnTa4z/UkaDj4flf/G97SJBAAAEEEEBAAhkdhC0Y9UhBjdqx9lPliU+XLXmn7OLZWAuSHwEEsk5AYw1MBFYtV9w5E4KwvQfeq29ldeo1iMS8Z/i4o4f3z3nnlQvnzkSuzbclClX3Hjis/5D7PK36DR5x6cL5eR+8dnDvrnyTyY395QyeG/3IXiCQPIFMOIMrhNq+c49Y93H2Gy/u3bVNpdp1ujVSRHextGrXadfWr2OtKp/zcxmQz73PviOAAAJ5K5C5Qdhw399MRxaMnFH22euVrt75OTpvO5gdRyDbBabO+n6TFq21F8sXfbJ5/UrX7nx7YO/VK5erFVfX8r07t7rWtmjdfvKMp7RQgxH++F//4lqb8Je6LXHcA4906z3Ap+amLdo8+uxfzn3n5cMH8voOtcLCognTHuvYrbePVY1atR9+4ocrlixYveyzMg2R5S97BDiDZ09f0VIEkiiQRWfwcAp7d25p3qqtymoGIX4yjMmQy4CYuMiMAAIIIJAzAhkahC2/hzH2MbDOXqk89rHSuS86l5BGAIFsFKhes1aNmrXU8qKq1SLbX1Jy7Y0Xf9WlRz/dwb5zy3pXBhUxZQtvTrTqWpvwlw/M+F67znemTzmwZ+fubZvOnT1VXL1Gk+atW7Xt2Khpc21UTZr+3T9Z/Ml7m9atSHgbsqLCKlUKH37yx+aLq2mwhhQphi4rjYvRwNjW7TtraJLSuktx6KiJzVq2/fjtl7JxaoKs6I6EN5IzeMJJqRCBLBXI/DN4+QzsEfPeaHqcJs1bybysrHT39s2R+OfP3brfbu2KJWfPnKrfsMnOLRuccxFEFmGJU4DLAKcGaQQQQACBvBLIyCBslcLg88D69FbB6Flli970ycAqBBDIAYGzp0+uWrYw7Tuih4PZCOzlSxfnvPMH59MYtm9ap3jioOFjhoycUB5ZrFx51KTphw/sPXXiaNpbnvoGyMFGYNV9Ghd8/O6pcr9e/WWDRk0mPvykCVtrookBQ0au/vLz1DeVLcYswBk8ZjIKIJC/Amk/g69bviRSv2PXXlNmfk/Lr1y+rDNUZAa7RL8OKvxqX5IIKMBlQEAosiGAAAII5J5A5QzcpcrjnkhIqwqq16pU5DF0LiGVUwkCCCBgBTTWdcT95c9i0t+Vyxff+cN/OCOwZrkG1Kz6YuHsN35nXioOO3zsFJPOq//1wIpBw8aaXdbDyt5+6TeuCKxZderEsfdffc4+nWzQiHF28t+84sq6neUMnnVdRoMRQACBVApwGZBKbbaFAAIIIJBpApk3EragcqUqUVtVVnLt9OIPym5cdzrW7DGouHVn5xKbrjxyRunCV+3LgIm2Hbs2aVZ+F5LuUdK8jbXq1GvdvlOb9l1q1q5z6vhRPbDbOe++7pzVFJANGjXV2pPHjhw5tP/w/m/OnT3ts62WbTo0btaiQeNm9Rs2vnTxwvEjh/RPBTW1ZWQpV2PqNWisxui+5pq16x7at/urRZ84i+ixAHrIuG6hatKspR72eubU8RPHvj327cFvD+5zZospXa9Bo669B9Sr36hWnboa36fa9O/o4QOerbU16z6jTt17qzF6NHxxcfWLF3Tn1qlvtm+ONg+mnpDbb/B9Kq5A1ZqvFmmiKD2uoXW7Tnq+vJ4s//ncd0+fPG4rV6K4es0efQfpmbby1zxc58+e/vbQ/h2b1l2/XuLMFlO6aYvWnXv0rVu/YY0atXRzmei2fb1aHaSbx3v2G6Kq9CTcr1cvc9bZa8DQ6tVrasnWjWsunj+rW85bt+vYsm3HwqKiDauWOY8T5alRs3ardh0bNm6mZletWk3RpWM3u/7E0W+ddZq0C0QTYqojuvTs37Bx01q16144f/bUyWNb16/yP9JstSrSsm0HTZCqC18dwzoejhzap120GWJN6M47Hfayql2nnu6/E9f+b7bv273dc+JOZe50c+pPtXb7prWFRVU1ClKNadG63fXr1zUUVEeUrFxlNXdqm/bl72ttwjRPwyHFYtKb1i3X0WjSGoKqHVR659YNdqf0aCwdhNpfk6eoalU9FMukJf/NjvK7C9UdzVu2U+LSxfORs82azOqpvveMMOnN61foeDBp1//aQR2TZuGyz+YqtujKYF/u211+370ZM9u6Q2dpXC+5Zte6Emp/y9Yd1Hc6CNVtmgD324N77Y47M3ftNUC3T2rJ7u0bdew6V5m0DssWrdop/e2hfc5568L1TmT9kUv0MaVPALN89/ZNdsxvn0HDNHmulqvHF3z4pvAjy5ol2tNFc9+b8b0/00t1ffsuPbZtXGszx/rZ2LZDV/Pu00fZmZMn9O47cfSwnpMWeSOqNuGqXIOXu/Tsp92p36iJPpE0dOvmiWCjPq9se6IlqlYr1qHeok2HZi1a6/jR8Ge9+/SZ7zrgoxXPsuWcwe/uMNeBxBnc8HAG5wxuT2SZcAa/+10b2ytdhXbt2V9lLl44t2XDqtgKV6oU09WUrTym60lbyiZ0RdGtzyCdEOvWb6CO0IWTrs08r0VtEf9ErO/ofLsM0OWovprpWs5cFB05uO/bQ3uPHjqgCbX8YVmLAAIIIJCTAlHDnena24J+o6Nt+urhPRc2Lo9ce3HL6muH99QZMiFyVaWqxR4LK1rUuXvf7n0HKZeeBqM5Jac++ozuHjaFFD/Vo88VbJr33h8Vkht83/hBw8dWuRlQUAbFlbRWIZUPXnvBM9qoQO3YKTMVS3I2wcSn9OVcz1pVNMq5SmlnY+rUqz/+ocdshpJrV21aCUXEpsz4nrl71yxv0aa9SShyoQkor92d31nWM63Ywf0PzurQtacCEDaDbtFSuuTatfkfvGYiWXaVTWiCzpETp1WvcSsmZZf3HzJSQ97mv/9qZJCouEaNoaMnmpwb13w14+mf6OrQFtQwQ5tWYwaPHK8QmwK1dqESPfoNHjZm8uJ574e4L0yXR5NnfNf5eFwFf7tW6q/OXfbpR4rWmLbpUtUVhB1472hdf2vrR789MGTk+B5977FN0kFi00roa8bICQ+J1C5UUMykNTHoornvuiIyTpB1K5Zql/UQebXTFldCwwk3rPxi2Wcfu8o68yit/XrgkadtJ+ooVexYy5cu+HD9yi9cmSt86XlUqFTfe4Yr8jj33Vf0U4SrEkW3DaCuOw/s2THz6Z/qWLV5zNvh8KBhn374hoK5dnmbDp01Gah9qYTmCdU/s2Tvrq32K5w23bhZSy0/feq4DcIOGzvF7rJWlU8tevsA27Njizl069RtYBbqdsJd2zZ6/q6gwJ/Jo1i/q/dNS8z/HW6+L8rboOD4htXOVZHpFUsXmCCsOlThuf3f7IjMoyXDxz2g49yuKj9gho7Sx8t7rz4vSbvcJPTJY27w168dke8v5emgt+XN3zl0p78zCBuud1xbj3ypHZwy4ylzxOrnovWrlpo86oiOXco/Q/S3Y/N6xUBNOtr/+iCVj+lf/e8Mwgb/bFRAf/xDj+pHL7sVfREyH/JqwIev/06Dl+0qk3BWrk9aFW/YpHw+X/On41BvojOjTsx55+WTxzx+RLmdsZI+Hx55+qd6wphdol96lNZkwXPffdn/nWuLZFGCM7irs5wHEmdw4XAGt0cIZ3BDkQlncNspIRK6WDUXCfqhMaYgbIirKdO8WK8nXTslcF1cOS9HlUEXG7oK0mVYrGHBEO/ofLsM0JfEh5/4kf1GJm1z3auBMrprKtpP+65e4yUCCCCAQC4JZNx0BAXN2nn6lpVcNRHYWr2HNpz4+J1/Ex4rKKrqHYE1FdVt5FlhkIX60j5p+hM2AmuLaGzLyIkPK6KhuJuNwNq1Gto29bFnTdTALlRCIxmf/PHPXRFYm0G/S8946k/bdOhil7gSqnDMlBmuhfalosOP/uBnzgis8+u9Bi0+9sO/ckUtbVnPhH5mn/X9P+/YrZczkmVzalyhZssaPOJ+u8QmBg0bM3H6E5ERWJOhcdMWjzzz53Z8nC3lTIx78BFnBNa5So1RGFrb9dwXbXTiw0/oB3ZnkSDpMVO+44zA2iK6/VnmCkPbJdESisg4I7CubCMnTLt/6izXJa/N06v/kAcfeUajmO0SV2LwffdL1RWBVR7dz95/6EhnXN5VUC+btWyj7vDsxBH3T/Vpc2RVWiLhmd/7s2hHhQZ0zPzeT7RFz7JaqLfGg7O+74zA2pwKDeuIinyv2QzJSGj4rfm+oYGZ0Xq5U/c+ZtOK2+p3F89m6O2gQbVm1a6tFY+O1G8tv/7H//Hrf/o7/dPDuzzr7Dt4hDMCa/PIcNpjP2jUtIVdkqhEAntHn3L6QcgcsQqhfvj6i/rZxrRTkWIbkdQ8uUEa/8Frv/3tbITgdgAAMAFJREFUL/+P/i1dMNszv/9no4LPjzzzU2cE1lmJ4rNaqwH7zoXOtH45m/ros84IrF2rj3SN0jUPb7ELnQk9kWba4z+w++tcpTeRPug835jObFmX5gwercv8j1LO4HLjDB558HAGjzSxSxJ1BrcVpjIR+moqzuvJmwHcaZ6XoxoRMu2JH3leXUeTCXdNnleXAXoCwIRpjzsjsBZTN0ZMe/xHzLNkQUgggAAC+SMQNe6TaQRnFn2gJtUZMKqo8d3Rh4KCBmOjhiZVpKB117KzIW+77njzHmoFXzS0Tb9YKvChX49NCElhza69yu8/Orh395YNK48ePqhBLhpapS/8WqhbmHWhoxtOlbZ/A+4dXa24ul4qPGoGo2lYqMI37Tp204hLrVIQ5N7Rk6INi1PkV2XPnz2j9uhuVt0Dfr3k1q33Cl0pVmhO5IoTLZn3/p6dWzViTvGFzj369Bk0XAXV7C69+m9Zv9K2xz8x9oEZiqmZPIoZ7d62UUM7dbO/4qeanLFuvQa69hoyasLB/budc19qAKkdb6hxhRqUun/PTtGplOLLZhStLv4mPvz4H5/7VxuXcbXEsuvma80JIKKTx289vKhX/6GGXUV0W/32zesO7NlVtVq1Vu069eo/WPdDqVUj7n9QCzUg0VVttJfCV2eZtRrIoMv6fd/sKKhUoJGYHbv21tQBCoBGK2uXm13TLA3qPv2v5bYBGgqnUYomp0aJ6pZ2TT2hW7Dr1m+kgbQm7K5hgxpbp7vUbYXOhFqolyqle7oVs6tZq3a7Tt3Vs9pfLReICu7Yst5ZxKYNl1qlDBo+qcvrtp26KYqtmK+sdNjs2LLB53Z4W49JjJr4sI1GqU4dirq3WuEt7YVmh9BxqM5VUPjV53+hcaOusnppfiTQMbxxzZcH931z9cqlRk2a3ztmsoJZN9e2UCV2WgC9RzR/hZZPnvGUiaCtX7l0y/pb9/pZ3sitmCWvPvevao9io/rGoiW65fyNF/6fWWVHvGpsuDZhiDp37xM5glVvZN3Dbkpt27jGJCL/VwjPhsj37t4WmSFySWlpBbex9+w3WKU0Slq9rg8KBfIUrDcHqpDHTP7OW7//98hq41kSU+/4bEifVFNmPm1+ndqzc4seaeK8399OEKGj7uBe7wC0T+Weq/w/G/UxpUNdBfXZuParRXofnTl5XJ76BUK/nWiVDr++g4Z/sfAjz8qN+bWrV/TJsHfXtrNnTrZq20nHuxnJrk9d3S7w+gv/5tmh+mlBdWpg8uZ1KzS5zc3P5NbDxkxRYFfLVbPGAkf7wPdsTPYu5Azuf5RyBucM7vnu5gyegjO4p3yyF4a7mor/elK/3GvXdAW1c4uudbfr0qVdx666P8P8Eqnw6MBhY1YsmR9w98Ndk+fVZYAuEvRbvi4h1q/6QncFnTtzWpccekCrGa+g664Bw8Z89fncgOBkQwABBBDIDYGsCcKWlt6QuDsCG6ATChq1LAuQLVoWha7mv/+aGVWq79IKuT76g780E1Dq27u+P3/05u9MiEGhRsX+igrLJy5Ubc1atnbWqR+9Fbc1S1YuXbBy6ad2rYKJmp1w+pM/1hINllGERWdru9aZUDBUEx1E3jmrSZ3sOK95772qSSdNKd3Jq3/VimuY6/jeA4YGDMJqIJsdGaoa3vvjc7pf29SpuVkVkP3OU39mQjZ9Bg5zBmHHTJpuBjMqJPHxWy8p7mBKKfi4ae1y3SGusKOW6GpPIekVi72v86T9+Zx3bDDO1KD/dSkzbOxk81LNePsPv7HRNIUm9+7cMv3JP1FsUdeUw8dN+ejN39uCPony+8hu3/Ou/n3r97+2+Jp8U8/MnamJERy3IftUpQar2c4ByCaz7vzSkFWlNZHrB689r+lxzXLFIg/t+2b6d3+sMVBaov+jBWG1VvePv//q86by45UqKRi09evVGoVnYn/D739gZ/mcqt5xPYVKFQizQSJF9BTanjrr+6pWDdPYZO2p0hX+KaBp7qRWTuf7QrdjKz6lw/i+8VO1SteXOirWrVjiWeGlC+f1tCU7aYASehM99ZP/ppHXyq/3ju13da7pX9sjErOPafKs3LnQ3JKvCZ3NwhvXSzzLKrRq3h2t23XWDyH2iDKlFBw3I5R1v5hPsEyTCNtNq4k2HWdi2cKP1y5fbCo5d+aUYuhXLl0y36DUa+o726dxbsgWD947togroXD8A7cjsDoq5n3wmv3oMDn1E4JJnDl10hmcddUT68ton43tOnczIX41Y85bL2kiV1Oz3owqop+y7hkxTks0U5vPFvW++/jtP9g5HDRxnn4P0MBt89OLfqdRONUet656NHvse6/8l533Vh9c+7/Z+b2f/Hf9tqScTZu39jmuXFVl9UvO4Oq+aEcpZ3DO4JzBXZ9vqTyDuzadgpehr6YScj2pbytv/u7f7ZWVIoN6hoHultP3FO27grAb136li4EKHUJfk+fbZYAGJeiJrPoyZUh1OadPPN0UqMmgtKRp8/JnkPCHAAIIIJBXAuWxoRz/q1Y++DTcn4ZqaoIkZ1hN36U1oaStTTOQOuMIioJt3XhrOshGTVua0JvJfOXy5Tde+NWrz/1CgwSdEVizVl/vzROWFNjVHJG2fmdCQYT3//hcZARWeYods6+eOHrX8FutXfjRWxp2qk1/8u4rzgp90nrIj1l78fy5ue+84gqjaEDZok/eMxk0atUM79VLBYLtXdKKH9kIrN2QfuzVlYd5aYYM21XOhOJ3nhGN9l16KkKtnLp2nP36C654mR42ped3mXoUCTI5ndV6pjv37GtGyalORY3tVanJrJGSs9/8XZAJmzT69bOP33YeKnZzGnxX3u/P/UIjMW0E1qwtP2Buzx9qQrG2lDNx4dyZue/+0VW5tmjvztavAnp+k7OITUvpk/f+6IrWKdqrRxKZPE1bBL3+69ZroCmiUILrfaHlCkspLmwyaJSuSUT+/9mcd2wE1qwV8voVS03axMsiSyVviX44UTxO9XvOSGDnItixeZ3L0Nkke7+5+sh1WDqzxZTWTyk2AmsLrvnqc9MMhYbtWBK7Nv5EnL2j0dyafdiErTXVQPmBd/vHG9s2E23XSxuXtKtMQh+b+mnB85/zE9VZyuezUb9zmHffy//5zzYCa8vazxnz65dd7krog8tGYO2qT2e/qa+y5qU9Tuxam5j3/quuPdVLDYc3GZoEfvfZCvMuwRmcM3j0g54zOGfw+M/g0Y+vZK0JfTUV//WkbsjQb4qua10Z6nxtLjJ1F4vutQqy56GvyfPtMmD5kvk2AmtgRa2Hjpi0z4xGQXqBPAgggAAC2SiQNSNhw+NeLwldVnf9O2Osph5FoExCAUpXOEnL7VOJdB2j6QXshY7CbZ4D8Wzbzp89bR5uXrNW+Z2qkX+6izbalJSnjh3RGd0EE0dNmr7gw9edd/rfuHFdoxQjK4y2RPXYYbC6G9oVQTClNHby9//+j2aLNupkS+lX3w2rvoisX41UXMk8W0nhtgaNmpjBDq6c+3Z539BtZ+3ULfDOJzjZ4rpbX1Ov6qXsNbTNGS63eVwJ3VlslhzYu8uGVJx5zPwPuhPcuTAy7XoMlzODAq+u2KtzrQm+a4kZXu1cZdMb1y73DL7rCWaav8IEwTV4OfJhTapBsVrPmQE0HtZEzBs1uXt+D7vViIQZ4q3FmmUi8n2h5fI39243ad5aQyQiD1cdAIdvD452Vq/GmJd16jV0Lk9BWm/MHZvWaVy2tuWakcBMFWLasPXrqHMRKENRUfmoRv3pCU7aR5OO83/nAHNblZ5FdvH8WXPboDounmcZ2zptIs7eadW244OznjHTyWnE/Wdz3M+aMxsyI0CV1ueS3bQzofE40aaE1v6+9ttfOjObtM9noz6BfT549fOG9lqfY/rTrNz249q5Cc3Bsna5x7BuZdaMGeZWWe27joHI55no6649XzjrtB2n6Ticy0l7CHAG5wzucVjcWsQZnDN4/Gfw6MdXstaEvpqK/3py17ZNnt8I9EPj0UP7NaWY9lkTFAS5bS70NXleXQbI0/O6146E0DV87br19F0jWUcb9SKAAAIIZJ5AtgVhFeC4ObtfDJIXwp/YbGzIuTlzW6WWKGzqXG7SNiIZucq5RGEUnXSrVauu+UyLq9eoWrXYZyCkKXgk+mPENZbQXjzpDtk2P/tfCoft/2b7of17FGVwbjdIWtMX2Csknwd/R+6+iQ1pE6dOHosWinJe/OlWcc8grJlTNbKpdpikEj4DaU3B2rfvQ4+sx7nEhj7t9ZBzrUkf0xyvFQVhK3zIu6lKkZr6jZrc7PFqVYurVysu7tClZ+QWXUs0e4BriX2pAJOZd9JE8O1ym1B8yqadCXvBZ8YtOld5ptVm/TOr6jVs7OmvaZFNBoW0atape/W4e1YN3ZodGZlVETOSRYnKlcvn7kzx39aNa0wQ1jUjgQaDGBwh+xweau2VK5dMm4uqVkvULAE+HWfeaIXRn+QWDjCe3tHNlZoqxERgNbzUc14O0yr7q0PtOreOFldrdfC4ltiX0Vb5fDbasiahyVg1YP/mB2+xPnk1Xj5anbagPrIUqbcvnQkb3tXYXdUc+ZvcsW8PeX4S2g9P/VLnrDD305zBvfqYM3ikCmdwY+JzIjAZOIPHfwaPPPySuiQhV1NqYbjrSZ+r+hPHj5ggrL2Y93cIfU2eV5cBulPH9YAQo6phPOY3YL2sUiXPrgT8DyzWIoAAAnkgkDVB2GqtOl49uPvUp281GF8+1NH5d3nP1urto947U3Z0nzNzTOnIe2ljKh6ZWSO8FO5RwMLG/iLzRFvi35i5776i2UX1qE0VVwhV88+aKWgVF9i+ca0uUu3X/mj12+V2tiYt8Y892SImYcfwOiOtrjwKtykMp8izltv8rjw3bs7/61qol/YOJl35TZz+RGQG5xKb2bkwMl29ZvkcWPqzz/4yL53/21CLc6Er7XOvunIq0NNvyH0dOvfUpAEapesqW+FLjXSOlkcjr00QtrpjWlJnZo2ddL606WhxJZvBlXB66plR5rFRrjzOl8ofeRhcidIY/2PbWW0y0mqnhivqjjAzI4GdIEIDY83mtvkOg1WeyxdvIauj9bQ0z8HjsbY8WseVRgkIxlp/ZP54esfMjmrr9Iw8mrVnT500iTr1G9j8zsS506c0IYFzSfWatcwnhnOhM13h8aNhR916D2zWorWdI9hZ3D/t8/a39z2ohvI5YU65nwB5+dIFz8qT14mem8uEhZzB/Y9SzuCuo9R5xnGtcr7kDO7U8Ek7PTmD+0ClYFWcfRHn9aTPj/qnjt+61LQzLPlr2B2J9Zo8ry4D9Bub561jNy+TdONU1F+d/fFZiwACCCCQ1QIxx4OSvrfXr1UqvHVvr3NbtXoOVhC2rPTGyXmv1ejSt7hVp7LS69eOf3tpy2qFky5/s7nBuJnO/DZdts/7ifM2Q8oSigKMnjzd3rmc2O0quPn2S7/pPeDebn0H1a13J7qhayM9HHzwyPFrvloU8PmbhUV3fpL1HLcYreWFRbcOp2jxI1NQD8MxIRUzbi5abZHL7fjcyFWRSwIOD9G8DaYZuhk5shKzpGbtutFWBVmumidOf1I3LAfJ7JnHx1OYpkhMOJ5b8V8Ya/0JH6fp37w412q2ATMtl52RQPvbtlM3VasL5e2b1vrX74y66om3ehKaf/7cXqtv+Me/PaQne3jupp30o6qGoVavGTnPhmZhdhXUD1fDx07RwoD3GTiLK7Cusv0G3+dcGFNaD0OLll/tsSNZkvTBHm3TmbucM3iovuEM7mLjDO4CifMlZ/A4ARNYPJ6+iP960l40Ru6RXRVwrEBMO+J8R3MZEInPEgQQQACBvBLIuCBs2ddLCwaUP6468q/hxMdPf/p26Y2SSzs26J8zQ4NxM5wv70onbeDYXVup6IXu8Rn/0KMmlwJ/eri8xt/pbpSrly8p0Kkv83rWtp54XlE1fusVqlv5xaerli3UAzcV8mvRpr2mONC8tCqjX84HDRujeNJXiz7xq+LmOmdEqUGjpq7p5H2K2wdYabLXaNl0HWZvnI82TCxaWY031BwOWqsn2tsn6rgz3/5dWePp3Ku8Xl+6cM48EFZP5vFaX76sSfRV0Yo4l49/6DEbgdVMC3oYuoYnK/Z05crlq5cvq9MrHNWrRzBFm6JBkxuYbfkEap2NCZ121v/pR2/q1nXvqm77nzhya5pX72wZtnTH5vX33f+gAnZ2RoL2nXqY6LweJeczpa/ZD00OrW8vZroGPRQuM4OwBQXJfQyjHhjSoWsvc3/iyAkPabiNZo6O7GfnPfvtO3e3D3OLzGmX2E8Mn0GpNrMrMWDoKBuB1dwsegT5mZPH9Uml/tKnrj57v/8Xf+8q4npp32Ku5XqpeTn00WqWx/ppFllbbizhDB66HzmDl9PdPoNwBg99IHkW5AzuyZKWhfH0RQKuJxs18ZypXBTmXjolbDTW3yf0NTmXAf6wrEUAAQQQyHmBzAvCHt3nc29G/ftnll69dHHTypLTx/Xtt0r9xjW79q9S0/tJVuq8st3rM6QL9dwk0xLFa9566deXLpx3NaxygkIkGpmlScTK5xH78nNFPDt16zPi/gfMTUM9+w9ZvnjezVtgXBu/66WzbY2btQgThG3c9K4aHS/qN2xiwxYVxrYc5cqTig6bIKwegOP52CJX/iAvTxw70vDms3EUsNaP/5EPC1JrFVYLUpVnHgXBW94eA7ts4ceRz7tv0DhqwNpWqFksogVhFSU32WwE3JZKbMJ5VFwvKUmUf2IbGbo2xcT1aDXdtG5nJLDPu1fEv8JqNRnF3l1bNdRdOTv36PPl53M9H/Fk69GEa5MevjWfxpIFswNOKGyL+yc0p7Nnhlp14hrQ7VmnXagH5S37bI4GFM/6/l9odIwYp8x86o0XfmVn+7U59f1T8xGbN/I9I8ZplHFFU3lUNkOSVYPPfZS2flfCfvDqMX1z3n3ZdUu4+QHGVcT1slGTZq4l9mWjxnceq3X5ovfMAzZzniQ0/w9n8Hj6mjN4THqcwQNycQYPCJWCbKH7IjHXk9GfBtmo6a0zWsDfFENfk3MZkILDjE0ggAACCGSyQHLHRoXb87JdfpHTytVq1B44usH9j9QfN7POgFE+EVhtvWxHBfcRh2thiFJt2t8K5H295kvnFZipSlPENoz+VT/E5kyRG9evK8axdMFs81IRB59RXXYrmr3I/k5um23XmoTmExg2dsrwcQ/cO3qSvcnIBgq1O84pEZxlW7XtYF5qKz7PB3AWsWlbf7MWbezCOBO7tn5tatAIvjGTvxNZ233jHzI3qkeuCrJE+1ulSvkEl4rKrVuxJLJI2463ovORq+wSTSJs086EecqQWWJxnBkSmNYz4u0crxpqncCag1elZ14Fz+zKWVBRWTskUzMS6KtO205dVYMm89q9bZOrKs+XNptusR884n7PPHbhvaMnami8/jVt2ebcmShjim3uYAn7qVI7SrC1YfSfRoJtwS/X+hVLtfrUiaMLZr9hfubRDz+Kw5qD31VyxdL5Zknd+g279xnkWut62aPvoDsjYaM/oc5VyrzUhAdNb39WrFi6wBWBVZ4gv69oGlkzvDdyE7rbwCxUrDnWn5Qia8uZJZzBE9WVnMErlOQMXiGRycAZPCBUCrKF7ouEXE9qwIHnbTG69cde6x49dCCIg73sDHFNzmVAEGHyIIAAAgjkqkD4oEbyRMp2JiZyWrpmQfIaGWvNdvin51xLvQfeG2uFzvwD7x09/bt/on+KijqXm7TzHt6CiDngNQ60eat2rlK6adcsaaeI1KBhrrV6OfaBmdqobvXt0qu/DW3s27VNMy2YzJNnPGWDs7a4RnQOHT3JvNy/e7siXHZVkMSubRtNNk0dMGj42Mgiivs88vRPH/vBz/TPXk3abHrgmIbFufw1/vH0yeMmT/e+g+4bP1X3/puXSsiz7z3DbQ1hErfvVvYMAiq+075T1GfK2c117TWgS89+9qVJaLDh5O981xxXmhZZIzFdGeJ56XlU7Np266jQIWGH9zq3olkXDL6GQ8YTMHXWqbQdKRniqUr2+WOaslNTkLpqdr7cu2ubuUlQMxJ07zPQzEWgb/j6vuTMZtKRPnt2bjl+9NYMDHoIW9de/SNLmSU6CLv0vLX24N5dzjsToxUJstw+frd9l56RX7E0sNfeaRikttB5dmvk8Jefm+IKgI72+mFj29dr7Q8wI8ZPdT3Uy7npXv2HjJly66cRjReO9qBwZxFX2n7wRk5SrABxj76DXfk9X07+zlPmeHCuVT/2GjDULNEwW+eqPE9zBo/1AOAMbsQ4g8d65ETLH3mGUk7O4JbL08euTUEiZF8k4npSP6IPvs/jd2I9ssI+MfibnYHmtY/nmpzLgBQcZmwCAQQQQCBjBTIxCCus0nkvxUt27mSlY4F+y413Q8HKayZQk7HvPSMUi7SFFC5R4M8zpGjzVJjQreiKf+mfoqL9h4505lfgadjoyWbJ9ZJrZ07f9fxuxVKf+NFfz3z6JzO+92fOUlvWr7IPzBlx/4Mdu/VWyM9kUDBLW7E3a29Y+YWd30DhKvs0HsVJxz0w0/mIVQ311by35vE1KrJuZfnQuZj+dAu8HaKrEbh6CplznJ2uqqc++n2NLtSmNUTURnnMJhRLfubP/37qo88+8xd/byZnMMs1/8Bnc962u6DpI5/88c9/9Df/8MO//gcltKfK5oxix9RgZT60b7cJUmvHJekMTOsweOSZnzqJfCoXpkbt2YiSBjWPmjDNRs93bd1oB0L6VBJwVbSjYvO6lSZurkD2g4883aJ1e9se1dyhS89J3/mu8PVPAwNt5DTgRn2yaSpPs1bBUXu7nE9+56rzZ0/bl3qX+TxHQkfCzi3lM03rUB89abopte1rj7kIPH10CH0+5x0T8xWLJoAeOmqiK+yrratmHYTGTURLP/3INi/OxPGjh0wN9Rs2HjJyvDMOq66xexTnVoIUX754vn7bMDl79L0n8hcmKX2x8GOTQY/n0g82eju7opx6ec/wcWOmzDA7ooHzCz58075PgzRDeTT83MZtNXLfOfmAuubhJ38cbYy5q34ddfdPnWU/N9R9OvgnTHvc9uPGNd5PIXPVkz8vOYPH1NecwcXFGTymY8Yns+cZSvk5gxu0aD4+pAlfFa4vEnU9qYmANObAXo7qykS/A9m7Uk4cPfztgX1Bdjmea3IuA4IIkwcBBBBAIFcFMm5O2FvQpTfKlrxTMHJGSPdrl0uXfRCybHKKKSphIq16tukTP/4bjb48tP8b3War+5F1a7+2qRsP7SVRrE3QY7408avug1bBEeMeVHRSlevRSXXqNWjXqbtGgJoKNSGptmIrV/jPXnUppqCnutuAhSKwiz/5wDwwShG3KTOeUjjj4L7dilwomx1MqsDf5vUrbIVKrFg8v0OXHmbM3c3xm/0VDD139rTGpdrf2JVt07rlupp0FgyS1kXbpx+99eizf2EaoN/tFb/+9tC+i+fP1Wugb3CtbODpy8/mKmrjrLP/kJEmjix/3eC8+vZgPeXRdeRHb/5Oo0rNQ8y0xEia4pJctnDOrO//ubO24GkNDT58YK+J9SjCq2l5D+3drcGPGoygqSEUxAnS74ppSm/a4z/Uo4TUR+qFpi3u7KwCo18kLpbnc1SoGV9+NseE8zSsVIF7Pb1BUwYrytygcTP7NDYdKjoMghNVmFNB8M6V+iqb2vb4D//61IljCssu/PhtG5z1qeHcmdOaQdiE/hVS1xheAR7cs0vPr4sspUGcznHfCuBGTojs46Nb83TgmdHoOhT1PUfDqA/t++bsmZPiUsxdY6tNS7RpHZ+L5r7r+qkgsknBl2i/dEe8ebNr05269z56+KCKa0rTRjef+Kcos33nBq82RE69T+e9/+qjz/6lZhtQ8ZHjHzp57IhLUj9KrV722cBhY/QW0J8+GwfcO1odrV9ZSq5drV2nfusOnRWftVtfsXje6ZPH7MvgCY24b96qrfLrI+4Hf/U/dZelJpbVh4U+LvQTjo5VdY1/bfqUU6d37tFXvzzp26mQ9eZ1xnO/Xr0snt9p/LeerWs5g8fSc5zBOYPHcrz45fU5Q3EGF5yPjx9roteF64sEXk/e/+CsURMfLp9PoKxS89Zt7bWBTt+fz31X/wfZ43iuyVU/lwFBkMmDAAIIIJCTAoV16ybxaS3xkJVdPFv22euVxz4WcyXnTmZaBFa7oBiEHlwzbMxkRRz0UqPV9M/u2sqlnypGEHBYli1lEwrkffz2HyY89Jge+KOFin2Y8IfNoDDZl4vmmnkb7cLr166pYOWqVc0SxSPsKiX0tbCwqEjTpJrYpUIVGk/nzKB4xMdvvWTnHzCrNBj2vVeee3DWMxoOqSXaWQWATAzIlt28fuWS+R/alzElFLT68LUXNKLWjDFU2Frjf5016KJwyfzZdn5Pu+rq1cs2feXKnbRZqFvR//hf/9p38AjFWWrWqqNmm0m7Nqz6YvumdXFO17vwozenPvaseYKWYnC62d22RAGdZQs/0pA6u8QzIefvfPdPNVpBe922Y/lcpfZPYdnZb7yoC3q7JM6E/1GhEX86KoaPnWLi3cXVa7iOCh1FH77+QmJjUhtWLes9cJj9LUHRXv2rXr1GkCCsIo96c6nBhkXjK3XAlFz1ngdDX0gU6dOz40zmbRvXRg699PfR7xwXL5zT1xv7rtHDviJ7RI8G/uTdV+z0BZEZQixRQPyD136ryLj5UUd7YXdEtSlEq72Ld26NwM3SYamDVj9d6IcNUegXjjdedD+k66tFn+hTUc96NgFNzV/RuGkL/XNtRD8ILV3wUZDHo7kKmpfqkYZNm3fq1lsvddCaqXjNKo1EnvvuKw899gPzmexZXAu3bFilZ5rpqWvKVj7Q++58+nzQA/fuXpaGVxl4HucMHvw44AxurTiDW4pwCf8zFGdwf59w5uFKheuL+K8nF3z4+tgHHtFjG3Q56rp+1jeF+R++rquF4HsU+prcbILLgODUQXLGdCUQU+YgWydPRgnQvxnVHQlvDP2bcNLUV5ipI2GNxNVLpXNfLBg9q6B6rYA0ZWs+LTsWwwWEZ7U3Sm8Noiy9nXBms/dZl3r9Vqyojf70dV3fJWxOU3ztV4vOnj6hh/Zo2KCdMVPjVTW6UDMraZyjyeYq5d8Y2zAN53z1+V8qyKsgnUKxNqygYVyK9axYMr/8F++7/zSCcvnieUNGTdCIsE1rV2iA4d3ry6MPx44c0vhB3QZugkrKoOadPnH0wN5dX33+ied0mQoIvvOH/+g1cKgG5LpiwRr9qoDa7u0eTzqyey29SvoX/U8Dcl/77b8NGDpSYRHnKDYNLdQMnquXLYzcEVWmsZnjps7S0OODe7V9j0mHNVxXTzDTP2no+fJ6OGx5S27+2a3cno/rTuPsEeIaeHsnR6VKqvmt3/969KSHW7fvonG4ZpUq37phlfw1WtkssR3tLGvSGrv3yn/+s+6n1nA8e+Tocnn75nWrvlioQyiyiI4+s9AmXHlU3Cyxu2BeVnhUrFu+5MjB/f2H3Nehay97mKmsgoCb1i5fv3Jp5CSndhPR9tH2fmmpR9crsPvmi7/q0W+w7m2vXbeeaaeOEpPQ/7a4586qwadPHOvZf7BGhZsGO8vaSkxix+b1Q0ZOMGnPwF+FPorKaXrWvoPv69Z7gOsWe1WrHy3088YXC2arHtemzUu7C3anXNlsx0Viln8dev0F3cWvsZ/mVwqVVXxHU3+sWfbZPbengXPVHE/v2NbahG2tAvEatz5p+pNaosFH4x58RDFiu9YkdH/Aa8//YtSk6ZGTNSuDPl6EqY9HHVqugualFbC7EJlNlSjerSnwNDDf+XGkz4Fln32sgbcqawYB+byFP539psbsaM4E8yuX2cqZU8fXfrVYH5L2g8Ju3QrbhF1lErYTbcKVIUdecgbXG/D2VYTPUaru5gzOGdz5rrefqDbhXKu0/ehwHVcVnqE4g/tf91rnO+/c2xdLdpUrYT/nIzvLLrF5nGVD9EXo60nbkovnz7/+238rv1Nn0HB7+53OYnqugK4nI78pqMG2rE049yLcNbmtIVcvA+wVhWfXm93XFa+Z6c31LrY4JBBAAAEEclWgoGfPnkVFRdq9khKP588kY7enTp26/+ZfDJUXVausqQmq+t03WrZ7fdkOj+BaDFtJVVaFZjS4snLlKufOntKt9AnfrIZMNmhUHufVfdAVThWqH8MVzdJ0sT7NUB49E6l6zZrXS0oU6LHXFj5FtEoBLwVfFPesXKXw2pXLunbU+Dj/IjGtVehEI9R0n74ucS6eP3v+3FkFvn1qUHsUmXIFdLTQhjWj7VefQcNHTZymmnVX9avP/8JnExWuUhBHIBqKe/bUCc8Qtq1B0UZNYmte/vqf/s5849Iu60Ht6gtFuhV79e81W1WIRKCjompV7U5xcQ39GnHu9ElNaxhiQzEVUV8VV6+uLrt+/bpr4HaQejQqU5916m41NTJwZmrQvL2auUJpDQZ56/f/Hq3aID4aJqwx4BpvUr1mLb3ZFdZXl+l3iGiHWbRthVguIk0JohGm2lN9yNiv6yGqSk0R/c7Rsm0HzUJQrbhYrdVsLYrhaioJ/3d0rG0TSN0GjcpKy86cPHb17oH/kVVpOLNmzdNyTZug0Tomg6aFbdC4iWo4e0Yf3frAufNLQGQNSV3S5ubfjh07tm+/Nf1urJsLfd7nDM4ZPNaDzTM/Z3DO4J4HRrSFKT6DR2tGMpbroj3E1VTw60nPNutaSD9M1qhVR1MA6Yq0wnOiZyXOhbG+o51lleYywAUS5GW4KwEzhu7s2YTdQhekqcoT+qojYP3RsuXbdunfaEdCYpen67iifxPbj9FqS0H/ZvZIWAtTcrV04avlr+o2qty6a1nDFgU1alfSDeaXzpUd3Ve2d7P/2ElbTYYkFH3z/LU5Uc3TaDs9STxgbZoxs8KcyqPbtL0GXPoVVYRCIeZkRJnNVnWnuaJanuNAPZul9rgisMqmiVn1AC6TX6MI7QOFbA0K3JjHc2nJqRNH7fJwCU0z6nxUVKyVaJcVnErszf6ebQh0VFy7dup4vCCeW4+2UCG5yGG20TJHLtc3Xv8vvRoV0r3PQFNQ0xZH1mCXBPHRwXZw767yaVlT/qdDPcQbNuXNvLNBhdT37Nhy53VyUjp44jl+1KhLF8/rX3Jal9O1cgaPpXs5g3tqcQb3ZPFcGOQMpcOMM7inXuoXhuuLOK8nNXxBv3fqX6L2N9Zrctd2uQxwgfASAQQQQCCHBbIkCGt74OyJ0rMn9CptA5BsS0jkhIC+hChS1qpdJ+2Nbp3WfWq6terU8WOK92k4YfvOPW7eg3zrFnj/wFxOeOTvTmiU9MgJD5lnsmkeUs1LkL8W7DkCSRLgDJ4k2HytljN4vva8e785g7tFeI0AAggggAACmSqQbUHYTHWkXdkrsGrZZy3bdlTIVTdDjZxQPu2ARiUoDKcndNmZcDUGZ9WyhZpHMnt3k5ZHExj7wEw9Ja9Zy7Z2Yorli+ZrKtVo+VmOAAIIIJAhApzBM6Qj0tUMzuDpkme7CCCAAAIIIBBOoHK4YpRCIGcENBL23Vf+0zmtgZmfy0ZgdQ/73Hdf1qO9cmaX2RGnQJv2XVq0bm8jsGuXL960boUzA2kEEEAAgcwU4Ayemf2SslZxBk8ZNRtCAAEEEEAAgYQIMBI2IYxUkt0CejL1a8//stfAoY2bttSgyAaNmpSWlelJBcePHj5x9LAmij1zqnwSjFT+Xbt6de+ubQUFlTRvlx4ElMpN59u29JQvxdkvXrxw6viRnVs2bN+0Lt8E2N9IgeNHD9XYXUvL458JOrJyliCAQAIFOIMnEDPrquIMnnVdli0N5jIgW3qKdiKAAAJZJ0AQNuu6jAYnRUAPsli3fElSqg5V6dUrl2e/8WKoohSKTeCV//yX2AqQOw8ENqxapn95sKPsIgK5IMAZPBd6MdQ+cAYPxUahigW4DKjYiBwIIIAAAqEEmI4gFBuFEEAAAQQQQAABBBBAAAEEEEAAAQQQQACBYAIEYYM5kQsBBBBAAAEEEEAAAQQQQAABBBBAAAEEEAglQBA2FBuFEEAAAQQQQAABBBBAAAEEEEAAAQQQQACBYAIEYYM5kQsBBBBAAAEEEEAAAQQQQAABBBBAAAEEEAglQBA2FBuFEEAAAQQQQAABBBBAAAEEEEAAAQQQQACBYAIEYYM5kQsBBBBAAAEEEEAAAQQQQAABBBBAAAEEEAglQBA2FBuFEEAAAQQQQAABBBBAAAEEEEAAAQQQQACBYAIEYYM5kQsBBBBAAAEEEEAAAQQQQAABBBBAAAEEEAglUBiqVLyF6tat26ZNm3hroTwCCCCAAAL5J6BzaBp3mjN4GvHZNAIIIIAAAhJI75UAXYAAAgggEFogbUFYzhyh+4yCCCCAAAIIpEtAp2/O4OnCZ7sIIIAAAggggAACCCCQvQJpCMLu2LEje71oOQIIIIAAApkgcOLEidQ3gzN46s3ZIgIIIIAAAp4CabkS8GwJCxFAAAEEAgqkIQi7ffv2gI0jGwIIIIAAAghkjgBn8MzpC1qCAAIIIIAAAggggAAC2SXAg7myq79oLQIIIIAAAggggAACCCCAAAIIIIAAAghkmUA6g7BFN/9SD5au+ezStb/5tl36NzXvqXQdV/Qv/ZsMgXQdz+nabjIMg9TJ+zeIUvx50nVcpat/jVi69jrftpuuXs4353TtL/0b/ydwkBrS1b9B2kYeBBBAAIGkCqQzCJvUHaNyBBBAAAEEEEAAAQQQQAABBBBAAAEEEEAgEwQIwmZCL9AGBBBAAAEEEEAAAQQQQAABBBBAAAEEEMhZAYKwOdu17BgCCCCAAAIIIIAAAggggAACCCCAAAIIZIIAQdhM6AXagAACCCCAAAIIIIAAAggggAACCCCAAAI5K0AQNme7lh1DAAEEEEAAAQQQQAABBBBAAAEEEEAAgUwQIAibCb1AGxBAAAEEEEAAAQQQQAABBBBAAAEEEEAgZwUIwuZs17JjCCCAAAIIIIAAAggggAACCCCAAAIIIJAJAgRhM6EXaAMCCCCAAAIIIIAAAggggAACCCCAAAII5KwAQdic7Vp2DAEEEEAAAQQQQAABBBBAAAEEEEAAAQQyQYAgbCb0Am1AAAEEEEAAAQQQQAABBBBAAAEEEEAAgZwVIAibs13LjiGAAAIIIIAAAggggAACCCCAAAIIIIBAJggQhM2EXqANCCCAAAIIIIAAAggggAACCCCAAAIIIJCzAgRhc7Zr2TEEEEAAAQQQQAABBBBAAAEEEEAAAQQQyAQBgrCZ0Au0AQEEEEAAAQQQQAABBBBAAAEEEEAAAQRyVoAgbM52LTuGAAIIIIAAAggggAACCCCAAAIIIIAAApkgQBA2E3qBNiCAAAIIIIAAAggggAACCCCAAAIIIIBAzgoQhM3ZrmXHEEAAAQQQQAABBBBAAAEEEEAAAQQQQCATBAqLiopMO2wixc1iu6kBxxnnZAhwXCVDNbJOnCNNkrEE52SoRtaJc6RJMpbkm7MxzLe9Zn+T8d6JrBPnSJNkLME5GaqRdeIcaZKMJTgnQzWyTpwjTZKxBOcEqjISNoGYVIUAAggggAACCCCAAAIIIIAAAggggAACCLgFCktKSkxUWwn3yiS/Ttd2zW7lz/6myzld26V/k/zGvVU9/ZvbzvQv/Zs8Ac6/ybM1Nefb+ze9e50u7XRt12jzLuZdnFiBdB3P+bZd3r+JPW6j1Zau44r+jdYjiV1O/ybWM1pt6XJOwXYZCRut01mOAAIIIIAAAggggAACCCCAAAIIIIAAAggkQIAgbAIQqQIBBBBAAAEEEEAAAQQQQAABBBBAAAEEEIgmQBA2mgzLEUAAAQQQQAABBBBAAAEEEEAAAQQQQACBBAgQhE0AIlUggAACCCCAAAIIIIAAAggggAACCCCAAALRBAjCRpNhOQIIIIAAAggggAACCCCAAAIIIIAAAgggkAABgrAJQKQKBBBAAAEEEEAAAQQQQAABBBBAAAEEEEAgmgBB2GgyLEcAAQQQQAABBBBAAAEEEEAAAQQQQAABBBIgQBA2AYhUgQACCCCAAAIIIIAAAggggAACCCCAAAIIRBMgCBtNhuUIIIAAAggggAACCCCAAAIIIIAAAggggEACBAjCJgCRKhBAAAEEEEAAAQQQQAABBBBAAAEEEEAAgWgCBGGjybAcAQQQQAABBBBAAAEEEEAAAQQQQAABBBBIgABB2AQgUgUCCCCAAAIIIIAAAggggAACCCCAAAIIIBBNgCBsNBmWI4AAAggggAACCCCAAAIIIIAAAggggAACCRAgCJsARKpAAAEEEEAAAQQQQAABBBBAAAEEEEAAAQSiCfx/zYBVYHk9SMkAAAAASUVORK5CYII=;" vertex="1" parent="1">
                    <mxGeometry x="40" y="500" width="1024" height="331.3" as="geometry"/>
                </mxCell>
                <mxCell id="15" value="&lt;div class=&quot;lake-content&quot;&gt;&lt;span class=&quot;ne-text&quot;&gt;Serializable&lt;/span&gt;&lt;/div&gt;" style="rounded=0;whiteSpace=wrap;html=1;fillColor=#f5f5f5;fontColor=#333333;strokeColor=#666666;dashed=1;" vertex="1" parent="1">
                    <mxGeometry x="440" y="240" width="160" height="40" as="geometry"/>
                </mxCell>
                <mxCell id="17" value="Base" style="rounded=0;whiteSpace=wrap;html=1;dashed=1;fillColor=#f5f5f5;fontColor=#333333;strokeColor=#666666;" vertex="1" parent="1">
                    <mxGeometry x="40" y="440" width="160" height="40" as="geometry"/>
                </mxCell>
                <mxCell id="19" value="Operand" style="rounded=0;whiteSpace=wrap;html=1;fillColor=#f5f5f5;fontColor=#333333;strokeColor=#666666;dashed=1;" vertex="1" parent="1">
                    <mxGeometry x="240" y="440" width="160" height="40" as="geometry"/>
                </mxCell>
                <mxCell id="21" value="EntityGraph" style="rounded=0;whiteSpace=wrap;html=1;fillColor=#f5f5f5;fontColor=#333333;strokeColor=#666666;dashed=1;" vertex="1" parent="1">
                    <mxGeometry x="440" y="440" width="160" height="40" as="geometry"/>
                </mxCell>
                <mxCell id="23" value="" style="shape=image;verticalLabelPosition=bottom;labelBackgroundColor=#ffffff;verticalAlign=top;aspect=fixed;imageAspect=0;image=https://intranetproxy.alipay.com/skylark/lark/0/2022/png/209882/1652274688315-d994b750-1820-416c-b0c8-9fa9dd81d0f5.png;" vertex="1" parent="1">
                    <mxGeometry x="40" y="850" width="1024" height="340.68" as="geometry"/>
                </mxCell>
            </root>
        </mxGraphModel>
    </diagram>
</mxfile>